<?xml version="1.0" encoding="utf-8" standalone="no"?>
<!DOCTYPE svg PUBLIC "-//W3C//DTD SVG 1.1//EN"
  "http://www.w3.org/Graphics/SVG/1.1/DTD/svg11.dtd">
<svg xmlns:xlink="http://www.w3.org/1999/xlink" width="579.4pt" height="152.944061pt" viewBox="0 0 579.4 152.944061" xmlns="http://www.w3.org/2000/svg" version="1.1">
 <metadata>
  <rdf:RDF xmlns:dc="http://purl.org/dc/elements/1.1/" xmlns:cc="http://creativecommons.org/ns#" xmlns:rdf="http://www.w3.org/1999/02/22-rdf-syntax-ns#">
   <cc:Work>
    <dc:type rdf:resource="http://purl.org/dc/dcmitype/StillImage"/>
    <dc:date>2026-04-14T15:21:55.550589</dc:date>
    <dc:format>image/svg+xml</dc:format>
    <dc:creator>
     <cc:Agent>
      <dc:title>Matplotlib v3.10.8, https://matplotlib.org/</dc:title>
     </cc:Agent>
    </dc:creator>
   </cc:Work>
  </rdf:RDF>
 </metadata>
 <defs>
  <style type="text/css">*{stroke-linejoin: round; stroke-linecap: butt}</style>
 </defs>
 <g id="figure_1">
  <g id="patch_1">
   <path d="M 0 152.944061 
L 579.4 152.944061 
L 579.4 0 
L 0 0 
z
" style="fill: #ffffff"/>
  </g>
  <g id="axes_1">
   <g id="patch_2">
    <path d="M 73.224904 102.449042 
L 506.175096 102.449042 
L 506.175096 59.154023 
L 73.224904 59.154023 
L 73.224904 102.449042 
z
" clip-path="url(#pa8e6e5e7a1)" style="fill: none; stroke: #000000; stroke-width: 2; stroke-linejoin: miter"/>
   </g>
   <g id="patch_3">
    <path d="M 73.224904 102.449042 
L 109.304087 102.449042 
L 109.304087 59.154023 
L 73.224904 59.154023 
z
" clip-path="url(#pa8e6e5e7a1)" style="fill: #81a2be; stroke: #303030; stroke-linejoin: miter"/>
   </g>
   <g id="patch_4">
    <path d="M 109.304087 102.449042 
L 145.383269 102.449042 
L 145.383269 59.154023 
L 109.304087 59.154023 
z
" clip-path="url(#pa8e6e5e7a1)" style="fill: #cc6666; stroke: #303030; stroke-linejoin: miter"/>
   </g>
   <g id="patch_5">
    <path d="M 145.383269 102.449042 
L 181.462452 102.449042 
L 181.462452 59.154023 
L 145.383269 59.154023 
z
" clip-path="url(#pa8e6e5e7a1)" style="fill: #81a2be; stroke: #303030; stroke-linejoin: miter"/>
   </g>
   <g id="patch_6">
    <path d="M 181.462452 102.449042 
L 217.541635 102.449042 
L 217.541635 59.154023 
L 181.462452 59.154023 
z
" clip-path="url(#pa8e6e5e7a1)" style="fill: #cc6666; stroke: #303030; stroke-linejoin: miter"/>
   </g>
   <g id="patch_7">
    <path d="M 217.541635 102.449042 
L 253.620817 102.449042 
L 253.620817 59.154023 
L 217.541635 59.154023 
z
" clip-path="url(#pa8e6e5e7a1)" style="fill: #81a2be; stroke: #303030; stroke-linejoin: miter"/>
   </g>
   <g id="patch_8">
    <path d="M 253.620817 102.449042 
L 289.7 102.449042 
L 289.7 59.154023 
L 253.620817 59.154023 
z
" clip-path="url(#pa8e6e5e7a1)" style="fill: #81a2be; stroke: #303030; stroke-linejoin: miter"/>
   </g>
   <g id="patch_9">
    <path d="M 289.7 102.449042 
L 325.779183 102.449042 
L 325.779183 59.154023 
L 289.7 59.154023 
z
" clip-path="url(#pa8e6e5e7a1)" style="fill: #81a2be; stroke: #303030; stroke-linejoin: miter"/>
   </g>
   <g id="patch_10">
    <path d="M 325.779183 102.449042 
L 361.858365 102.449042 
L 361.858365 59.154023 
L 325.779183 59.154023 
z
" clip-path="url(#pa8e6e5e7a1)" style="fill: #cc6666; stroke: #303030; stroke-linejoin: miter"/>
   </g>
   <g id="patch_11">
    <path d="M 361.858365 102.449042 
L 397.937548 102.449042 
L 397.937548 59.154023 
L 361.858365 59.154023 
z
" clip-path="url(#pa8e6e5e7a1)" style="fill: #81a2be; stroke: #303030; stroke-linejoin: miter"/>
   </g>
   <g id="patch_12">
    <path d="M 397.937548 102.449042 
L 434.016731 102.449042 
L 434.016731 59.154023 
L 397.937548 59.154023 
z
" clip-path="url(#pa8e6e5e7a1)" style="fill: #cc6666; stroke: #303030; stroke-linejoin: miter"/>
   </g>
   <g id="patch_13">
    <path d="M 434.016731 102.449042 
L 470.095913 102.449042 
L 470.095913 59.154023 
L 434.016731 59.154023 
z
" clip-path="url(#pa8e6e5e7a1)" style="fill: #81a2be; stroke: #303030; stroke-linejoin: miter"/>
   </g>
   <g id="patch_14">
    <path d="M 470.095913 102.449042 
L 506.175096 102.449042 
L 506.175096 59.154023 
L 470.095913 59.154023 
z
" clip-path="url(#pa8e6e5e7a1)" style="fill: #81a2be; stroke: #303030; stroke-linejoin: miter"/>
   </g>
   <g id="line2d_1">
    <defs>
     <path id="mc366398072" d="M 0 2 
C 0.530406 2 1.03916 1.789267 1.414214 1.414214 
C 1.789267 1.03916 2 0.530406 2 0 
C 2 -0.530406 1.789267 -1.03916 1.414214 -1.414214 
C 1.03916 -1.789267 0.530406 -2 0 -2 
C -0.530406 -2 -1.03916 -1.789267 -1.414214 -1.414214 
C -1.789267 -1.03916 -2 -0.530406 -2 0 
C -2 0.530406 -1.789267 1.03916 -1.414214 1.414214 
C -1.03916 1.789267 -0.530406 2 0 2 
z
" style="stroke: #000000"/>
    </defs>
    <g clip-path="url(#pa8e6e5e7a1)">
     <use xlink:href="#mc366398072" x="73.224904" y="80.801533" style="stroke: #000000"/>
     <use xlink:href="#mc366398072" x="109.304087" y="80.801533" style="stroke: #000000"/>
     <use xlink:href="#mc366398072" x="145.383269" y="80.801533" style="stroke: #000000"/>
     <use xlink:href="#mc366398072" x="181.462452" y="80.801533" style="stroke: #000000"/>
     <use xlink:href="#mc366398072" x="217.541635" y="80.801533" style="stroke: #000000"/>
     <use xlink:href="#mc366398072" x="253.620817" y="80.801533" style="stroke: #000000"/>
     <use xlink:href="#mc366398072" x="289.7" y="80.801533" style="stroke: #000000"/>
     <use xlink:href="#mc366398072" x="325.779183" y="80.801533" style="stroke: #000000"/>
     <use xlink:href="#mc366398072" x="361.858365" y="80.801533" style="stroke: #000000"/>
     <use xlink:href="#mc366398072" x="397.937548" y="80.801533" style="stroke: #000000"/>
     <use xlink:href="#mc366398072" x="434.016731" y="80.801533" style="stroke: #000000"/>
     <use xlink:href="#mc366398072" x="470.095913" y="80.801533" style="stroke: #000000"/>
     <use xlink:href="#mc366398072" x="506.175096" y="80.801533" style="stroke: #000000"/>
    </g>
   </g>
   <g id="line2d_2">
    <path d="M 66.730651 89.460536 
L 73.224904 95.954789 
" clip-path="url(#pa8e6e5e7a1)" style="fill: none; stroke: #000000; stroke-width: 1.5; stroke-linecap: square"/>
   </g>
   <g id="line2d_3">
    <path d="M 66.730651 79.358365 
L 73.224904 85.852618 
" clip-path="url(#pa8e6e5e7a1)" style="fill: none; stroke: #000000; stroke-width: 1.5; stroke-linecap: square"/>
   </g>
   <g id="line2d_4">
    <path d="M 66.730651 69.256194 
L 73.224904 75.750447 
" clip-path="url(#pa8e6e5e7a1)" style="fill: none; stroke: #000000; stroke-width: 1.5; stroke-linecap: square"/>
   </g>
   <g id="line2d_5">
    <path d="M 66.730651 59.154023 
L 73.224904 65.648276 
" clip-path="url(#pa8e6e5e7a1)" style="fill: none; stroke: #000000; stroke-width: 1.5; stroke-linecap: square"/>
   </g>
   <g id="patch_15">
    <path d="M 523.493103 80.801533 
L 519.163602 85.131034 
L 519.163602 80.828592 
L 506.175096 80.828592 
L 506.175096 80.774473 
L 519.163602 80.774473 
L 519.163602 76.472031 
z
" clip-path="url(#pa8e6e5e7a1)" style="stroke: #000000; stroke-width: 1.5; stroke-linejoin: miter"/>
   </g>
   <g id="text_1">
    <!-- $\Omega$ -->
    <g transform="translate(283.54 20.274004) scale(0.16 -0.16)">
     <defs>
      <path id="DejaVuSans-3a9" d="M 4647 556 
L 4647 0 
L 2772 0 
L 2772 556 
Q 3325 859 3634 1378 
Q 3944 1897 3944 2528 
Q 3944 3278 3531 3731 
Q 3119 4184 2444 4184 
Q 1769 4184 1355 3729 
Q 941 3275 941 2528 
Q 941 1897 1250 1378 
Q 1563 859 2119 556 
L 2119 0 
L 244 0 
L 244 556 
L 1241 556 
Q 747 991 519 1456 
Q 294 1922 294 2497 
Q 294 3491 894 4106 
Q 1491 4722 2444 4722 
Q 3391 4722 3994 4106 
Q 4594 3494 4594 2528 
Q 4594 1922 4372 1459 
Q 4150 997 3647 556 
L 4647 556 
z
" transform="scale(0.015625)"/>
     </defs>
     <use xlink:href="#DejaVuSans-3a9" transform="translate(0 0.21875)"/>
    </g>
   </g>
   <g id="text_2">
    <!-- $u=u^*$ specified -->
    <g transform="translate(23.435632 41.356513) scale(0.11 -0.11)">
     <defs>
      <path id="DejaVuSans-Oblique-75" d="M 428 1388 
L 838 3500 
L 1416 3500 
L 1006 1409 
Q 975 1256 961 1147 
Q 947 1038 947 966 
Q 947 700 1109 554 
Q 1272 409 1569 409 
Q 2031 409 2368 721 
Q 2706 1034 2809 1563 
L 3194 3500 
L 3769 3500 
L 3091 0 
L 2516 0 
L 2631 550 
Q 2388 244 2052 76 
Q 1716 -91 1338 -91 
Q 878 -91 622 161 
Q 366 413 366 863 
Q 366 956 381 1097 
Q 397 1238 428 1388 
z
" transform="scale(0.015625)"/>
      <path id="DejaVuSans-3d" d="M 678 2906 
L 4684 2906 
L 4684 2381 
L 678 2381 
L 678 2906 
z
M 678 1631 
L 4684 1631 
L 4684 1100 
L 678 1100 
L 678 1631 
z
" transform="scale(0.015625)"/>
      <path id="DejaVuSans-2a" d="M 3009 3897 
L 1888 3291 
L 3009 2681 
L 2828 2375 
L 1778 3009 
L 1778 1831 
L 1422 1831 
L 1422 3009 
L 372 2375 
L 191 2681 
L 1313 3291 
L 191 3897 
L 372 4206 
L 1422 3572 
L 1422 4750 
L 1778 4750 
L 1778 3572 
L 2828 4206 
L 3009 3897 
z
" transform="scale(0.015625)"/>
      <path id="DejaVuSans-20" transform="scale(0.015625)"/>
      <path id="DejaVuSans-73" d="M 2834 3397 
L 2834 2853 
Q 2591 2978 2328 3040 
Q 2066 3103 1784 3103 
Q 1356 3103 1142 2972 
Q 928 2841 928 2578 
Q 928 2378 1081 2264 
Q 1234 2150 1697 2047 
L 1894 2003 
Q 2506 1872 2764 1633 
Q 3022 1394 3022 966 
Q 3022 478 2636 193 
Q 2250 -91 1575 -91 
Q 1294 -91 989 -36 
Q 684 19 347 128 
L 347 722 
Q 666 556 975 473 
Q 1284 391 1588 391 
Q 1994 391 2212 530 
Q 2431 669 2431 922 
Q 2431 1156 2273 1281 
Q 2116 1406 1581 1522 
L 1381 1569 
Q 847 1681 609 1914 
Q 372 2147 372 2553 
Q 372 3047 722 3315 
Q 1072 3584 1716 3584 
Q 2034 3584 2315 3537 
Q 2597 3491 2834 3397 
z
" transform="scale(0.015625)"/>
      <path id="DejaVuSans-70" d="M 1159 525 
L 1159 -1331 
L 581 -1331 
L 581 3500 
L 1159 3500 
L 1159 2969 
Q 1341 3281 1617 3432 
Q 1894 3584 2278 3584 
Q 2916 3584 3314 3078 
Q 3713 2572 3713 1747 
Q 3713 922 3314 415 
Q 2916 -91 2278 -91 
Q 1894 -91 1617 61 
Q 1341 213 1159 525 
z
M 3116 1747 
Q 3116 2381 2855 2742 
Q 2594 3103 2138 3103 
Q 1681 3103 1420 2742 
Q 1159 2381 1159 1747 
Q 1159 1113 1420 752 
Q 1681 391 2138 391 
Q 2594 391 2855 752 
Q 3116 1113 3116 1747 
z
" transform="scale(0.015625)"/>
      <path id="DejaVuSans-65" d="M 3597 1894 
L 3597 1613 
L 953 1613 
Q 991 1019 1311 708 
Q 1631 397 2203 397 
Q 2534 397 2845 478 
Q 3156 559 3463 722 
L 3463 178 
Q 3153 47 2828 -22 
Q 2503 -91 2169 -91 
Q 1331 -91 842 396 
Q 353 884 353 1716 
Q 353 2575 817 3079 
Q 1281 3584 2069 3584 
Q 2775 3584 3186 3129 
Q 3597 2675 3597 1894 
z
M 3022 2063 
Q 3016 2534 2758 2815 
Q 2500 3097 2075 3097 
Q 1594 3097 1305 2825 
Q 1016 2553 972 2059 
L 3022 2063 
z
" transform="scale(0.015625)"/>
      <path id="DejaVuSans-63" d="M 3122 3366 
L 3122 2828 
Q 2878 2963 2633 3030 
Q 2388 3097 2138 3097 
Q 1578 3097 1268 2742 
Q 959 2388 959 1747 
Q 959 1106 1268 751 
Q 1578 397 2138 397 
Q 2388 397 2633 464 
Q 2878 531 3122 666 
L 3122 134 
Q 2881 22 2623 -34 
Q 2366 -91 2075 -91 
Q 1284 -91 818 406 
Q 353 903 353 1747 
Q 353 2603 823 3093 
Q 1294 3584 2113 3584 
Q 2378 3584 2631 3529 
Q 2884 3475 3122 3366 
z
" transform="scale(0.015625)"/>
      <path id="DejaVuSans-69" d="M 603 3500 
L 1178 3500 
L 1178 0 
L 603 0 
L 603 3500 
z
M 603 4863 
L 1178 4863 
L 1178 4134 
L 603 4134 
L 603 4863 
z
" transform="scale(0.015625)"/>
      <path id="DejaVuSans-66" d="M 2375 4863 
L 2375 4384 
L 1825 4384 
Q 1516 4384 1395 4259 
Q 1275 4134 1275 3809 
L 1275 3500 
L 2222 3500 
L 2222 3053 
L 1275 3053 
L 1275 0 
L 697 0 
L 697 3053 
L 147 3053 
L 147 3500 
L 697 3500 
L 697 3744 
Q 697 4328 969 4595 
Q 1241 4863 1831 4863 
L 2375 4863 
z
" transform="scale(0.015625)"/>
      <path id="DejaVuSans-64" d="M 2906 2969 
L 2906 4863 
L 3481 4863 
L 3481 0 
L 2906 0 
L 2906 525 
Q 2725 213 2448 61 
Q 2172 -91 1784 -91 
Q 1150 -91 751 415 
Q 353 922 353 1747 
Q 353 2572 751 3078 
Q 1150 3584 1784 3584 
Q 2172 3584 2448 3432 
Q 2725 3281 2906 2969 
z
M 947 1747 
Q 947 1113 1208 752 
Q 1469 391 1925 391 
Q 2381 391 2643 752 
Q 2906 1113 2906 1747 
Q 2906 2381 2643 2742 
Q 2381 3103 1925 3103 
Q 1469 3103 1208 2742 
Q 947 2381 947 1747 
z
" transform="scale(0.015625)"/>
     </defs>
     <use xlink:href="#DejaVuSans-Oblique-75" transform="translate(0 0.765625)"/>
     <use xlink:href="#DejaVuSans-3d" transform="translate(82.861328 0.765625)"/>
     <use xlink:href="#DejaVuSans-Oblique-75" transform="translate(186.132812 0.765625)"/>
     <use xlink:href="#DejaVuSans-2a" transform="translate(267.61556 39.046875) scale(0.7)"/>
     <use xlink:href="#DejaVuSans-20" transform="translate(318.98763 0.765625)"/>
     <use xlink:href="#DejaVuSans-73" transform="translate(350.77474 0.765625)"/>
     <use xlink:href="#DejaVuSans-70" transform="translate(402.874349 0.765625)"/>
     <use xlink:href="#DejaVuSans-65" transform="translate(466.350911 0.765625)"/>
     <use xlink:href="#DejaVuSans-63" transform="translate(527.874349 0.765625)"/>
     <use xlink:href="#DejaVuSans-69" transform="translate(582.854818 0.765625)"/>
     <use xlink:href="#DejaVuSans-66" transform="translate(610.638021 0.765625)"/>
     <use xlink:href="#DejaVuSans-69" transform="translate(645.843099 0.765625)"/>
     <use xlink:href="#DejaVuSans-65" transform="translate(673.626302 0.765625)"/>
     <use xlink:href="#DejaVuSans-64" transform="translate(735.14974 0.765625)"/>
    </g>
   </g>
   <g id="text_3">
    <!-- $t=t^*$ specified -->
    <g transform="translate(473.134368 41.356513) scale(0.11 -0.11)">
     <defs>
      <path id="DejaVuSans-Oblique-74" d="M 2706 3500 
L 2619 3053 
L 1472 3053 
L 1100 1153 
Q 1081 1047 1072 975 
Q 1063 903 1063 863 
Q 1063 663 1183 572 
Q 1303 481 1569 481 
L 2150 481 
L 2053 0 
L 1503 0 
Q 991 0 739 200 
Q 488 400 488 806 
Q 488 878 497 964 
Q 506 1050 525 1153 
L 897 3053 
L 409 3053 
L 500 3500 
L 978 3500 
L 1172 4494 
L 1747 4494 
L 1556 3500 
L 2706 3500 
z
" transform="scale(0.015625)"/>
     </defs>
     <use xlink:href="#DejaVuSans-Oblique-74" transform="translate(0 0.765625)"/>
     <use xlink:href="#DejaVuSans-3d" transform="translate(58.691406 0.765625)"/>
     <use xlink:href="#DejaVuSans-Oblique-74" transform="translate(161.962891 0.765625)"/>
     <use xlink:href="#DejaVuSans-2a" transform="translate(221.450091 39.046875) scale(0.7)"/>
     <use xlink:href="#DejaVuSans-20" transform="translate(272.822161 0.765625)"/>
     <use xlink:href="#DejaVuSans-73" transform="translate(304.609271 0.765625)"/>
     <use xlink:href="#DejaVuSans-70" transform="translate(356.70888 0.765625)"/>
     <use xlink:href="#DejaVuSans-65" transform="translate(420.185443 0.765625)"/>
     <use xlink:href="#DejaVuSans-63" transform="translate(481.70888 0.765625)"/>
     <use xlink:href="#DejaVuSans-69" transform="translate(536.689349 0.765625)"/>
     <use xlink:href="#DejaVuSans-66" transform="translate(564.472552 0.765625)"/>
     <use xlink:href="#DejaVuSans-69" transform="translate(599.67763 0.765625)"/>
     <use xlink:href="#DejaVuSans-65" transform="translate(627.460833 0.765625)"/>
     <use xlink:href="#DejaVuSans-64" transform="translate(688.984271 0.765625)"/>
    </g>
   </g>
   <g id="text_4">
    <!-- $\Gamma_u$ -->
    <g transform="translate(16.155632 140.948182) scale(0.14 -0.14)">
     <defs>
      <path id="DejaVuSans-393" d="M 628 0 
L 628 4666 
L 3531 4666 
L 3531 4134 
L 1259 4134 
L 1259 0 
L 628 0 
z
" transform="scale(0.015625)"/>
     </defs>
     <use xlink:href="#DejaVuSans-393" transform="translate(0 0.09375)"/>
     <use xlink:href="#DejaVuSans-Oblique-75" transform="translate(56.669922 -16.3125) scale(0.7)"/>
    </g>
   </g>
   <g id="text_5">
    <!-- $\Gamma_t$ -->
    <g transform="translate(549.874368 140.948182) scale(0.14 -0.14)">
     <use xlink:href="#DejaVuSans-393" transform="translate(0 0.09375)"/>
     <use xlink:href="#DejaVuSans-Oblique-74" transform="translate(56.669922 -16.3125) scale(0.7)"/>
    </g>
   </g>
   <g id="patch_16">
    <path d="M 24.76363 135.583843 
Q 48.330232 108.943336 70.785663 83.558935 
" style="fill: none; stroke: #000000; stroke-width: 1.5; stroke-linecap: round"/>
    <path d="M 66.222546 85.396858 
L 70.785663 83.558935 
L 69.518131 88.312183 
" style="fill: none; stroke: #000000; stroke-width: 1.5; stroke-linecap: round"/>
   </g>
   <g id="patch_17">
    <path d="M 554.63637 135.583843 
Q 531.069768 108.943336 508.614337 83.558935 
" style="fill: none; stroke: #000000; stroke-width: 1.5; stroke-linecap: round"/>
    <path d="M 509.881869 88.312183 
L 508.614337 83.558935 
L 513.177454 85.396858 
" style="fill: none; stroke: #000000; stroke-width: 1.5; stroke-linecap: round"/>
   </g>
   <g id="patch_18">
    <path d="M 502.49964 26.682759 
Q 289.701964 26.682759 76.904287 26.682759 
" style="fill: none; stroke: #000000; stroke-width: 1.5; stroke-linecap: round"/>
    <path d="M 498.09964 24.482759 
L 502.49964 26.682759 
L 498.09964 28.882759 
" style="fill: none; stroke: #000000; stroke-width: 1.5; stroke-linecap: round"/>
    <path d="M 81.304287 28.882759 
L 76.904287 26.682759 
L 81.304287 24.482759 
" style="fill: none; stroke: #000000; stroke-width: 1.5; stroke-linecap: round"/>
   </g>
   <g id="text_6">
    <!-- $E_1$ -->
    <g transform="translate(85.159496 70.848339) scale(0.11 -0.11)">
     <defs>
      <path id="DejaVuSans-Oblique-45" d="M 1081 4666 
L 4031 4666 
L 3928 4134 
L 1606 4134 
L 1338 2753 
L 3566 2753 
L 3463 2222 
L 1234 2222 
L 909 531 
L 3284 531 
L 3181 0 
L 172 0 
L 1081 4666 
z
" transform="scale(0.015625)"/>
      <path id="DejaVuSans-31" d="M 794 531 
L 1825 531 
L 1825 4091 
L 703 3866 
L 703 4441 
L 1819 4666 
L 2450 4666 
L 2450 531 
L 3481 531 
L 3481 0 
L 794 0 
L 794 531 
z
" transform="scale(0.015625)"/>
     </defs>
     <use xlink:href="#DejaVuSans-Oblique-45" transform="translate(0 0.09375)"/>
     <use xlink:href="#DejaVuSans-31" transform="translate(63.183594 -16.3125) scale(0.7)"/>
    </g>
   </g>
   <g id="text_7">
    <!-- $E_2$ -->
    <g transform="translate(121.238678 70.848339) scale(0.11 -0.11)">
     <defs>
      <path id="DejaVuSans-32" d="M 1228 531 
L 3431 531 
L 3431 0 
L 469 0 
L 469 531 
Q 828 903 1448 1529 
Q 2069 2156 2228 2338 
Q 2531 2678 2651 2914 
Q 2772 3150 2772 3378 
Q 2772 3750 2511 3984 
Q 2250 4219 1831 4219 
Q 1534 4219 1204 4116 
Q 875 4013 500 3803 
L 500 4441 
Q 881 4594 1212 4672 
Q 1544 4750 1819 4750 
Q 2544 4750 2975 4387 
Q 3406 4025 3406 3419 
Q 3406 3131 3298 2873 
Q 3191 2616 2906 2266 
Q 2828 2175 2409 1742 
Q 1991 1309 1228 531 
z
" transform="scale(0.015625)"/>
     </defs>
     <use xlink:href="#DejaVuSans-Oblique-45" transform="translate(0 0.09375)"/>
     <use xlink:href="#DejaVuSans-32" transform="translate(63.183594 -16.3125) scale(0.7)"/>
    </g>
   </g>
   <g id="text_8">
    <!-- $E_1$ -->
    <g transform="translate(157.317861 70.848339) scale(0.11 -0.11)">
     <use xlink:href="#DejaVuSans-Oblique-45" transform="translate(0 0.09375)"/>
     <use xlink:href="#DejaVuSans-31" transform="translate(63.183594 -16.3125) scale(0.7)"/>
    </g>
   </g>
   <g id="text_9">
    <!-- $E_2$ -->
    <g transform="translate(193.397043 70.848339) scale(0.11 -0.11)">
     <use xlink:href="#DejaVuSans-Oblique-45" transform="translate(0 0.09375)"/>
     <use xlink:href="#DejaVuSans-32" transform="translate(63.183594 -16.3125) scale(0.7)"/>
    </g>
   </g>
   <g id="text_10">
    <!-- $E_1$ -->
    <g transform="translate(229.476226 70.848339) scale(0.11 -0.11)">
     <use xlink:href="#DejaVuSans-Oblique-45" transform="translate(0 0.09375)"/>
     <use xlink:href="#DejaVuSans-31" transform="translate(63.183594 -16.3125) scale(0.7)"/>
    </g>
   </g>
   <g id="text_11">
    <!-- $E_1$ -->
    <g transform="translate(265.555409 70.848339) scale(0.11 -0.11)">
     <use xlink:href="#DejaVuSans-Oblique-45" transform="translate(0 0.09375)"/>
     <use xlink:href="#DejaVuSans-31" transform="translate(63.183594 -16.3125) scale(0.7)"/>
    </g>
   </g>
   <g id="text_12">
    <!-- $E_1$ -->
    <g transform="translate(301.634591 70.848339) scale(0.11 -0.11)">
     <use xlink:href="#DejaVuSans-Oblique-45" transform="translate(0 0.09375)"/>
     <use xlink:href="#DejaVuSans-31" transform="translate(63.183594 -16.3125) scale(0.7)"/>
    </g>
   </g>
   <g id="text_13">
    <!-- $E_2$ -->
    <g transform="translate(337.713774 70.848339) scale(0.11 -0.11)">
     <use xlink:href="#DejaVuSans-Oblique-45" transform="translate(0 0.09375)"/>
     <use xlink:href="#DejaVuSans-32" transform="translate(63.183594 -16.3125) scale(0.7)"/>
    </g>
   </g>
   <g id="text_14">
    <!-- $E_1$ -->
    <g transform="translate(373.792957 70.848339) scale(0.11 -0.11)">
     <use xlink:href="#DejaVuSans-Oblique-45" transform="translate(0 0.09375)"/>
     <use xlink:href="#DejaVuSans-31" transform="translate(63.183594 -16.3125) scale(0.7)"/>
    </g>
   </g>
   <g id="text_15">
    <!-- $E_2$ -->
    <g transform="translate(409.872139 70.848339) scale(0.11 -0.11)">
     <use xlink:href="#DejaVuSans-Oblique-45" transform="translate(0 0.09375)"/>
     <use xlink:href="#DejaVuSans-32" transform="translate(63.183594 -16.3125) scale(0.7)"/>
    </g>
   </g>
   <g id="text_16">
    <!-- $E_1$ -->
    <g transform="translate(445.951322 70.848339) scale(0.11 -0.11)">
     <use xlink:href="#DejaVuSans-Oblique-45" transform="translate(0 0.09375)"/>
     <use xlink:href="#DejaVuSans-31" transform="translate(63.183594 -16.3125) scale(0.7)"/>
    </g>
   </g>
   <g id="text_17">
    <!-- $E_1$ -->
    <g transform="translate(482.030504 70.848339) scale(0.11 -0.11)">
     <use xlink:href="#DejaVuSans-Oblique-45" transform="translate(0 0.09375)"/>
     <use xlink:href="#DejaVuSans-31" transform="translate(63.183594 -16.3125) scale(0.7)"/>
    </g>
   </g>
  </g>
 </g>
 <defs>
  <clipPath id="pa8e6e5e7a1">
   <rect x="7.2" y="7.2" width="565" height="138.544061"/>
  </clipPath>
 </defs>
</svg>
