<?xml version="1.0" encoding="utf-8" standalone="no"?>
<!DOCTYPE svg PUBLIC "-//W3C//DTD SVG 1.1//EN"
  "http://www.w3.org/Graphics/SVG/1.1/DTD/svg11.dtd">
<svg xmlns:xlink="http://www.w3.org/1999/xlink" width="710.745938pt" height="566.617656pt" viewBox="0 0 710.745938 566.617656" xmlns="http://www.w3.org/2000/svg" version="1.1">
 <metadata>
  <rdf:RDF xmlns:dc="http://purl.org/dc/elements/1.1/" xmlns:cc="http://creativecommons.org/ns#" xmlns:rdf="http://www.w3.org/1999/02/22-rdf-syntax-ns#">
   <cc:Work>
    <dc:type rdf:resource="http://purl.org/dc/dcmitype/StillImage"/>
    <dc:date>2026-04-14T06:52:13.873194</dc:date>
    <dc:format>image/svg+xml</dc:format>
    <dc:creator>
     <cc:Agent>
      <dc:title>Matplotlib v3.10.8, https://matplotlib.org/</dc:title>
     </cc:Agent>
    </dc:creator>
   </cc:Work>
  </rdf:RDF>
 </metadata>
 <defs>
  <style type="text/css">*{stroke-linejoin: round; stroke-linecap: butt}</style>
 </defs>
 <g id="figure_1">
  <g id="patch_1">
   <path d="M 0 566.617656 
L 710.745938 566.617656 
L 710.745938 0 
L 0 0 
z
" style="fill: #ffffff"/>
  </g>
  <g id="axes_1">
   <g id="patch_2">
    <path d="M 54.305937 244.097969 
L 349.485937 244.097969 
L 349.485937 23.077969 
L 54.305937 23.077969 
z
" style="fill: #ffffff"/>
   </g>
   <g id="matplotlib.axis_1">
    <g id="xtick_1">
     <g id="line2d_1">
      <path d="M 67.72321 244.097969 
L 67.72321 23.077969 
" clip-path="url(#p2bd0d1f0db)" style="fill: none; stroke: #b0b0b0; stroke-width: 0.8; stroke-linecap: square"/>
     </g>
     <g id="line2d_2">
      <defs>
       <path id="m814e621246" d="M 0 0 
L 0 3.5 
" style="stroke: #000000; stroke-width: 0.8"/>
      </defs>
      <g>
       <use xlink:href="#m814e621246" x="67.72321" y="244.097969" style="stroke: #000000; stroke-width: 0.8"/>
      </g>
     </g>
     <g id="text_1">
      <!-- 0.0 -->
      <g transform="translate(58.976491 259.45625) scale(0.11 -0.11)">
       <defs>
        <path id="DejaVuSans-30" d="M 2034 4250 
Q 1547 4250 1301 3770 
Q 1056 3291 1056 2328 
Q 1056 1369 1301 889 
Q 1547 409 2034 409 
Q 2525 409 2770 889 
Q 3016 1369 3016 2328 
Q 3016 3291 2770 3770 
Q 2525 4250 2034 4250 
z
M 2034 4750 
Q 2819 4750 3233 4129 
Q 3647 3509 3647 2328 
Q 3647 1150 3233 529 
Q 2819 -91 2034 -91 
Q 1250 -91 836 529 
Q 422 1150 422 2328 
Q 422 3509 836 4129 
Q 1250 4750 2034 4750 
z
" transform="scale(0.015625)"/>
        <path id="DejaVuSans-2e" d="M 684 794 
L 1344 794 
L 1344 0 
L 684 0 
L 684 794 
z
" transform="scale(0.015625)"/>
       </defs>
       <use xlink:href="#DejaVuSans-30"/>
       <use xlink:href="#DejaVuSans-2e" transform="translate(63.623047 0)"/>
       <use xlink:href="#DejaVuSans-30" transform="translate(95.410156 0)"/>
      </g>
     </g>
    </g>
    <g id="xtick_2">
     <g id="line2d_3">
      <path d="M 121.392301 244.097969 
L 121.392301 23.077969 
" clip-path="url(#p2bd0d1f0db)" style="fill: none; stroke: #b0b0b0; stroke-width: 0.8; stroke-linecap: square"/>
     </g>
     <g id="line2d_4">
      <g>
       <use xlink:href="#m814e621246" x="121.392301" y="244.097969" style="stroke: #000000; stroke-width: 0.8"/>
      </g>
     </g>
     <g id="text_2">
      <!-- 0.2 -->
      <g transform="translate(112.645582 259.45625) scale(0.11 -0.11)">
       <defs>
        <path id="DejaVuSans-32" d="M 1228 531 
L 3431 531 
L 3431 0 
L 469 0 
L 469 531 
Q 828 903 1448 1529 
Q 2069 2156 2228 2338 
Q 2531 2678 2651 2914 
Q 2772 3150 2772 3378 
Q 2772 3750 2511 3984 
Q 2250 4219 1831 4219 
Q 1534 4219 1204 4116 
Q 875 4013 500 3803 
L 500 4441 
Q 881 4594 1212 4672 
Q 1544 4750 1819 4750 
Q 2544 4750 2975 4387 
Q 3406 4025 3406 3419 
Q 3406 3131 3298 2873 
Q 3191 2616 2906 2266 
Q 2828 2175 2409 1742 
Q 1991 1309 1228 531 
z
" transform="scale(0.015625)"/>
       </defs>
       <use xlink:href="#DejaVuSans-30"/>
       <use xlink:href="#DejaVuSans-2e" transform="translate(63.623047 0)"/>
       <use xlink:href="#DejaVuSans-32" transform="translate(95.410156 0)"/>
      </g>
     </g>
    </g>
    <g id="xtick_3">
     <g id="line2d_5">
      <path d="M 175.061392 244.097969 
L 175.061392 23.077969 
" clip-path="url(#p2bd0d1f0db)" style="fill: none; stroke: #b0b0b0; stroke-width: 0.8; stroke-linecap: square"/>
     </g>
     <g id="line2d_6">
      <g>
       <use xlink:href="#m814e621246" x="175.061392" y="244.097969" style="stroke: #000000; stroke-width: 0.8"/>
      </g>
     </g>
     <g id="text_3">
      <!-- 0.4 -->
      <g transform="translate(166.314673 259.45625) scale(0.11 -0.11)">
       <defs>
        <path id="DejaVuSans-34" d="M 2419 4116 
L 825 1625 
L 2419 1625 
L 2419 4116 
z
M 2253 4666 
L 3047 4666 
L 3047 1625 
L 3713 1625 
L 3713 1100 
L 3047 1100 
L 3047 0 
L 2419 0 
L 2419 1100 
L 313 1100 
L 313 1709 
L 2253 4666 
z
" transform="scale(0.015625)"/>
       </defs>
       <use xlink:href="#DejaVuSans-30"/>
       <use xlink:href="#DejaVuSans-2e" transform="translate(63.623047 0)"/>
       <use xlink:href="#DejaVuSans-34" transform="translate(95.410156 0)"/>
      </g>
     </g>
    </g>
    <g id="xtick_4">
     <g id="line2d_7">
      <path d="M 228.730483 244.097969 
L 228.730483 23.077969 
" clip-path="url(#p2bd0d1f0db)" style="fill: none; stroke: #b0b0b0; stroke-width: 0.8; stroke-linecap: square"/>
     </g>
     <g id="line2d_8">
      <g>
       <use xlink:href="#m814e621246" x="228.730483" y="244.097969" style="stroke: #000000; stroke-width: 0.8"/>
      </g>
     </g>
     <g id="text_4">
      <!-- 0.6 -->
      <g transform="translate(219.983764 259.45625) scale(0.11 -0.11)">
       <defs>
        <path id="DejaVuSans-36" d="M 2113 2584 
Q 1688 2584 1439 2293 
Q 1191 2003 1191 1497 
Q 1191 994 1439 701 
Q 1688 409 2113 409 
Q 2538 409 2786 701 
Q 3034 994 3034 1497 
Q 3034 2003 2786 2293 
Q 2538 2584 2113 2584 
z
M 3366 4563 
L 3366 3988 
Q 3128 4100 2886 4159 
Q 2644 4219 2406 4219 
Q 1781 4219 1451 3797 
Q 1122 3375 1075 2522 
Q 1259 2794 1537 2939 
Q 1816 3084 2150 3084 
Q 2853 3084 3261 2657 
Q 3669 2231 3669 1497 
Q 3669 778 3244 343 
Q 2819 -91 2113 -91 
Q 1303 -91 875 529 
Q 447 1150 447 2328 
Q 447 3434 972 4092 
Q 1497 4750 2381 4750 
Q 2619 4750 2861 4703 
Q 3103 4656 3366 4563 
z
" transform="scale(0.015625)"/>
       </defs>
       <use xlink:href="#DejaVuSans-30"/>
       <use xlink:href="#DejaVuSans-2e" transform="translate(63.623047 0)"/>
       <use xlink:href="#DejaVuSans-36" transform="translate(95.410156 0)"/>
      </g>
     </g>
    </g>
    <g id="xtick_5">
     <g id="line2d_9">
      <path d="M 282.399574 244.097969 
L 282.399574 23.077969 
" clip-path="url(#p2bd0d1f0db)" style="fill: none; stroke: #b0b0b0; stroke-width: 0.8; stroke-linecap: square"/>
     </g>
     <g id="line2d_10">
      <g>
       <use xlink:href="#m814e621246" x="282.399574" y="244.097969" style="stroke: #000000; stroke-width: 0.8"/>
      </g>
     </g>
     <g id="text_5">
      <!-- 0.8 -->
      <g transform="translate(273.652855 259.45625) scale(0.11 -0.11)">
       <defs>
        <path id="DejaVuSans-38" d="M 2034 2216 
Q 1584 2216 1326 1975 
Q 1069 1734 1069 1313 
Q 1069 891 1326 650 
Q 1584 409 2034 409 
Q 2484 409 2743 651 
Q 3003 894 3003 1313 
Q 3003 1734 2745 1975 
Q 2488 2216 2034 2216 
z
M 1403 2484 
Q 997 2584 770 2862 
Q 544 3141 544 3541 
Q 544 4100 942 4425 
Q 1341 4750 2034 4750 
Q 2731 4750 3128 4425 
Q 3525 4100 3525 3541 
Q 3525 3141 3298 2862 
Q 3072 2584 2669 2484 
Q 3125 2378 3379 2068 
Q 3634 1759 3634 1313 
Q 3634 634 3220 271 
Q 2806 -91 2034 -91 
Q 1263 -91 848 271 
Q 434 634 434 1313 
Q 434 1759 690 2068 
Q 947 2378 1403 2484 
z
M 1172 3481 
Q 1172 3119 1398 2916 
Q 1625 2713 2034 2713 
Q 2441 2713 2670 2916 
Q 2900 3119 2900 3481 
Q 2900 3844 2670 4047 
Q 2441 4250 2034 4250 
Q 1625 4250 1398 4047 
Q 1172 3844 1172 3481 
z
" transform="scale(0.015625)"/>
       </defs>
       <use xlink:href="#DejaVuSans-30"/>
       <use xlink:href="#DejaVuSans-2e" transform="translate(63.623047 0)"/>
       <use xlink:href="#DejaVuSans-38" transform="translate(95.410156 0)"/>
      </g>
     </g>
    </g>
    <g id="xtick_6">
     <g id="line2d_11">
      <path d="M 336.068665 244.097969 
L 336.068665 23.077969 
" clip-path="url(#p2bd0d1f0db)" style="fill: none; stroke: #b0b0b0; stroke-width: 0.8; stroke-linecap: square"/>
     </g>
     <g id="line2d_12">
      <g>
       <use xlink:href="#m814e621246" x="336.068665" y="244.097969" style="stroke: #000000; stroke-width: 0.8"/>
      </g>
     </g>
     <g id="text_6">
      <!-- 1.0 -->
      <g transform="translate(327.321946 259.45625) scale(0.11 -0.11)">
       <defs>
        <path id="DejaVuSans-31" d="M 794 531 
L 1825 531 
L 1825 4091 
L 703 3866 
L 703 4441 
L 1819 4666 
L 2450 4666 
L 2450 531 
L 3481 531 
L 3481 0 
L 794 0 
L 794 531 
z
" transform="scale(0.015625)"/>
       </defs>
       <use xlink:href="#DejaVuSans-31"/>
       <use xlink:href="#DejaVuSans-2e" transform="translate(63.623047 0)"/>
       <use xlink:href="#DejaVuSans-30" transform="translate(95.410156 0)"/>
      </g>
     </g>
    </g>
    <g id="text_7">
     <!-- x -->
     <g transform="translate(198.344687 274.862031) scale(0.12 -0.12)">
      <defs>
       <path id="DejaVuSans-78" d="M 3513 3500 
L 2247 1797 
L 3578 0 
L 2900 0 
L 1881 1375 
L 863 0 
L 184 0 
L 1544 1831 
L 300 3500 
L 978 3500 
L 1906 2253 
L 2834 3500 
L 3513 3500 
z
" transform="scale(0.015625)"/>
      </defs>
      <use xlink:href="#DejaVuSans-78"/>
     </g>
    </g>
   </g>
   <g id="matplotlib.axis_2">
    <g id="ytick_1">
     <g id="line2d_13">
      <path d="M 54.305937 234.051605 
L 349.485937 234.051605 
" clip-path="url(#p2bd0d1f0db)" style="fill: none; stroke: #b0b0b0; stroke-width: 0.8; stroke-linecap: square"/>
     </g>
     <g id="line2d_14">
      <defs>
       <path id="m8590d7f6a1" d="M 0 0 
L -3.5 0 
" style="stroke: #000000; stroke-width: 0.8"/>
      </defs>
      <g>
       <use xlink:href="#m8590d7f6a1" x="54.305937" y="234.051605" style="stroke: #000000; stroke-width: 0.8"/>
      </g>
     </g>
     <g id="text_8">
      <!-- 0.00 -->
      <g transform="translate(22.81375 238.230746) scale(0.11 -0.11)">
       <use xlink:href="#DejaVuSans-30"/>
       <use xlink:href="#DejaVuSans-2e" transform="translate(63.623047 0)"/>
       <use xlink:href="#DejaVuSans-30" transform="translate(95.410156 0)"/>
       <use xlink:href="#DejaVuSans-30" transform="translate(159.033203 0)"/>
      </g>
     </g>
    </g>
    <g id="ytick_2">
     <g id="line2d_15">
      <path d="M 54.305937 201.903241 
L 349.485937 201.903241 
" clip-path="url(#p2bd0d1f0db)" style="fill: none; stroke: #b0b0b0; stroke-width: 0.8; stroke-linecap: square"/>
     </g>
     <g id="line2d_16">
      <g>
       <use xlink:href="#m8590d7f6a1" x="54.305937" y="201.903241" style="stroke: #000000; stroke-width: 0.8"/>
      </g>
     </g>
     <g id="text_9">
      <!-- 0.02 -->
      <g transform="translate(22.81375 206.082382) scale(0.11 -0.11)">
       <use xlink:href="#DejaVuSans-30"/>
       <use xlink:href="#DejaVuSans-2e" transform="translate(63.623047 0)"/>
       <use xlink:href="#DejaVuSans-30" transform="translate(95.410156 0)"/>
       <use xlink:href="#DejaVuSans-32" transform="translate(159.033203 0)"/>
      </g>
     </g>
    </g>
    <g id="ytick_3">
     <g id="line2d_17">
      <path d="M 54.305937 169.754878 
L 349.485937 169.754878 
" clip-path="url(#p2bd0d1f0db)" style="fill: none; stroke: #b0b0b0; stroke-width: 0.8; stroke-linecap: square"/>
     </g>
     <g id="line2d_18">
      <g>
       <use xlink:href="#m8590d7f6a1" x="54.305937" y="169.754878" style="stroke: #000000; stroke-width: 0.8"/>
      </g>
     </g>
     <g id="text_10">
      <!-- 0.04 -->
      <g transform="translate(22.81375 173.934018) scale(0.11 -0.11)">
       <use xlink:href="#DejaVuSans-30"/>
       <use xlink:href="#DejaVuSans-2e" transform="translate(63.623047 0)"/>
       <use xlink:href="#DejaVuSans-30" transform="translate(95.410156 0)"/>
       <use xlink:href="#DejaVuSans-34" transform="translate(159.033203 0)"/>
      </g>
     </g>
    </g>
    <g id="ytick_4">
     <g id="line2d_19">
      <path d="M 54.305937 137.606514 
L 349.485937 137.606514 
" clip-path="url(#p2bd0d1f0db)" style="fill: none; stroke: #b0b0b0; stroke-width: 0.8; stroke-linecap: square"/>
     </g>
     <g id="line2d_20">
      <g>
       <use xlink:href="#m8590d7f6a1" x="54.305937" y="137.606514" style="stroke: #000000; stroke-width: 0.8"/>
      </g>
     </g>
     <g id="text_11">
      <!-- 0.06 -->
      <g transform="translate(22.81375 141.785655) scale(0.11 -0.11)">
       <use xlink:href="#DejaVuSans-30"/>
       <use xlink:href="#DejaVuSans-2e" transform="translate(63.623047 0)"/>
       <use xlink:href="#DejaVuSans-30" transform="translate(95.410156 0)"/>
       <use xlink:href="#DejaVuSans-36" transform="translate(159.033203 0)"/>
      </g>
     </g>
    </g>
    <g id="ytick_5">
     <g id="line2d_21">
      <path d="M 54.305937 105.458151 
L 349.485937 105.458151 
" clip-path="url(#p2bd0d1f0db)" style="fill: none; stroke: #b0b0b0; stroke-width: 0.8; stroke-linecap: square"/>
     </g>
     <g id="line2d_22">
      <g>
       <use xlink:href="#m8590d7f6a1" x="54.305937" y="105.458151" style="stroke: #000000; stroke-width: 0.8"/>
      </g>
     </g>
     <g id="text_12">
      <!-- 0.08 -->
      <g transform="translate(22.81375 109.637291) scale(0.11 -0.11)">
       <use xlink:href="#DejaVuSans-30"/>
       <use xlink:href="#DejaVuSans-2e" transform="translate(63.623047 0)"/>
       <use xlink:href="#DejaVuSans-30" transform="translate(95.410156 0)"/>
       <use xlink:href="#DejaVuSans-38" transform="translate(159.033203 0)"/>
      </g>
     </g>
    </g>
    <g id="ytick_6">
     <g id="line2d_23">
      <path d="M 54.305937 73.309787 
L 349.485937 73.309787 
" clip-path="url(#p2bd0d1f0db)" style="fill: none; stroke: #b0b0b0; stroke-width: 0.8; stroke-linecap: square"/>
     </g>
     <g id="line2d_24">
      <g>
       <use xlink:href="#m8590d7f6a1" x="54.305937" y="73.309787" style="stroke: #000000; stroke-width: 0.8"/>
      </g>
     </g>
     <g id="text_13">
      <!-- 0.10 -->
      <g transform="translate(22.81375 77.488928) scale(0.11 -0.11)">
       <use xlink:href="#DejaVuSans-30"/>
       <use xlink:href="#DejaVuSans-2e" transform="translate(63.623047 0)"/>
       <use xlink:href="#DejaVuSans-31" transform="translate(95.410156 0)"/>
       <use xlink:href="#DejaVuSans-30" transform="translate(159.033203 0)"/>
      </g>
     </g>
    </g>
    <g id="ytick_7">
     <g id="line2d_25">
      <path d="M 54.305937 41.161423 
L 349.485937 41.161423 
" clip-path="url(#p2bd0d1f0db)" style="fill: none; stroke: #b0b0b0; stroke-width: 0.8; stroke-linecap: square"/>
     </g>
     <g id="line2d_26">
      <g>
       <use xlink:href="#m8590d7f6a1" x="54.305937" y="41.161423" style="stroke: #000000; stroke-width: 0.8"/>
      </g>
     </g>
     <g id="text_14">
      <!-- 0.12 -->
      <g transform="translate(22.81375 45.340564) scale(0.11 -0.11)">
       <use xlink:href="#DejaVuSans-30"/>
       <use xlink:href="#DejaVuSans-2e" transform="translate(63.623047 0)"/>
       <use xlink:href="#DejaVuSans-31" transform="translate(95.410156 0)"/>
       <use xlink:href="#DejaVuSans-32" transform="translate(159.033203 0)"/>
      </g>
     </g>
    </g>
    <g id="text_15">
     <!-- y -->
     <g transform="translate(16.318125 137.139219) rotate(-90) scale(0.12 -0.12)">
      <defs>
       <path id="DejaVuSans-79" d="M 2059 -325 
Q 1816 -950 1584 -1140 
Q 1353 -1331 966 -1331 
L 506 -1331 
L 506 -850 
L 844 -850 
Q 1081 -850 1212 -737 
Q 1344 -625 1503 -206 
L 1606 56 
L 191 3500 
L 800 3500 
L 1894 763 
L 2988 3500 
L 3597 3500 
L 2059 -325 
z
" transform="scale(0.015625)"/>
      </defs>
      <use xlink:href="#DejaVuSans-79"/>
     </g>
    </g>
   </g>
   <g id="line2d_27">
    <path d="M 67.72321 234.051605 
L 70.43377 226.015334 
L 73.144331 218.143069 
L 75.854891 210.434809 
L 78.565451 202.890555 
L 81.276011 195.510306 
L 83.986571 188.294063 
L 86.697131 181.241825 
L 89.407691 174.353593 
L 92.118252 167.629366 
L 94.828812 161.069145 
L 97.539372 154.672929 
L 100.249932 148.440719 
L 102.960492 142.372515 
L 105.671052 136.468316 
L 108.381612 130.728122 
L 111.092173 125.151934 
L 113.802733 119.739752 
L 116.513293 114.491575 
L 119.223853 109.407404 
L 121.934413 104.487238 
L 124.644973 99.731078 
L 127.355533 95.138923 
L 130.066094 90.710773 
L 132.776654 86.44663 
L 135.487214 82.346492 
L 138.197774 78.410359 
L 140.908334 74.638232 
L 143.618894 71.03011 
L 146.329454 67.585994 
L 149.040015 64.305883 
L 151.750575 61.189778 
L 154.461135 58.237679 
L 157.171695 55.449585 
L 159.882255 52.825496 
L 162.592815 50.365414 
L 165.303376 48.069336 
L 168.013936 45.937264 
L 170.724496 43.969198 
L 173.435056 42.165137 
L 176.145616 40.525082 
L 178.856176 39.049032 
L 181.566736 37.736988 
L 184.277297 36.588949 
L 186.987857 35.604916 
L 189.698417 34.784888 
L 192.408977 34.128866 
L 195.119537 33.63685 
L 197.830097 33.308839 
L 200.540657 33.144833 
L 203.251218 33.144833 
L 205.961778 33.308839 
L 208.672338 33.63685 
L 211.382898 34.128866 
L 214.093458 34.784888 
L 216.804018 35.604916 
L 219.514578 36.588949 
L 222.225139 37.736988 
L 224.935699 39.049032 
L 227.646259 40.525082 
L 230.356819 42.165137 
L 233.067379 43.969198 
L 235.777939 45.937264 
L 238.488499 48.069336 
L 241.19906 50.365414 
L 243.90962 52.825496 
L 246.62018 55.449585 
L 249.33074 58.237679 
L 252.0413 61.189778 
L 254.75186 64.305883 
L 257.462421 67.585994 
L 260.172981 71.03011 
L 262.883541 74.638232 
L 265.594101 78.410359 
L 268.304661 82.346492 
L 271.015221 86.44663 
L 273.725781 90.710773 
L 276.436342 95.138923 
L 279.146902 99.731078 
L 281.857462 104.487238 
L 284.568022 109.407404 
L 287.278582 114.491575 
L 289.989142 119.739752 
L 292.699702 125.151934 
L 295.410263 130.728122 
L 298.120823 136.468316 
L 300.831383 142.372515 
L 303.541943 148.440719 
L 306.252503 154.672929 
L 308.963063 161.069145 
L 311.673623 167.629366 
L 314.384184 174.353593 
L 317.094744 181.241825 
L 319.805304 188.294063 
L 322.515864 195.510306 
L 325.226424 202.890555 
L 327.936984 210.434809 
L 330.647544 218.143069 
L 333.358105 226.015334 
L 336.068665 234.051605 
" clip-path="url(#p2bd0d1f0db)" style="fill: none; stroke: #0000ff; stroke-width: 1.5; stroke-linecap: square"/>
   </g>
   <g id="line2d_28">
    <path d="M 67.72321 234.051605 
L 201.895938 33.124332 
L 336.068665 234.051605 
" clip-path="url(#p2bd0d1f0db)" style="fill: none; stroke: #ff0000; stroke-width: 1.5; stroke-linecap: square"/>
    <defs>
     <path id="m10a00bea59" d="M 0 3 
C 0.795609 3 1.55874 2.683901 2.12132 2.12132 
C 2.683901 1.55874 3 0.795609 3 0 
C 3 -0.795609 2.683901 -1.55874 2.12132 -2.12132 
C 1.55874 -2.683901 0.795609 -3 0 -3 
C -0.795609 -3 -1.55874 -2.683901 -2.12132 -2.12132 
C -2.683901 -1.55874 -3 -0.795609 -3 0 
C -3 0.795609 -2.683901 1.55874 -2.12132 2.12132 
C -1.55874 2.683901 -0.795609 3 0 3 
z
" style="stroke: #ff0000"/>
    </defs>
    <g clip-path="url(#p2bd0d1f0db)">
     <use xlink:href="#m10a00bea59" x="67.72321" y="234.051605" style="fill: #ff0000; stroke: #ff0000"/>
     <use xlink:href="#m10a00bea59" x="201.895938" y="33.124332" style="fill: #ff0000; stroke: #ff0000"/>
     <use xlink:href="#m10a00bea59" x="336.068665" y="234.051605" style="fill: #ff0000; stroke: #ff0000"/>
    </g>
   </g>
   <g id="patch_3">
    <path d="M 54.305937 244.097969 
L 54.305937 23.077969 
" style="fill: none; stroke: #000000; stroke-width: 0.8; stroke-linejoin: miter; stroke-linecap: square"/>
   </g>
   <g id="patch_4">
    <path d="M 349.485937 244.097969 
L 349.485937 23.077969 
" style="fill: none; stroke: #000000; stroke-width: 0.8; stroke-linejoin: miter; stroke-linecap: square"/>
   </g>
   <g id="patch_5">
    <path d="M 54.305938 244.097969 
L 349.485937 244.097969 
" style="fill: none; stroke: #000000; stroke-width: 0.8; stroke-linejoin: miter; stroke-linecap: square"/>
   </g>
   <g id="patch_6">
    <path d="M 54.305938 23.077969 
L 349.485937 23.077969 
" style="fill: none; stroke: #000000; stroke-width: 0.8; stroke-linejoin: miter; stroke-linecap: square"/>
   </g>
   <g id="text_16">
    <!-- 2 elements -->
    <g transform="translate(165.505078 17.077969) scale(0.13 -0.13)">
     <defs>
      <path id="DejaVuSans-20" transform="scale(0.015625)"/>
      <path id="DejaVuSans-65" d="M 3597 1894 
L 3597 1613 
L 953 1613 
Q 991 1019 1311 708 
Q 1631 397 2203 397 
Q 2534 397 2845 478 
Q 3156 559 3463 722 
L 3463 178 
Q 3153 47 2828 -22 
Q 2503 -91 2169 -91 
Q 1331 -91 842 396 
Q 353 884 353 1716 
Q 353 2575 817 3079 
Q 1281 3584 2069 3584 
Q 2775 3584 3186 3129 
Q 3597 2675 3597 1894 
z
M 3022 2063 
Q 3016 2534 2758 2815 
Q 2500 3097 2075 3097 
Q 1594 3097 1305 2825 
Q 1016 2553 972 2059 
L 3022 2063 
z
" transform="scale(0.015625)"/>
      <path id="DejaVuSans-6c" d="M 603 4863 
L 1178 4863 
L 1178 0 
L 603 0 
L 603 4863 
z
" transform="scale(0.015625)"/>
      <path id="DejaVuSans-6d" d="M 3328 2828 
Q 3544 3216 3844 3400 
Q 4144 3584 4550 3584 
Q 5097 3584 5394 3201 
Q 5691 2819 5691 2113 
L 5691 0 
L 5113 0 
L 5113 2094 
Q 5113 2597 4934 2840 
Q 4756 3084 4391 3084 
Q 3944 3084 3684 2787 
Q 3425 2491 3425 1978 
L 3425 0 
L 2847 0 
L 2847 2094 
Q 2847 2600 2669 2842 
Q 2491 3084 2119 3084 
Q 1678 3084 1418 2786 
Q 1159 2488 1159 1978 
L 1159 0 
L 581 0 
L 581 3500 
L 1159 3500 
L 1159 2956 
Q 1356 3278 1631 3431 
Q 1906 3584 2284 3584 
Q 2666 3584 2933 3390 
Q 3200 3197 3328 2828 
z
" transform="scale(0.015625)"/>
      <path id="DejaVuSans-6e" d="M 3513 2113 
L 3513 0 
L 2938 0 
L 2938 2094 
Q 2938 2591 2744 2837 
Q 2550 3084 2163 3084 
Q 1697 3084 1428 2787 
Q 1159 2491 1159 1978 
L 1159 0 
L 581 0 
L 581 3500 
L 1159 3500 
L 1159 2956 
Q 1366 3272 1645 3428 
Q 1925 3584 2291 3584 
Q 2894 3584 3203 3211 
Q 3513 2838 3513 2113 
z
" transform="scale(0.015625)"/>
      <path id="DejaVuSans-74" d="M 1172 4494 
L 1172 3500 
L 2356 3500 
L 2356 3053 
L 1172 3053 
L 1172 1153 
Q 1172 725 1289 603 
Q 1406 481 1766 481 
L 2356 481 
L 2356 0 
L 1766 0 
Q 1100 0 847 248 
Q 594 497 594 1153 
L 594 3053 
L 172 3053 
L 172 3500 
L 594 3500 
L 594 4494 
L 1172 4494 
z
" transform="scale(0.015625)"/>
      <path id="DejaVuSans-73" d="M 2834 3397 
L 2834 2853 
Q 2591 2978 2328 3040 
Q 2066 3103 1784 3103 
Q 1356 3103 1142 2972 
Q 928 2841 928 2578 
Q 928 2378 1081 2264 
Q 1234 2150 1697 2047 
L 1894 2003 
Q 2506 1872 2764 1633 
Q 3022 1394 3022 966 
Q 3022 478 2636 193 
Q 2250 -91 1575 -91 
Q 1294 -91 989 -36 
Q 684 19 347 128 
L 347 722 
Q 666 556 975 473 
Q 1284 391 1588 391 
Q 1994 391 2212 530 
Q 2431 669 2431 922 
Q 2431 1156 2273 1281 
Q 2116 1406 1581 1522 
L 1381 1569 
Q 847 1681 609 1914 
Q 372 2147 372 2553 
Q 372 3047 722 3315 
Q 1072 3584 1716 3584 
Q 2034 3584 2315 3537 
Q 2597 3491 2834 3397 
z
" transform="scale(0.015625)"/>
     </defs>
     <use xlink:href="#DejaVuSans-32"/>
     <use xlink:href="#DejaVuSans-20" transform="translate(63.623047 0)"/>
     <use xlink:href="#DejaVuSans-65" transform="translate(95.410156 0)"/>
     <use xlink:href="#DejaVuSans-6c" transform="translate(156.933594 0)"/>
     <use xlink:href="#DejaVuSans-65" transform="translate(184.716797 0)"/>
     <use xlink:href="#DejaVuSans-6d" transform="translate(246.240234 0)"/>
     <use xlink:href="#DejaVuSans-65" transform="translate(343.652344 0)"/>
     <use xlink:href="#DejaVuSans-6e" transform="translate(405.175781 0)"/>
     <use xlink:href="#DejaVuSans-74" transform="translate(468.554688 0)"/>
     <use xlink:href="#DejaVuSans-73" transform="translate(507.763672 0)"/>
    </g>
   </g>
   <g id="legend_1">
    <g id="patch_7">
     <path d="M 148.895937 240.097969 
L 254.895937 240.097969 
Q 256.495937 240.097969 256.495937 238.497969 
L 256.495937 215.812969 
Q 256.495937 214.212969 254.895937 214.212969 
L 148.895937 214.212969 
Q 147.295937 214.212969 147.295937 215.812969 
L 147.295937 238.497969 
Q 147.295937 240.097969 148.895937 240.097969 
z
" style="fill: #ffffff; opacity: 0.8; stroke: #cccccc; stroke-linejoin: miter"/>
    </g>
    <g id="line2d_29">
     <path d="M 150.495937 220.691719 
L 158.495937 220.691719 
L 166.495937 220.691719 
" style="fill: none; stroke: #0000ff; stroke-width: 1.5; stroke-linecap: square"/>
    </g>
    <g id="text_17">
     <!-- Exact: y = 0.5x(1-x) -->
     <g transform="translate(172.895937 223.491719) scale(0.08 -0.08)">
      <defs>
       <path id="DejaVuSans-45" d="M 628 4666 
L 3578 4666 
L 3578 4134 
L 1259 4134 
L 1259 2753 
L 3481 2753 
L 3481 2222 
L 1259 2222 
L 1259 531 
L 3634 531 
L 3634 0 
L 628 0 
L 628 4666 
z
" transform="scale(0.015625)"/>
       <path id="DejaVuSans-61" d="M 2194 1759 
Q 1497 1759 1228 1600 
Q 959 1441 959 1056 
Q 959 750 1161 570 
Q 1363 391 1709 391 
Q 2188 391 2477 730 
Q 2766 1069 2766 1631 
L 2766 1759 
L 2194 1759 
z
M 3341 1997 
L 3341 0 
L 2766 0 
L 2766 531 
Q 2569 213 2275 61 
Q 1981 -91 1556 -91 
Q 1019 -91 701 211 
Q 384 513 384 1019 
Q 384 1609 779 1909 
Q 1175 2209 1959 2209 
L 2766 2209 
L 2766 2266 
Q 2766 2663 2505 2880 
Q 2244 3097 1772 3097 
Q 1472 3097 1187 3025 
Q 903 2953 641 2809 
L 641 3341 
Q 956 3463 1253 3523 
Q 1550 3584 1831 3584 
Q 2591 3584 2966 3190 
Q 3341 2797 3341 1997 
z
" transform="scale(0.015625)"/>
       <path id="DejaVuSans-63" d="M 3122 3366 
L 3122 2828 
Q 2878 2963 2633 3030 
Q 2388 3097 2138 3097 
Q 1578 3097 1268 2742 
Q 959 2388 959 1747 
Q 959 1106 1268 751 
Q 1578 397 2138 397 
Q 2388 397 2633 464 
Q 2878 531 3122 666 
L 3122 134 
Q 2881 22 2623 -34 
Q 2366 -91 2075 -91 
Q 1284 -91 818 406 
Q 353 903 353 1747 
Q 353 2603 823 3093 
Q 1294 3584 2113 3584 
Q 2378 3584 2631 3529 
Q 2884 3475 3122 3366 
z
" transform="scale(0.015625)"/>
       <path id="DejaVuSans-3a" d="M 750 794 
L 1409 794 
L 1409 0 
L 750 0 
L 750 794 
z
M 750 3309 
L 1409 3309 
L 1409 2516 
L 750 2516 
L 750 3309 
z
" transform="scale(0.015625)"/>
       <path id="DejaVuSans-3d" d="M 678 2906 
L 4684 2906 
L 4684 2381 
L 678 2381 
L 678 2906 
z
M 678 1631 
L 4684 1631 
L 4684 1100 
L 678 1100 
L 678 1631 
z
" transform="scale(0.015625)"/>
       <path id="DejaVuSans-35" d="M 691 4666 
L 3169 4666 
L 3169 4134 
L 1269 4134 
L 1269 2991 
Q 1406 3038 1543 3061 
Q 1681 3084 1819 3084 
Q 2600 3084 3056 2656 
Q 3513 2228 3513 1497 
Q 3513 744 3044 326 
Q 2575 -91 1722 -91 
Q 1428 -91 1123 -41 
Q 819 9 494 109 
L 494 744 
Q 775 591 1075 516 
Q 1375 441 1709 441 
Q 2250 441 2565 725 
Q 2881 1009 2881 1497 
Q 2881 1984 2565 2268 
Q 2250 2553 1709 2553 
Q 1456 2553 1204 2497 
Q 953 2441 691 2322 
L 691 4666 
z
" transform="scale(0.015625)"/>
       <path id="DejaVuSans-28" d="M 1984 4856 
Q 1566 4138 1362 3434 
Q 1159 2731 1159 2009 
Q 1159 1288 1364 580 
Q 1569 -128 1984 -844 
L 1484 -844 
Q 1016 -109 783 600 
Q 550 1309 550 2009 
Q 550 2706 781 3412 
Q 1013 4119 1484 4856 
L 1984 4856 
z
" transform="scale(0.015625)"/>
       <path id="DejaVuSans-2d" d="M 313 2009 
L 1997 2009 
L 1997 1497 
L 313 1497 
L 313 2009 
z
" transform="scale(0.015625)"/>
       <path id="DejaVuSans-29" d="M 513 4856 
L 1013 4856 
Q 1481 4119 1714 3412 
Q 1947 2706 1947 2009 
Q 1947 1309 1714 600 
Q 1481 -109 1013 -844 
L 513 -844 
Q 928 -128 1133 580 
Q 1338 1288 1338 2009 
Q 1338 2731 1133 3434 
Q 928 4138 513 4856 
z
" transform="scale(0.015625)"/>
      </defs>
      <use xlink:href="#DejaVuSans-45"/>
      <use xlink:href="#DejaVuSans-78" transform="translate(63.183594 0)"/>
      <use xlink:href="#DejaVuSans-61" transform="translate(122.363281 0)"/>
      <use xlink:href="#DejaVuSans-63" transform="translate(183.642578 0)"/>
      <use xlink:href="#DejaVuSans-74" transform="translate(238.623047 0)"/>
      <use xlink:href="#DejaVuSans-3a" transform="translate(277.832031 0)"/>
      <use xlink:href="#DejaVuSans-20" transform="translate(311.523438 0)"/>
      <use xlink:href="#DejaVuSans-79" transform="translate(343.310547 0)"/>
      <use xlink:href="#DejaVuSans-20" transform="translate(402.490234 0)"/>
      <use xlink:href="#DejaVuSans-3d" transform="translate(434.277344 0)"/>
      <use xlink:href="#DejaVuSans-20" transform="translate(518.066406 0)"/>
      <use xlink:href="#DejaVuSans-30" transform="translate(549.853516 0)"/>
      <use xlink:href="#DejaVuSans-2e" transform="translate(613.476562 0)"/>
      <use xlink:href="#DejaVuSans-35" transform="translate(645.263672 0)"/>
      <use xlink:href="#DejaVuSans-78" transform="translate(708.886719 0)"/>
      <use xlink:href="#DejaVuSans-28" transform="translate(768.066406 0)"/>
      <use xlink:href="#DejaVuSans-31" transform="translate(807.080078 0)"/>
      <use xlink:href="#DejaVuSans-2d" transform="translate(870.703125 0)"/>
      <use xlink:href="#DejaVuSans-78" transform="translate(906.787109 0)"/>
      <use xlink:href="#DejaVuSans-29" transform="translate(965.966797 0)"/>
     </g>
    </g>
    <g id="line2d_30">
     <path d="M 150.495937 232.434219 
L 158.495937 232.434219 
L 166.495937 232.434219 
" style="fill: none; stroke: #ff0000; stroke-width: 1.5; stroke-linecap: square"/>
     <g>
      <use xlink:href="#m10a00bea59" x="158.495937" y="232.434219" style="fill: #ff0000; stroke: #ff0000"/>
     </g>
    </g>
    <g id="text_18">
     <!-- FEM (2 elements) -->
     <g transform="translate(172.895937 235.234219) scale(0.08 -0.08)">
      <defs>
       <path id="DejaVuSans-46" d="M 628 4666 
L 3309 4666 
L 3309 4134 
L 1259 4134 
L 1259 2759 
L 3109 2759 
L 3109 2228 
L 1259 2228 
L 1259 0 
L 628 0 
L 628 4666 
z
" transform="scale(0.015625)"/>
       <path id="DejaVuSans-4d" d="M 628 4666 
L 1569 4666 
L 2759 1491 
L 3956 4666 
L 4897 4666 
L 4897 0 
L 4281 0 
L 4281 4097 
L 3078 897 
L 2444 897 
L 1241 4097 
L 1241 0 
L 628 0 
L 628 4666 
z
" transform="scale(0.015625)"/>
      </defs>
      <use xlink:href="#DejaVuSans-46"/>
      <use xlink:href="#DejaVuSans-45" transform="translate(57.519531 0)"/>
      <use xlink:href="#DejaVuSans-4d" transform="translate(120.703125 0)"/>
      <use xlink:href="#DejaVuSans-20" transform="translate(206.982422 0)"/>
      <use xlink:href="#DejaVuSans-28" transform="translate(238.769531 0)"/>
      <use xlink:href="#DejaVuSans-32" transform="translate(277.783203 0)"/>
      <use xlink:href="#DejaVuSans-20" transform="translate(341.40625 0)"/>
      <use xlink:href="#DejaVuSans-65" transform="translate(373.193359 0)"/>
      <use xlink:href="#DejaVuSans-6c" transform="translate(434.716797 0)"/>
      <use xlink:href="#DejaVuSans-65" transform="translate(462.5 0)"/>
      <use xlink:href="#DejaVuSans-6d" transform="translate(524.023438 0)"/>
      <use xlink:href="#DejaVuSans-65" transform="translate(621.435547 0)"/>
      <use xlink:href="#DejaVuSans-6e" transform="translate(682.958984 0)"/>
      <use xlink:href="#DejaVuSans-74" transform="translate(746.337891 0)"/>
      <use xlink:href="#DejaVuSans-73" transform="translate(785.546875 0)"/>
      <use xlink:href="#DejaVuSans-29" transform="translate(837.646484 0)"/>
     </g>
    </g>
   </g>
  </g>
  <g id="axes_2">
   <g id="patch_8">
    <path d="M 408.365938 244.097969 
L 703.545938 244.097969 
L 703.545938 23.077969 
L 408.365938 23.077969 
z
" style="fill: #ffffff"/>
   </g>
   <g id="matplotlib.axis_3">
    <g id="xtick_7">
     <g id="line2d_31">
      <path d="M 421.78321 244.097969 
L 421.78321 23.077969 
" clip-path="url(#p63bc6d0094)" style="fill: none; stroke: #b0b0b0; stroke-width: 0.8; stroke-linecap: square"/>
     </g>
     <g id="line2d_32">
      <g>
       <use xlink:href="#m814e621246" x="421.78321" y="244.097969" style="stroke: #000000; stroke-width: 0.8"/>
      </g>
     </g>
     <g id="text_19">
      <!-- 0.0 -->
      <g transform="translate(413.036491 259.45625) scale(0.11 -0.11)">
       <use xlink:href="#DejaVuSans-30"/>
       <use xlink:href="#DejaVuSans-2e" transform="translate(63.623047 0)"/>
       <use xlink:href="#DejaVuSans-30" transform="translate(95.410156 0)"/>
      </g>
     </g>
    </g>
    <g id="xtick_8">
     <g id="line2d_33">
      <path d="M 475.452301 244.097969 
L 475.452301 23.077969 
" clip-path="url(#p63bc6d0094)" style="fill: none; stroke: #b0b0b0; stroke-width: 0.8; stroke-linecap: square"/>
     </g>
     <g id="line2d_34">
      <g>
       <use xlink:href="#m814e621246" x="475.452301" y="244.097969" style="stroke: #000000; stroke-width: 0.8"/>
      </g>
     </g>
     <g id="text_20">
      <!-- 0.2 -->
      <g transform="translate(466.705582 259.45625) scale(0.11 -0.11)">
       <use xlink:href="#DejaVuSans-30"/>
       <use xlink:href="#DejaVuSans-2e" transform="translate(63.623047 0)"/>
       <use xlink:href="#DejaVuSans-32" transform="translate(95.410156 0)"/>
      </g>
     </g>
    </g>
    <g id="xtick_9">
     <g id="line2d_35">
      <path d="M 529.121392 244.097969 
L 529.121392 23.077969 
" clip-path="url(#p63bc6d0094)" style="fill: none; stroke: #b0b0b0; stroke-width: 0.8; stroke-linecap: square"/>
     </g>
     <g id="line2d_36">
      <g>
       <use xlink:href="#m814e621246" x="529.121392" y="244.097969" style="stroke: #000000; stroke-width: 0.8"/>
      </g>
     </g>
     <g id="text_21">
      <!-- 0.4 -->
      <g transform="translate(520.374673 259.45625) scale(0.11 -0.11)">
       <use xlink:href="#DejaVuSans-30"/>
       <use xlink:href="#DejaVuSans-2e" transform="translate(63.623047 0)"/>
       <use xlink:href="#DejaVuSans-34" transform="translate(95.410156 0)"/>
      </g>
     </g>
    </g>
    <g id="xtick_10">
     <g id="line2d_37">
      <path d="M 582.790483 244.097969 
L 582.790483 23.077969 
" clip-path="url(#p63bc6d0094)" style="fill: none; stroke: #b0b0b0; stroke-width: 0.8; stroke-linecap: square"/>
     </g>
     <g id="line2d_38">
      <g>
       <use xlink:href="#m814e621246" x="582.790483" y="244.097969" style="stroke: #000000; stroke-width: 0.8"/>
      </g>
     </g>
     <g id="text_22">
      <!-- 0.6 -->
      <g transform="translate(574.043764 259.45625) scale(0.11 -0.11)">
       <use xlink:href="#DejaVuSans-30"/>
       <use xlink:href="#DejaVuSans-2e" transform="translate(63.623047 0)"/>
       <use xlink:href="#DejaVuSans-36" transform="translate(95.410156 0)"/>
      </g>
     </g>
    </g>
    <g id="xtick_11">
     <g id="line2d_39">
      <path d="M 636.459574 244.097969 
L 636.459574 23.077969 
" clip-path="url(#p63bc6d0094)" style="fill: none; stroke: #b0b0b0; stroke-width: 0.8; stroke-linecap: square"/>
     </g>
     <g id="line2d_40">
      <g>
       <use xlink:href="#m814e621246" x="636.459574" y="244.097969" style="stroke: #000000; stroke-width: 0.8"/>
      </g>
     </g>
     <g id="text_23">
      <!-- 0.8 -->
      <g transform="translate(627.712855 259.45625) scale(0.11 -0.11)">
       <use xlink:href="#DejaVuSans-30"/>
       <use xlink:href="#DejaVuSans-2e" transform="translate(63.623047 0)"/>
       <use xlink:href="#DejaVuSans-38" transform="translate(95.410156 0)"/>
      </g>
     </g>
    </g>
    <g id="xtick_12">
     <g id="line2d_41">
      <path d="M 690.128665 244.097969 
L 690.128665 23.077969 
" clip-path="url(#p63bc6d0094)" style="fill: none; stroke: #b0b0b0; stroke-width: 0.8; stroke-linecap: square"/>
     </g>
     <g id="line2d_42">
      <g>
       <use xlink:href="#m814e621246" x="690.128665" y="244.097969" style="stroke: #000000; stroke-width: 0.8"/>
      </g>
     </g>
     <g id="text_24">
      <!-- 1.0 -->
      <g transform="translate(681.381946 259.45625) scale(0.11 -0.11)">
       <use xlink:href="#DejaVuSans-31"/>
       <use xlink:href="#DejaVuSans-2e" transform="translate(63.623047 0)"/>
       <use xlink:href="#DejaVuSans-30" transform="translate(95.410156 0)"/>
      </g>
     </g>
    </g>
    <g id="text_25">
     <!-- x -->
     <g transform="translate(552.404688 274.862031) scale(0.12 -0.12)">
      <use xlink:href="#DejaVuSans-78"/>
     </g>
    </g>
   </g>
   <g id="matplotlib.axis_4">
    <g id="ytick_8">
     <g id="line2d_43">
      <path d="M 408.365938 234.051605 
L 703.545938 234.051605 
" clip-path="url(#p63bc6d0094)" style="fill: none; stroke: #b0b0b0; stroke-width: 0.8; stroke-linecap: square"/>
     </g>
     <g id="line2d_44">
      <g>
       <use xlink:href="#m8590d7f6a1" x="408.365938" y="234.051605" style="stroke: #000000; stroke-width: 0.8"/>
      </g>
     </g>
     <g id="text_26">
      <!-- 0.00 -->
      <g transform="translate(376.87375 238.230746) scale(0.11 -0.11)">
       <use xlink:href="#DejaVuSans-30"/>
       <use xlink:href="#DejaVuSans-2e" transform="translate(63.623047 0)"/>
       <use xlink:href="#DejaVuSans-30" transform="translate(95.410156 0)"/>
       <use xlink:href="#DejaVuSans-30" transform="translate(159.033203 0)"/>
      </g>
     </g>
    </g>
    <g id="ytick_9">
     <g id="line2d_45">
      <path d="M 408.365938 201.899961 
L 703.545938 201.899961 
" clip-path="url(#p63bc6d0094)" style="fill: none; stroke: #b0b0b0; stroke-width: 0.8; stroke-linecap: square"/>
     </g>
     <g id="line2d_46">
      <g>
       <use xlink:href="#m8590d7f6a1" x="408.365938" y="201.899961" style="stroke: #000000; stroke-width: 0.8"/>
      </g>
     </g>
     <g id="text_27">
      <!-- 0.02 -->
      <g transform="translate(376.87375 206.079102) scale(0.11 -0.11)">
       <use xlink:href="#DejaVuSans-30"/>
       <use xlink:href="#DejaVuSans-2e" transform="translate(63.623047 0)"/>
       <use xlink:href="#DejaVuSans-30" transform="translate(95.410156 0)"/>
       <use xlink:href="#DejaVuSans-32" transform="translate(159.033203 0)"/>
      </g>
     </g>
    </g>
    <g id="ytick_10">
     <g id="line2d_47">
      <path d="M 408.365938 169.748317 
L 703.545938 169.748317 
" clip-path="url(#p63bc6d0094)" style="fill: none; stroke: #b0b0b0; stroke-width: 0.8; stroke-linecap: square"/>
     </g>
     <g id="line2d_48">
      <g>
       <use xlink:href="#m8590d7f6a1" x="408.365938" y="169.748317" style="stroke: #000000; stroke-width: 0.8"/>
      </g>
     </g>
     <g id="text_28">
      <!-- 0.04 -->
      <g transform="translate(376.87375 173.927458) scale(0.11 -0.11)">
       <use xlink:href="#DejaVuSans-30"/>
       <use xlink:href="#DejaVuSans-2e" transform="translate(63.623047 0)"/>
       <use xlink:href="#DejaVuSans-30" transform="translate(95.410156 0)"/>
       <use xlink:href="#DejaVuSans-34" transform="translate(159.033203 0)"/>
      </g>
     </g>
    </g>
    <g id="ytick_11">
     <g id="line2d_49">
      <path d="M 408.365938 137.596673 
L 703.545938 137.596673 
" clip-path="url(#p63bc6d0094)" style="fill: none; stroke: #b0b0b0; stroke-width: 0.8; stroke-linecap: square"/>
     </g>
     <g id="line2d_50">
      <g>
       <use xlink:href="#m8590d7f6a1" x="408.365938" y="137.596673" style="stroke: #000000; stroke-width: 0.8"/>
      </g>
     </g>
     <g id="text_29">
      <!-- 0.06 -->
      <g transform="translate(376.87375 141.775813) scale(0.11 -0.11)">
       <use xlink:href="#DejaVuSans-30"/>
       <use xlink:href="#DejaVuSans-2e" transform="translate(63.623047 0)"/>
       <use xlink:href="#DejaVuSans-30" transform="translate(95.410156 0)"/>
       <use xlink:href="#DejaVuSans-36" transform="translate(159.033203 0)"/>
      </g>
     </g>
    </g>
    <g id="ytick_12">
     <g id="line2d_51">
      <path d="M 408.365938 105.445029 
L 703.545938 105.445029 
" clip-path="url(#p63bc6d0094)" style="fill: none; stroke: #b0b0b0; stroke-width: 0.8; stroke-linecap: square"/>
     </g>
     <g id="line2d_52">
      <g>
       <use xlink:href="#m8590d7f6a1" x="408.365938" y="105.445029" style="stroke: #000000; stroke-width: 0.8"/>
      </g>
     </g>
     <g id="text_30">
      <!-- 0.08 -->
      <g transform="translate(376.87375 109.624169) scale(0.11 -0.11)">
       <use xlink:href="#DejaVuSans-30"/>
       <use xlink:href="#DejaVuSans-2e" transform="translate(63.623047 0)"/>
       <use xlink:href="#DejaVuSans-30" transform="translate(95.410156 0)"/>
       <use xlink:href="#DejaVuSans-38" transform="translate(159.033203 0)"/>
      </g>
     </g>
    </g>
    <g id="ytick_13">
     <g id="line2d_53">
      <path d="M 408.365938 73.293385 
L 703.545938 73.293385 
" clip-path="url(#p63bc6d0094)" style="fill: none; stroke: #b0b0b0; stroke-width: 0.8; stroke-linecap: square"/>
     </g>
     <g id="line2d_54">
      <g>
       <use xlink:href="#m8590d7f6a1" x="408.365938" y="73.293385" style="stroke: #000000; stroke-width: 0.8"/>
      </g>
     </g>
     <g id="text_31">
      <!-- 0.10 -->
      <g transform="translate(376.87375 77.472525) scale(0.11 -0.11)">
       <use xlink:href="#DejaVuSans-30"/>
       <use xlink:href="#DejaVuSans-2e" transform="translate(63.623047 0)"/>
       <use xlink:href="#DejaVuSans-31" transform="translate(95.410156 0)"/>
       <use xlink:href="#DejaVuSans-30" transform="translate(159.033203 0)"/>
      </g>
     </g>
    </g>
    <g id="ytick_14">
     <g id="line2d_55">
      <path d="M 408.365938 41.141741 
L 703.545938 41.141741 
" clip-path="url(#p63bc6d0094)" style="fill: none; stroke: #b0b0b0; stroke-width: 0.8; stroke-linecap: square"/>
     </g>
     <g id="line2d_56">
      <g>
       <use xlink:href="#m8590d7f6a1" x="408.365938" y="41.141741" style="stroke: #000000; stroke-width: 0.8"/>
      </g>
     </g>
     <g id="text_32">
      <!-- 0.12 -->
      <g transform="translate(376.87375 45.320881) scale(0.11 -0.11)">
       <use xlink:href="#DejaVuSans-30"/>
       <use xlink:href="#DejaVuSans-2e" transform="translate(63.623047 0)"/>
       <use xlink:href="#DejaVuSans-31" transform="translate(95.410156 0)"/>
       <use xlink:href="#DejaVuSans-32" transform="translate(159.033203 0)"/>
      </g>
     </g>
    </g>
    <g id="text_33">
     <!-- y -->
     <g transform="translate(370.378125 137.139219) rotate(-90) scale(0.12 -0.12)">
      <use xlink:href="#DejaVuSans-79"/>
     </g>
    </g>
   </g>
   <g id="line2d_57">
    <path d="M 421.78321 234.051605 
L 424.49377 226.014514 
L 427.204331 218.141446 
L 429.914891 210.432399 
L 432.625451 202.887375 
L 435.336011 195.506373 
L 438.046571 188.289394 
L 440.757131 181.236436 
L 443.467691 174.347501 
L 446.178252 167.622588 
L 448.888812 161.061698 
L 451.599372 154.66483 
L 454.309932 148.431984 
L 457.020492 142.36316 
L 459.731052 136.458358 
L 462.441612 130.717579 
L 465.152173 125.140822 
L 467.862733 119.728087 
L 470.573293 114.479375 
L 473.283853 109.394685 
L 475.994413 104.474017 
L 478.704973 99.717371 
L 481.415533 95.124748 
L 484.126094 90.696147 
L 486.836654 86.431568 
L 489.547214 82.331011 
L 492.257774 78.394477 
L 494.968334 74.621965 
L 497.678894 71.013475 
L 500.389454 67.569008 
L 503.100015 64.288562 
L 505.810575 61.172139 
L 508.521135 58.219739 
L 511.231695 55.43136 
L 513.942255 52.807004 
L 516.652815 50.34667 
L 519.363376 48.050358 
L 522.073936 45.918069 
L 524.784496 43.949802 
L 527.495056 42.145557 
L 530.205616 40.505334 
L 532.916176 39.029134 
L 535.626736 37.716956 
L 538.337297 36.5688 
L 541.047857 35.584666 
L 543.758417 34.764555 
L 546.468977 34.108466 
L 549.179537 33.616399 
L 551.890097 33.288355 
L 554.600657 33.124332 
L 557.311218 33.124332 
L 560.021778 33.288355 
L 562.732338 33.616399 
L 565.442898 34.108466 
L 568.153458 34.764555 
L 570.864018 35.584666 
L 573.574578 36.5688 
L 576.285139 37.716956 
L 578.995699 39.029134 
L 581.706259 40.505334 
L 584.416819 42.145557 
L 587.127379 43.949802 
L 589.837939 45.918069 
L 592.548499 48.050358 
L 595.25906 50.34667 
L 597.96962 52.807004 
L 600.68018 55.43136 
L 603.39074 58.219739 
L 606.1013 61.172139 
L 608.81186 64.288562 
L 611.522421 67.569008 
L 614.232981 71.013475 
L 616.943541 74.621965 
L 619.654101 78.394477 
L 622.364661 82.331011 
L 625.075221 86.431568 
L 627.785781 90.696147 
L 630.496342 95.124748 
L 633.206902 99.717371 
L 635.917462 104.474017 
L 638.628022 109.394685 
L 641.338582 114.479375 
L 644.049142 119.728087 
L 646.759702 125.140822 
L 649.470263 130.717579 
L 652.180823 136.458358 
L 654.891383 142.36316 
L 657.601943 148.431984 
L 660.312503 154.66483 
L 663.023063 161.061698 
L 665.733623 167.622588 
L 668.444184 174.347501 
L 671.154744 181.236436 
L 673.865304 188.289394 
L 676.575864 195.506373 
L 679.286424 202.887375 
L 681.996984 210.432399 
L 684.707544 218.141446 
L 687.418105 226.014514 
L 690.128665 234.051605 
" clip-path="url(#p63bc6d0094)" style="fill: none; stroke: #0000ff; stroke-width: 1.5; stroke-linecap: square"/>
   </g>
   <g id="line2d_58">
    <path d="M 421.78321 234.051605 
L 475.452301 105.445029 
L 529.121392 41.141741 
L 582.790483 41.141741 
L 636.459574 105.445029 
L 690.128665 234.051605 
" clip-path="url(#p63bc6d0094)" style="fill: none; stroke: #ff0000; stroke-width: 1.5; stroke-linecap: square"/>
    <g clip-path="url(#p63bc6d0094)">
     <use xlink:href="#m10a00bea59" x="421.78321" y="234.051605" style="fill: #ff0000; stroke: #ff0000"/>
     <use xlink:href="#m10a00bea59" x="475.452301" y="105.445029" style="fill: #ff0000; stroke: #ff0000"/>
     <use xlink:href="#m10a00bea59" x="529.121392" y="41.141741" style="fill: #ff0000; stroke: #ff0000"/>
     <use xlink:href="#m10a00bea59" x="582.790483" y="41.141741" style="fill: #ff0000; stroke: #ff0000"/>
     <use xlink:href="#m10a00bea59" x="636.459574" y="105.445029" style="fill: #ff0000; stroke: #ff0000"/>
     <use xlink:href="#m10a00bea59" x="690.128665" y="234.051605" style="fill: #ff0000; stroke: #ff0000"/>
    </g>
   </g>
   <g id="patch_9">
    <path d="M 408.365938 244.097969 
L 408.365938 23.077969 
" style="fill: none; stroke: #000000; stroke-width: 0.8; stroke-linejoin: miter; stroke-linecap: square"/>
   </g>
   <g id="patch_10">
    <path d="M 703.545938 244.097969 
L 703.545938 23.077969 
" style="fill: none; stroke: #000000; stroke-width: 0.8; stroke-linejoin: miter; stroke-linecap: square"/>
   </g>
   <g id="patch_11">
    <path d="M 408.365938 244.097969 
L 703.545938 244.097969 
" style="fill: none; stroke: #000000; stroke-width: 0.8; stroke-linejoin: miter; stroke-linecap: square"/>
   </g>
   <g id="patch_12">
    <path d="M 408.365938 23.077969 
L 703.545938 23.077969 
" style="fill: none; stroke: #000000; stroke-width: 0.8; stroke-linejoin: miter; stroke-linecap: square"/>
   </g>
   <g id="text_34">
    <!-- 5 elements -->
    <g transform="translate(519.565078 17.077969) scale(0.13 -0.13)">
     <use xlink:href="#DejaVuSans-35"/>
     <use xlink:href="#DejaVuSans-20" transform="translate(63.623047 0)"/>
     <use xlink:href="#DejaVuSans-65" transform="translate(95.410156 0)"/>
     <use xlink:href="#DejaVuSans-6c" transform="translate(156.933594 0)"/>
     <use xlink:href="#DejaVuSans-65" transform="translate(184.716797 0)"/>
     <use xlink:href="#DejaVuSans-6d" transform="translate(246.240234 0)"/>
     <use xlink:href="#DejaVuSans-65" transform="translate(343.652344 0)"/>
     <use xlink:href="#DejaVuSans-6e" transform="translate(405.175781 0)"/>
     <use xlink:href="#DejaVuSans-74" transform="translate(468.554688 0)"/>
     <use xlink:href="#DejaVuSans-73" transform="translate(507.763672 0)"/>
    </g>
   </g>
   <g id="legend_2">
    <g id="patch_13">
     <path d="M 502.955938 240.097969 
L 608.955938 240.097969 
Q 610.555938 240.097969 610.555938 238.497969 
L 610.555938 215.812969 
Q 610.555938 214.212969 608.955938 214.212969 
L 502.955938 214.212969 
Q 501.355938 214.212969 501.355938 215.812969 
L 501.355938 238.497969 
Q 501.355938 240.097969 502.955938 240.097969 
z
" style="fill: #ffffff; opacity: 0.8; stroke: #cccccc; stroke-linejoin: miter"/>
    </g>
    <g id="line2d_59">
     <path d="M 504.555938 220.691719 
L 512.555938 220.691719 
L 520.555938 220.691719 
" style="fill: none; stroke: #0000ff; stroke-width: 1.5; stroke-linecap: square"/>
    </g>
    <g id="text_35">
     <!-- Exact: y = 0.5x(1-x) -->
     <g transform="translate(526.955938 223.491719) scale(0.08 -0.08)">
      <use xlink:href="#DejaVuSans-45"/>
      <use xlink:href="#DejaVuSans-78" transform="translate(63.183594 0)"/>
      <use xlink:href="#DejaVuSans-61" transform="translate(122.363281 0)"/>
      <use xlink:href="#DejaVuSans-63" transform="translate(183.642578 0)"/>
      <use xlink:href="#DejaVuSans-74" transform="translate(238.623047 0)"/>
      <use xlink:href="#DejaVuSans-3a" transform="translate(277.832031 0)"/>
      <use xlink:href="#DejaVuSans-20" transform="translate(311.523438 0)"/>
      <use xlink:href="#DejaVuSans-79" transform="translate(343.310547 0)"/>
      <use xlink:href="#DejaVuSans-20" transform="translate(402.490234 0)"/>
      <use xlink:href="#DejaVuSans-3d" transform="translate(434.277344 0)"/>
      <use xlink:href="#DejaVuSans-20" transform="translate(518.066406 0)"/>
      <use xlink:href="#DejaVuSans-30" transform="translate(549.853516 0)"/>
      <use xlink:href="#DejaVuSans-2e" transform="translate(613.476562 0)"/>
      <use xlink:href="#DejaVuSans-35" transform="translate(645.263672 0)"/>
      <use xlink:href="#DejaVuSans-78" transform="translate(708.886719 0)"/>
      <use xlink:href="#DejaVuSans-28" transform="translate(768.066406 0)"/>
      <use xlink:href="#DejaVuSans-31" transform="translate(807.080078 0)"/>
      <use xlink:href="#DejaVuSans-2d" transform="translate(870.703125 0)"/>
      <use xlink:href="#DejaVuSans-78" transform="translate(906.787109 0)"/>
      <use xlink:href="#DejaVuSans-29" transform="translate(965.966797 0)"/>
     </g>
    </g>
    <g id="line2d_60">
     <path d="M 504.555938 232.434219 
L 512.555938 232.434219 
L 520.555938 232.434219 
" style="fill: none; stroke: #ff0000; stroke-width: 1.5; stroke-linecap: square"/>
     <g>
      <use xlink:href="#m10a00bea59" x="512.555938" y="232.434219" style="fill: #ff0000; stroke: #ff0000"/>
     </g>
    </g>
    <g id="text_36">
     <!-- FEM (5 elements) -->
     <g transform="translate(526.955938 235.234219) scale(0.08 -0.08)">
      <use xlink:href="#DejaVuSans-46"/>
      <use xlink:href="#DejaVuSans-45" transform="translate(57.519531 0)"/>
      <use xlink:href="#DejaVuSans-4d" transform="translate(120.703125 0)"/>
      <use xlink:href="#DejaVuSans-20" transform="translate(206.982422 0)"/>
      <use xlink:href="#DejaVuSans-28" transform="translate(238.769531 0)"/>
      <use xlink:href="#DejaVuSans-35" transform="translate(277.783203 0)"/>
      <use xlink:href="#DejaVuSans-20" transform="translate(341.40625 0)"/>
      <use xlink:href="#DejaVuSans-65" transform="translate(373.193359 0)"/>
      <use xlink:href="#DejaVuSans-6c" transform="translate(434.716797 0)"/>
      <use xlink:href="#DejaVuSans-65" transform="translate(462.5 0)"/>
      <use xlink:href="#DejaVuSans-6d" transform="translate(524.023438 0)"/>
      <use xlink:href="#DejaVuSans-65" transform="translate(621.435547 0)"/>
      <use xlink:href="#DejaVuSans-6e" transform="translate(682.958984 0)"/>
      <use xlink:href="#DejaVuSans-74" transform="translate(746.337891 0)"/>
      <use xlink:href="#DejaVuSans-73" transform="translate(785.546875 0)"/>
      <use xlink:href="#DejaVuSans-29" transform="translate(837.646484 0)"/>
     </g>
    </g>
   </g>
  </g>
  <g id="axes_3">
   <g id="patch_14">
    <path d="M 54.305937 526.157969 
L 349.485937 526.157969 
L 349.485937 305.137969 
L 54.305937 305.137969 
z
" style="fill: #ffffff"/>
   </g>
   <g id="matplotlib.axis_5">
    <g id="xtick_13">
     <g id="line2d_61">
      <path d="M 67.72321 526.157969 
L 67.72321 305.137969 
" clip-path="url(#pc31f471eed)" style="fill: none; stroke: #b0b0b0; stroke-width: 0.8; stroke-linecap: square"/>
     </g>
     <g id="line2d_62">
      <g>
       <use xlink:href="#m814e621246" x="67.72321" y="526.157969" style="stroke: #000000; stroke-width: 0.8"/>
      </g>
     </g>
     <g id="text_37">
      <!-- 0.0 -->
      <g transform="translate(58.976491 541.51625) scale(0.11 -0.11)">
       <use xlink:href="#DejaVuSans-30"/>
       <use xlink:href="#DejaVuSans-2e" transform="translate(63.623047 0)"/>
       <use xlink:href="#DejaVuSans-30" transform="translate(95.410156 0)"/>
      </g>
     </g>
    </g>
    <g id="xtick_14">
     <g id="line2d_63">
      <path d="M 121.392301 526.157969 
L 121.392301 305.137969 
" clip-path="url(#pc31f471eed)" style="fill: none; stroke: #b0b0b0; stroke-width: 0.8; stroke-linecap: square"/>
     </g>
     <g id="line2d_64">
      <g>
       <use xlink:href="#m814e621246" x="121.392301" y="526.157969" style="stroke: #000000; stroke-width: 0.8"/>
      </g>
     </g>
     <g id="text_38">
      <!-- 0.2 -->
      <g transform="translate(112.645582 541.51625) scale(0.11 -0.11)">
       <use xlink:href="#DejaVuSans-30"/>
       <use xlink:href="#DejaVuSans-2e" transform="translate(63.623047 0)"/>
       <use xlink:href="#DejaVuSans-32" transform="translate(95.410156 0)"/>
      </g>
     </g>
    </g>
    <g id="xtick_15">
     <g id="line2d_65">
      <path d="M 175.061392 526.157969 
L 175.061392 305.137969 
" clip-path="url(#pc31f471eed)" style="fill: none; stroke: #b0b0b0; stroke-width: 0.8; stroke-linecap: square"/>
     </g>
     <g id="line2d_66">
      <g>
       <use xlink:href="#m814e621246" x="175.061392" y="526.157969" style="stroke: #000000; stroke-width: 0.8"/>
      </g>
     </g>
     <g id="text_39">
      <!-- 0.4 -->
      <g transform="translate(166.314673 541.51625) scale(0.11 -0.11)">
       <use xlink:href="#DejaVuSans-30"/>
       <use xlink:href="#DejaVuSans-2e" transform="translate(63.623047 0)"/>
       <use xlink:href="#DejaVuSans-34" transform="translate(95.410156 0)"/>
      </g>
     </g>
    </g>
    <g id="xtick_16">
     <g id="line2d_67">
      <path d="M 228.730483 526.157969 
L 228.730483 305.137969 
" clip-path="url(#pc31f471eed)" style="fill: none; stroke: #b0b0b0; stroke-width: 0.8; stroke-linecap: square"/>
     </g>
     <g id="line2d_68">
      <g>
       <use xlink:href="#m814e621246" x="228.730483" y="526.157969" style="stroke: #000000; stroke-width: 0.8"/>
      </g>
     </g>
     <g id="text_40">
      <!-- 0.6 -->
      <g transform="translate(219.983764 541.51625) scale(0.11 -0.11)">
       <use xlink:href="#DejaVuSans-30"/>
       <use xlink:href="#DejaVuSans-2e" transform="translate(63.623047 0)"/>
       <use xlink:href="#DejaVuSans-36" transform="translate(95.410156 0)"/>
      </g>
     </g>
    </g>
    <g id="xtick_17">
     <g id="line2d_69">
      <path d="M 282.399574 526.157969 
L 282.399574 305.137969 
" clip-path="url(#pc31f471eed)" style="fill: none; stroke: #b0b0b0; stroke-width: 0.8; stroke-linecap: square"/>
     </g>
     <g id="line2d_70">
      <g>
       <use xlink:href="#m814e621246" x="282.399574" y="526.157969" style="stroke: #000000; stroke-width: 0.8"/>
      </g>
     </g>
     <g id="text_41">
      <!-- 0.8 -->
      <g transform="translate(273.652855 541.51625) scale(0.11 -0.11)">
       <use xlink:href="#DejaVuSans-30"/>
       <use xlink:href="#DejaVuSans-2e" transform="translate(63.623047 0)"/>
       <use xlink:href="#DejaVuSans-38" transform="translate(95.410156 0)"/>
      </g>
     </g>
    </g>
    <g id="xtick_18">
     <g id="line2d_71">
      <path d="M 336.068665 526.157969 
L 336.068665 305.137969 
" clip-path="url(#pc31f471eed)" style="fill: none; stroke: #b0b0b0; stroke-width: 0.8; stroke-linecap: square"/>
     </g>
     <g id="line2d_72">
      <g>
       <use xlink:href="#m814e621246" x="336.068665" y="526.157969" style="stroke: #000000; stroke-width: 0.8"/>
      </g>
     </g>
     <g id="text_42">
      <!-- 1.0 -->
      <g transform="translate(327.321946 541.51625) scale(0.11 -0.11)">
       <use xlink:href="#DejaVuSans-31"/>
       <use xlink:href="#DejaVuSans-2e" transform="translate(63.623047 0)"/>
       <use xlink:href="#DejaVuSans-30" transform="translate(95.410156 0)"/>
      </g>
     </g>
    </g>
    <g id="text_43">
     <!-- x -->
     <g transform="translate(198.344687 556.922031) scale(0.12 -0.12)">
      <use xlink:href="#DejaVuSans-78"/>
     </g>
    </g>
   </g>
   <g id="matplotlib.axis_6">
    <g id="ytick_15">
     <g id="line2d_73">
      <path d="M 54.305937 516.111605 
L 349.485937 516.111605 
" clip-path="url(#pc31f471eed)" style="fill: none; stroke: #b0b0b0; stroke-width: 0.8; stroke-linecap: square"/>
     </g>
     <g id="line2d_74">
      <g>
       <use xlink:href="#m8590d7f6a1" x="54.305937" y="516.111605" style="stroke: #000000; stroke-width: 0.8"/>
      </g>
     </g>
     <g id="text_44">
      <!-- 0.00 -->
      <g transform="translate(22.81375 520.290746) scale(0.11 -0.11)">
       <use xlink:href="#DejaVuSans-30"/>
       <use xlink:href="#DejaVuSans-2e" transform="translate(63.623047 0)"/>
       <use xlink:href="#DejaVuSans-30" transform="translate(95.410156 0)"/>
       <use xlink:href="#DejaVuSans-30" transform="translate(159.033203 0)"/>
      </g>
     </g>
    </g>
    <g id="ytick_16">
     <g id="line2d_75">
      <path d="M 54.305937 483.963241 
L 349.485937 483.963241 
" clip-path="url(#pc31f471eed)" style="fill: none; stroke: #b0b0b0; stroke-width: 0.8; stroke-linecap: square"/>
     </g>
     <g id="line2d_76">
      <g>
       <use xlink:href="#m8590d7f6a1" x="54.305937" y="483.963241" style="stroke: #000000; stroke-width: 0.8"/>
      </g>
     </g>
     <g id="text_45">
      <!-- 0.02 -->
      <g transform="translate(22.81375 488.142382) scale(0.11 -0.11)">
       <use xlink:href="#DejaVuSans-30"/>
       <use xlink:href="#DejaVuSans-2e" transform="translate(63.623047 0)"/>
       <use xlink:href="#DejaVuSans-30" transform="translate(95.410156 0)"/>
       <use xlink:href="#DejaVuSans-32" transform="translate(159.033203 0)"/>
      </g>
     </g>
    </g>
    <g id="ytick_17">
     <g id="line2d_77">
      <path d="M 54.305937 451.814878 
L 349.485937 451.814878 
" clip-path="url(#pc31f471eed)" style="fill: none; stroke: #b0b0b0; stroke-width: 0.8; stroke-linecap: square"/>
     </g>
     <g id="line2d_78">
      <g>
       <use xlink:href="#m8590d7f6a1" x="54.305937" y="451.814878" style="stroke: #000000; stroke-width: 0.8"/>
      </g>
     </g>
     <g id="text_46">
      <!-- 0.04 -->
      <g transform="translate(22.81375 455.994018) scale(0.11 -0.11)">
       <use xlink:href="#DejaVuSans-30"/>
       <use xlink:href="#DejaVuSans-2e" transform="translate(63.623047 0)"/>
       <use xlink:href="#DejaVuSans-30" transform="translate(95.410156 0)"/>
       <use xlink:href="#DejaVuSans-34" transform="translate(159.033203 0)"/>
      </g>
     </g>
    </g>
    <g id="ytick_18">
     <g id="line2d_79">
      <path d="M 54.305937 419.666514 
L 349.485937 419.666514 
" clip-path="url(#pc31f471eed)" style="fill: none; stroke: #b0b0b0; stroke-width: 0.8; stroke-linecap: square"/>
     </g>
     <g id="line2d_80">
      <g>
       <use xlink:href="#m8590d7f6a1" x="54.305937" y="419.666514" style="stroke: #000000; stroke-width: 0.8"/>
      </g>
     </g>
     <g id="text_47">
      <!-- 0.06 -->
      <g transform="translate(22.81375 423.845655) scale(0.11 -0.11)">
       <use xlink:href="#DejaVuSans-30"/>
       <use xlink:href="#DejaVuSans-2e" transform="translate(63.623047 0)"/>
       <use xlink:href="#DejaVuSans-30" transform="translate(95.410156 0)"/>
       <use xlink:href="#DejaVuSans-36" transform="translate(159.033203 0)"/>
      </g>
     </g>
    </g>
    <g id="ytick_19">
     <g id="line2d_81">
      <path d="M 54.305937 387.518151 
L 349.485937 387.518151 
" clip-path="url(#pc31f471eed)" style="fill: none; stroke: #b0b0b0; stroke-width: 0.8; stroke-linecap: square"/>
     </g>
     <g id="line2d_82">
      <g>
       <use xlink:href="#m8590d7f6a1" x="54.305937" y="387.518151" style="stroke: #000000; stroke-width: 0.8"/>
      </g>
     </g>
     <g id="text_48">
      <!-- 0.08 -->
      <g transform="translate(22.81375 391.697291) scale(0.11 -0.11)">
       <use xlink:href="#DejaVuSans-30"/>
       <use xlink:href="#DejaVuSans-2e" transform="translate(63.623047 0)"/>
       <use xlink:href="#DejaVuSans-30" transform="translate(95.410156 0)"/>
       <use xlink:href="#DejaVuSans-38" transform="translate(159.033203 0)"/>
      </g>
     </g>
    </g>
    <g id="ytick_20">
     <g id="line2d_83">
      <path d="M 54.305937 355.369787 
L 349.485937 355.369787 
" clip-path="url(#pc31f471eed)" style="fill: none; stroke: #b0b0b0; stroke-width: 0.8; stroke-linecap: square"/>
     </g>
     <g id="line2d_84">
      <g>
       <use xlink:href="#m8590d7f6a1" x="54.305937" y="355.369787" style="stroke: #000000; stroke-width: 0.8"/>
      </g>
     </g>
     <g id="text_49">
      <!-- 0.10 -->
      <g transform="translate(22.81375 359.548928) scale(0.11 -0.11)">
       <use xlink:href="#DejaVuSans-30"/>
       <use xlink:href="#DejaVuSans-2e" transform="translate(63.623047 0)"/>
       <use xlink:href="#DejaVuSans-31" transform="translate(95.410156 0)"/>
       <use xlink:href="#DejaVuSans-30" transform="translate(159.033203 0)"/>
      </g>
     </g>
    </g>
    <g id="ytick_21">
     <g id="line2d_85">
      <path d="M 54.305937 323.221423 
L 349.485937 323.221423 
" clip-path="url(#pc31f471eed)" style="fill: none; stroke: #b0b0b0; stroke-width: 0.8; stroke-linecap: square"/>
     </g>
     <g id="line2d_86">
      <g>
       <use xlink:href="#m8590d7f6a1" x="54.305937" y="323.221423" style="stroke: #000000; stroke-width: 0.8"/>
      </g>
     </g>
     <g id="text_50">
      <!-- 0.12 -->
      <g transform="translate(22.81375 327.400564) scale(0.11 -0.11)">
       <use xlink:href="#DejaVuSans-30"/>
       <use xlink:href="#DejaVuSans-2e" transform="translate(63.623047 0)"/>
       <use xlink:href="#DejaVuSans-31" transform="translate(95.410156 0)"/>
       <use xlink:href="#DejaVuSans-32" transform="translate(159.033203 0)"/>
      </g>
     </g>
    </g>
    <g id="text_51">
     <!-- y -->
     <g transform="translate(16.318125 419.199219) rotate(-90) scale(0.12 -0.12)">
      <use xlink:href="#DejaVuSans-79"/>
     </g>
    </g>
   </g>
   <g id="line2d_87">
    <path d="M 67.72321 516.111605 
L 70.43377 508.075334 
L 73.144331 500.203069 
L 75.854891 492.494809 
L 78.565451 484.950555 
L 81.276011 477.570306 
L 83.986571 470.354063 
L 86.697131 463.301825 
L 89.407691 456.413593 
L 92.118252 449.689366 
L 94.828812 443.129145 
L 97.539372 436.732929 
L 100.249932 430.500719 
L 102.960492 424.432515 
L 105.671052 418.528316 
L 108.381612 412.788122 
L 111.092173 407.211934 
L 113.802733 401.799752 
L 116.513293 396.551575 
L 119.223853 391.467404 
L 121.934413 386.547238 
L 124.644973 381.791078 
L 127.355533 377.198923 
L 130.066094 372.770773 
L 132.776654 368.50663 
L 135.487214 364.406492 
L 138.197774 360.470359 
L 140.908334 356.698232 
L 143.618894 353.09011 
L 146.329454 349.645994 
L 149.040015 346.365883 
L 151.750575 343.249778 
L 154.461135 340.297679 
L 157.171695 337.509585 
L 159.882255 334.885496 
L 162.592815 332.425414 
L 165.303376 330.129336 
L 168.013936 327.997264 
L 170.724496 326.029198 
L 173.435056 324.225137 
L 176.145616 322.585082 
L 178.856176 321.109032 
L 181.566736 319.796988 
L 184.277297 318.648949 
L 186.987857 317.664916 
L 189.698417 316.844888 
L 192.408977 316.188866 
L 195.119537 315.69685 
L 197.830097 315.368839 
L 200.540657 315.204833 
L 203.251218 315.204833 
L 205.961778 315.368839 
L 208.672338 315.69685 
L 211.382898 316.188866 
L 214.093458 316.844888 
L 216.804018 317.664916 
L 219.514578 318.648949 
L 222.225139 319.796988 
L 224.935699 321.109032 
L 227.646259 322.585082 
L 230.356819 324.225137 
L 233.067379 326.029198 
L 235.777939 327.997264 
L 238.488499 330.129336 
L 241.19906 332.425414 
L 243.90962 334.885496 
L 246.62018 337.509585 
L 249.33074 340.297679 
L 252.0413 343.249778 
L 254.75186 346.365883 
L 257.462421 349.645994 
L 260.172981 353.09011 
L 262.883541 356.698232 
L 265.594101 360.470359 
L 268.304661 364.406492 
L 271.015221 368.50663 
L 273.725781 372.770773 
L 276.436342 377.198923 
L 279.146902 381.791078 
L 281.857462 386.547238 
L 284.568022 391.467404 
L 287.278582 396.551575 
L 289.989142 401.799752 
L 292.699702 407.211934 
L 295.410263 412.788122 
L 298.120823 418.528316 
L 300.831383 424.432515 
L 303.541943 430.500719 
L 306.252503 436.732929 
L 308.963063 443.129145 
L 311.673623 449.689366 
L 314.384184 456.413593 
L 317.094744 463.301825 
L 319.805304 470.354063 
L 322.515864 477.570306 
L 325.226424 484.950555 
L 327.936984 492.494809 
L 330.647544 500.203069 
L 333.358105 508.075334 
L 336.068665 516.111605 
" clip-path="url(#pc31f471eed)" style="fill: none; stroke: #0000ff; stroke-width: 1.5; stroke-linecap: square"/>
   </g>
   <g id="line2d_88">
    <path d="M 67.72321 516.111605 
L 94.557756 443.777787 
L 121.392301 387.518151 
L 148.226847 347.332696 
L 175.061392 323.221423 
L 201.895938 315.184332 
L 228.730483 323.221423 
L 255.565028 347.332696 
L 282.399574 387.518151 
L 309.234119 443.777787 
L 336.068665 516.111605 
" clip-path="url(#pc31f471eed)" style="fill: none; stroke: #ff0000; stroke-width: 1.5; stroke-linecap: square"/>
    <g clip-path="url(#pc31f471eed)">
     <use xlink:href="#m10a00bea59" x="67.72321" y="516.111605" style="fill: #ff0000; stroke: #ff0000"/>
     <use xlink:href="#m10a00bea59" x="94.557756" y="443.777787" style="fill: #ff0000; stroke: #ff0000"/>
     <use xlink:href="#m10a00bea59" x="121.392301" y="387.518151" style="fill: #ff0000; stroke: #ff0000"/>
     <use xlink:href="#m10a00bea59" x="148.226847" y="347.332696" style="fill: #ff0000; stroke: #ff0000"/>
     <use xlink:href="#m10a00bea59" x="175.061392" y="323.221423" style="fill: #ff0000; stroke: #ff0000"/>
     <use xlink:href="#m10a00bea59" x="201.895938" y="315.184332" style="fill: #ff0000; stroke: #ff0000"/>
     <use xlink:href="#m10a00bea59" x="228.730483" y="323.221423" style="fill: #ff0000; stroke: #ff0000"/>
     <use xlink:href="#m10a00bea59" x="255.565028" y="347.332696" style="fill: #ff0000; stroke: #ff0000"/>
     <use xlink:href="#m10a00bea59" x="282.399574" y="387.518151" style="fill: #ff0000; stroke: #ff0000"/>
     <use xlink:href="#m10a00bea59" x="309.234119" y="443.777787" style="fill: #ff0000; stroke: #ff0000"/>
     <use xlink:href="#m10a00bea59" x="336.068665" y="516.111605" style="fill: #ff0000; stroke: #ff0000"/>
    </g>
   </g>
   <g id="patch_15">
    <path d="M 54.305937 526.157969 
L 54.305937 305.137969 
" style="fill: none; stroke: #000000; stroke-width: 0.8; stroke-linejoin: miter; stroke-linecap: square"/>
   </g>
   <g id="patch_16">
    <path d="M 349.485937 526.157969 
L 349.485937 305.137969 
" style="fill: none; stroke: #000000; stroke-width: 0.8; stroke-linejoin: miter; stroke-linecap: square"/>
   </g>
   <g id="patch_17">
    <path d="M 54.305938 526.157969 
L 349.485937 526.157969 
" style="fill: none; stroke: #000000; stroke-width: 0.8; stroke-linejoin: miter; stroke-linecap: square"/>
   </g>
   <g id="patch_18">
    <path d="M 54.305938 305.137969 
L 349.485937 305.137969 
" style="fill: none; stroke: #000000; stroke-width: 0.8; stroke-linejoin: miter; stroke-linecap: square"/>
   </g>
   <g id="text_52">
    <!-- 10 elements -->
    <g transform="translate(161.369453 299.137969) scale(0.13 -0.13)">
     <use xlink:href="#DejaVuSans-31"/>
     <use xlink:href="#DejaVuSans-30" transform="translate(63.623047 0)"/>
     <use xlink:href="#DejaVuSans-20" transform="translate(127.246094 0)"/>
     <use xlink:href="#DejaVuSans-65" transform="translate(159.033203 0)"/>
     <use xlink:href="#DejaVuSans-6c" transform="translate(220.556641 0)"/>
     <use xlink:href="#DejaVuSans-65" transform="translate(248.339844 0)"/>
     <use xlink:href="#DejaVuSans-6d" transform="translate(309.863281 0)"/>
     <use xlink:href="#DejaVuSans-65" transform="translate(407.275391 0)"/>
     <use xlink:href="#DejaVuSans-6e" transform="translate(468.798828 0)"/>
     <use xlink:href="#DejaVuSans-74" transform="translate(532.177734 0)"/>
     <use xlink:href="#DejaVuSans-73" transform="translate(571.386719 0)"/>
    </g>
   </g>
   <g id="legend_3">
    <g id="patch_19">
     <path d="M 148.895937 522.157969 
L 254.895937 522.157969 
Q 256.495937 522.157969 256.495937 520.557969 
L 256.495937 497.872969 
Q 256.495937 496.272969 254.895937 496.272969 
L 148.895937 496.272969 
Q 147.295937 496.272969 147.295937 497.872969 
L 147.295937 520.557969 
Q 147.295937 522.157969 148.895937 522.157969 
z
" style="fill: #ffffff; opacity: 0.8; stroke: #cccccc; stroke-linejoin: miter"/>
    </g>
    <g id="line2d_89">
     <path d="M 150.495937 502.751719 
L 158.495937 502.751719 
L 166.495937 502.751719 
" style="fill: none; stroke: #0000ff; stroke-width: 1.5; stroke-linecap: square"/>
    </g>
    <g id="text_53">
     <!-- Exact: y = 0.5x(1-x) -->
     <g transform="translate(172.895937 505.551719) scale(0.08 -0.08)">
      <use xlink:href="#DejaVuSans-45"/>
      <use xlink:href="#DejaVuSans-78" transform="translate(63.183594 0)"/>
      <use xlink:href="#DejaVuSans-61" transform="translate(122.363281 0)"/>
      <use xlink:href="#DejaVuSans-63" transform="translate(183.642578 0)"/>
      <use xlink:href="#DejaVuSans-74" transform="translate(238.623047 0)"/>
      <use xlink:href="#DejaVuSans-3a" transform="translate(277.832031 0)"/>
      <use xlink:href="#DejaVuSans-20" transform="translate(311.523438 0)"/>
      <use xlink:href="#DejaVuSans-79" transform="translate(343.310547 0)"/>
      <use xlink:href="#DejaVuSans-20" transform="translate(402.490234 0)"/>
      <use xlink:href="#DejaVuSans-3d" transform="translate(434.277344 0)"/>
      <use xlink:href="#DejaVuSans-20" transform="translate(518.066406 0)"/>
      <use xlink:href="#DejaVuSans-30" transform="translate(549.853516 0)"/>
      <use xlink:href="#DejaVuSans-2e" transform="translate(613.476562 0)"/>
      <use xlink:href="#DejaVuSans-35" transform="translate(645.263672 0)"/>
      <use xlink:href="#DejaVuSans-78" transform="translate(708.886719 0)"/>
      <use xlink:href="#DejaVuSans-28" transform="translate(768.066406 0)"/>
      <use xlink:href="#DejaVuSans-31" transform="translate(807.080078 0)"/>
      <use xlink:href="#DejaVuSans-2d" transform="translate(870.703125 0)"/>
      <use xlink:href="#DejaVuSans-78" transform="translate(906.787109 0)"/>
      <use xlink:href="#DejaVuSans-29" transform="translate(965.966797 0)"/>
     </g>
    </g>
    <g id="line2d_90">
     <path d="M 150.495937 514.494219 
L 158.495937 514.494219 
L 166.495937 514.494219 
" style="fill: none; stroke: #ff0000; stroke-width: 1.5; stroke-linecap: square"/>
     <g>
      <use xlink:href="#m10a00bea59" x="158.495937" y="514.494219" style="fill: #ff0000; stroke: #ff0000"/>
     </g>
    </g>
    <g id="text_54">
     <!-- FEM (10 elements) -->
     <g transform="translate(172.895937 517.294219) scale(0.08 -0.08)">
      <use xlink:href="#DejaVuSans-46"/>
      <use xlink:href="#DejaVuSans-45" transform="translate(57.519531 0)"/>
      <use xlink:href="#DejaVuSans-4d" transform="translate(120.703125 0)"/>
      <use xlink:href="#DejaVuSans-20" transform="translate(206.982422 0)"/>
      <use xlink:href="#DejaVuSans-28" transform="translate(238.769531 0)"/>
      <use xlink:href="#DejaVuSans-31" transform="translate(277.783203 0)"/>
      <use xlink:href="#DejaVuSans-30" transform="translate(341.40625 0)"/>
      <use xlink:href="#DejaVuSans-20" transform="translate(405.029297 0)"/>
      <use xlink:href="#DejaVuSans-65" transform="translate(436.816406 0)"/>
      <use xlink:href="#DejaVuSans-6c" transform="translate(498.339844 0)"/>
      <use xlink:href="#DejaVuSans-65" transform="translate(526.123047 0)"/>
      <use xlink:href="#DejaVuSans-6d" transform="translate(587.646484 0)"/>
      <use xlink:href="#DejaVuSans-65" transform="translate(685.058594 0)"/>
      <use xlink:href="#DejaVuSans-6e" transform="translate(746.582031 0)"/>
      <use xlink:href="#DejaVuSans-74" transform="translate(809.960938 0)"/>
      <use xlink:href="#DejaVuSans-73" transform="translate(849.169922 0)"/>
      <use xlink:href="#DejaVuSans-29" transform="translate(901.269531 0)"/>
     </g>
    </g>
   </g>
  </g>
  <g id="axes_4">
   <g id="patch_20">
    <path d="M 408.365938 526.157969 
L 703.545938 526.157969 
L 703.545938 305.137969 
L 408.365938 305.137969 
z
" style="fill: #ffffff"/>
   </g>
   <g id="matplotlib.axis_7">
    <g id="xtick_19">
     <g id="line2d_91">
      <path d="M 421.78321 526.157969 
L 421.78321 305.137969 
" clip-path="url(#p498c6a28a4)" style="fill: none; stroke: #b0b0b0; stroke-width: 0.8; stroke-linecap: square"/>
     </g>
     <g id="line2d_92">
      <g>
       <use xlink:href="#m814e621246" x="421.78321" y="526.157969" style="stroke: #000000; stroke-width: 0.8"/>
      </g>
     </g>
     <g id="text_55">
      <!-- 0.0 -->
      <g transform="translate(413.036491 541.51625) scale(0.11 -0.11)">
       <use xlink:href="#DejaVuSans-30"/>
       <use xlink:href="#DejaVuSans-2e" transform="translate(63.623047 0)"/>
       <use xlink:href="#DejaVuSans-30" transform="translate(95.410156 0)"/>
      </g>
     </g>
    </g>
    <g id="xtick_20">
     <g id="line2d_93">
      <path d="M 475.452301 526.157969 
L 475.452301 305.137969 
" clip-path="url(#p498c6a28a4)" style="fill: none; stroke: #b0b0b0; stroke-width: 0.8; stroke-linecap: square"/>
     </g>
     <g id="line2d_94">
      <g>
       <use xlink:href="#m814e621246" x="475.452301" y="526.157969" style="stroke: #000000; stroke-width: 0.8"/>
      </g>
     </g>
     <g id="text_56">
      <!-- 0.2 -->
      <g transform="translate(466.705582 541.51625) scale(0.11 -0.11)">
       <use xlink:href="#DejaVuSans-30"/>
       <use xlink:href="#DejaVuSans-2e" transform="translate(63.623047 0)"/>
       <use xlink:href="#DejaVuSans-32" transform="translate(95.410156 0)"/>
      </g>
     </g>
    </g>
    <g id="xtick_21">
     <g id="line2d_95">
      <path d="M 529.121392 526.157969 
L 529.121392 305.137969 
" clip-path="url(#p498c6a28a4)" style="fill: none; stroke: #b0b0b0; stroke-width: 0.8; stroke-linecap: square"/>
     </g>
     <g id="line2d_96">
      <g>
       <use xlink:href="#m814e621246" x="529.121392" y="526.157969" style="stroke: #000000; stroke-width: 0.8"/>
      </g>
     </g>
     <g id="text_57">
      <!-- 0.4 -->
      <g transform="translate(520.374673 541.51625) scale(0.11 -0.11)">
       <use xlink:href="#DejaVuSans-30"/>
       <use xlink:href="#DejaVuSans-2e" transform="translate(63.623047 0)"/>
       <use xlink:href="#DejaVuSans-34" transform="translate(95.410156 0)"/>
      </g>
     </g>
    </g>
    <g id="xtick_22">
     <g id="line2d_97">
      <path d="M 582.790483 526.157969 
L 582.790483 305.137969 
" clip-path="url(#p498c6a28a4)" style="fill: none; stroke: #b0b0b0; stroke-width: 0.8; stroke-linecap: square"/>
     </g>
     <g id="line2d_98">
      <g>
       <use xlink:href="#m814e621246" x="582.790483" y="526.157969" style="stroke: #000000; stroke-width: 0.8"/>
      </g>
     </g>
     <g id="text_58">
      <!-- 0.6 -->
      <g transform="translate(574.043764 541.51625) scale(0.11 -0.11)">
       <use xlink:href="#DejaVuSans-30"/>
       <use xlink:href="#DejaVuSans-2e" transform="translate(63.623047 0)"/>
       <use xlink:href="#DejaVuSans-36" transform="translate(95.410156 0)"/>
      </g>
     </g>
    </g>
    <g id="xtick_23">
     <g id="line2d_99">
      <path d="M 636.459574 526.157969 
L 636.459574 305.137969 
" clip-path="url(#p498c6a28a4)" style="fill: none; stroke: #b0b0b0; stroke-width: 0.8; stroke-linecap: square"/>
     </g>
     <g id="line2d_100">
      <g>
       <use xlink:href="#m814e621246" x="636.459574" y="526.157969" style="stroke: #000000; stroke-width: 0.8"/>
      </g>
     </g>
     <g id="text_59">
      <!-- 0.8 -->
      <g transform="translate(627.712855 541.51625) scale(0.11 -0.11)">
       <use xlink:href="#DejaVuSans-30"/>
       <use xlink:href="#DejaVuSans-2e" transform="translate(63.623047 0)"/>
       <use xlink:href="#DejaVuSans-38" transform="translate(95.410156 0)"/>
      </g>
     </g>
    </g>
    <g id="xtick_24">
     <g id="line2d_101">
      <path d="M 690.128665 526.157969 
L 690.128665 305.137969 
" clip-path="url(#p498c6a28a4)" style="fill: none; stroke: #b0b0b0; stroke-width: 0.8; stroke-linecap: square"/>
     </g>
     <g id="line2d_102">
      <g>
       <use xlink:href="#m814e621246" x="690.128665" y="526.157969" style="stroke: #000000; stroke-width: 0.8"/>
      </g>
     </g>
     <g id="text_60">
      <!-- 1.0 -->
      <g transform="translate(681.381946 541.51625) scale(0.11 -0.11)">
       <use xlink:href="#DejaVuSans-31"/>
       <use xlink:href="#DejaVuSans-2e" transform="translate(63.623047 0)"/>
       <use xlink:href="#DejaVuSans-30" transform="translate(95.410156 0)"/>
      </g>
     </g>
    </g>
    <g id="text_61">
     <!-- x -->
     <g transform="translate(552.404688 556.922031) scale(0.12 -0.12)">
      <use xlink:href="#DejaVuSans-78"/>
     </g>
    </g>
   </g>
   <g id="matplotlib.axis_8">
    <g id="ytick_22">
     <g id="line2d_103">
      <path d="M 408.365938 516.111605 
L 703.545938 516.111605 
" clip-path="url(#p498c6a28a4)" style="fill: none; stroke: #b0b0b0; stroke-width: 0.8; stroke-linecap: square"/>
     </g>
     <g id="line2d_104">
      <g>
       <use xlink:href="#m8590d7f6a1" x="408.365938" y="516.111605" style="stroke: #000000; stroke-width: 0.8"/>
      </g>
     </g>
     <g id="text_62">
      <!-- 0.00 -->
      <g transform="translate(376.87375 520.290746) scale(0.11 -0.11)">
       <use xlink:href="#DejaVuSans-30"/>
       <use xlink:href="#DejaVuSans-2e" transform="translate(63.623047 0)"/>
       <use xlink:href="#DejaVuSans-30" transform="translate(95.410156 0)"/>
       <use xlink:href="#DejaVuSans-30" transform="translate(159.033203 0)"/>
      </g>
     </g>
    </g>
    <g id="ytick_23">
     <g id="line2d_105">
      <path d="M 408.365938 483.963241 
L 703.545938 483.963241 
" clip-path="url(#p498c6a28a4)" style="fill: none; stroke: #b0b0b0; stroke-width: 0.8; stroke-linecap: square"/>
     </g>
     <g id="line2d_106">
      <g>
       <use xlink:href="#m8590d7f6a1" x="408.365938" y="483.963241" style="stroke: #000000; stroke-width: 0.8"/>
      </g>
     </g>
     <g id="text_63">
      <!-- 0.02 -->
      <g transform="translate(376.87375 488.142382) scale(0.11 -0.11)">
       <use xlink:href="#DejaVuSans-30"/>
       <use xlink:href="#DejaVuSans-2e" transform="translate(63.623047 0)"/>
       <use xlink:href="#DejaVuSans-30" transform="translate(95.410156 0)"/>
       <use xlink:href="#DejaVuSans-32" transform="translate(159.033203 0)"/>
      </g>
     </g>
    </g>
    <g id="ytick_24">
     <g id="line2d_107">
      <path d="M 408.365938 451.814878 
L 703.545938 451.814878 
" clip-path="url(#p498c6a28a4)" style="fill: none; stroke: #b0b0b0; stroke-width: 0.8; stroke-linecap: square"/>
     </g>
     <g id="line2d_108">
      <g>
       <use xlink:href="#m8590d7f6a1" x="408.365938" y="451.814878" style="stroke: #000000; stroke-width: 0.8"/>
      </g>
     </g>
     <g id="text_64">
      <!-- 0.04 -->
      <g transform="translate(376.87375 455.994018) scale(0.11 -0.11)">
       <use xlink:href="#DejaVuSans-30"/>
       <use xlink:href="#DejaVuSans-2e" transform="translate(63.623047 0)"/>
       <use xlink:href="#DejaVuSans-30" transform="translate(95.410156 0)"/>
       <use xlink:href="#DejaVuSans-34" transform="translate(159.033203 0)"/>
      </g>
     </g>
    </g>
    <g id="ytick_25">
     <g id="line2d_109">
      <path d="M 408.365938 419.666514 
L 703.545938 419.666514 
" clip-path="url(#p498c6a28a4)" style="fill: none; stroke: #b0b0b0; stroke-width: 0.8; stroke-linecap: square"/>
     </g>
     <g id="line2d_110">
      <g>
       <use xlink:href="#m8590d7f6a1" x="408.365938" y="419.666514" style="stroke: #000000; stroke-width: 0.8"/>
      </g>
     </g>
     <g id="text_65">
      <!-- 0.06 -->
      <g transform="translate(376.87375 423.845655) scale(0.11 -0.11)">
       <use xlink:href="#DejaVuSans-30"/>
       <use xlink:href="#DejaVuSans-2e" transform="translate(63.623047 0)"/>
       <use xlink:href="#DejaVuSans-30" transform="translate(95.410156 0)"/>
       <use xlink:href="#DejaVuSans-36" transform="translate(159.033203 0)"/>
      </g>
     </g>
    </g>
    <g id="ytick_26">
     <g id="line2d_111">
      <path d="M 408.365938 387.518151 
L 703.545938 387.518151 
" clip-path="url(#p498c6a28a4)" style="fill: none; stroke: #b0b0b0; stroke-width: 0.8; stroke-linecap: square"/>
     </g>
     <g id="line2d_112">
      <g>
       <use xlink:href="#m8590d7f6a1" x="408.365938" y="387.518151" style="stroke: #000000; stroke-width: 0.8"/>
      </g>
     </g>
     <g id="text_66">
      <!-- 0.08 -->
      <g transform="translate(376.87375 391.697291) scale(0.11 -0.11)">
       <use xlink:href="#DejaVuSans-30"/>
       <use xlink:href="#DejaVuSans-2e" transform="translate(63.623047 0)"/>
       <use xlink:href="#DejaVuSans-30" transform="translate(95.410156 0)"/>
       <use xlink:href="#DejaVuSans-38" transform="translate(159.033203 0)"/>
      </g>
     </g>
    </g>
    <g id="ytick_27">
     <g id="line2d_113">
      <path d="M 408.365938 355.369787 
L 703.545938 355.369787 
" clip-path="url(#p498c6a28a4)" style="fill: none; stroke: #b0b0b0; stroke-width: 0.8; stroke-linecap: square"/>
     </g>
     <g id="line2d_114">
      <g>
       <use xlink:href="#m8590d7f6a1" x="408.365938" y="355.369787" style="stroke: #000000; stroke-width: 0.8"/>
      </g>
     </g>
     <g id="text_67">
      <!-- 0.10 -->
      <g transform="translate(376.87375 359.548928) scale(0.11 -0.11)">
       <use xlink:href="#DejaVuSans-30"/>
       <use xlink:href="#DejaVuSans-2e" transform="translate(63.623047 0)"/>
       <use xlink:href="#DejaVuSans-31" transform="translate(95.410156 0)"/>
       <use xlink:href="#DejaVuSans-30" transform="translate(159.033203 0)"/>
      </g>
     </g>
    </g>
    <g id="ytick_28">
     <g id="line2d_115">
      <path d="M 408.365938 323.221423 
L 703.545938 323.221423 
" clip-path="url(#p498c6a28a4)" style="fill: none; stroke: #b0b0b0; stroke-width: 0.8; stroke-linecap: square"/>
     </g>
     <g id="line2d_116">
      <g>
       <use xlink:href="#m8590d7f6a1" x="408.365938" y="323.221423" style="stroke: #000000; stroke-width: 0.8"/>
      </g>
     </g>
     <g id="text_68">
      <!-- 0.12 -->
      <g transform="translate(376.87375 327.400564) scale(0.11 -0.11)">
       <use xlink:href="#DejaVuSans-30"/>
       <use xlink:href="#DejaVuSans-2e" transform="translate(63.623047 0)"/>
       <use xlink:href="#DejaVuSans-31" transform="translate(95.410156 0)"/>
       <use xlink:href="#DejaVuSans-32" transform="translate(159.033203 0)"/>
      </g>
     </g>
    </g>
    <g id="text_69">
     <!-- y -->
     <g transform="translate(370.378125 419.199219) rotate(-90) scale(0.12 -0.12)">
      <use xlink:href="#DejaVuSans-79"/>
     </g>
    </g>
   </g>
   <g id="line2d_117">
    <path d="M 421.78321 516.111605 
L 424.49377 508.075334 
L 427.204331 500.203069 
L 429.914891 492.494809 
L 432.625451 484.950555 
L 435.336011 477.570306 
L 438.046571 470.354063 
L 440.757131 463.301825 
L 443.467691 456.413593 
L 446.178252 449.689366 
L 448.888812 443.129145 
L 451.599372 436.732929 
L 454.309932 430.500719 
L 457.020492 424.432515 
L 459.731052 418.528316 
L 462.441612 412.788122 
L 465.152173 407.211934 
L 467.862733 401.799752 
L 470.573293 396.551575 
L 473.283853 391.467404 
L 475.994413 386.547238 
L 478.704973 381.791078 
L 481.415533 377.198923 
L 484.126094 372.770773 
L 486.836654 368.50663 
L 489.547214 364.406492 
L 492.257774 360.470359 
L 494.968334 356.698232 
L 497.678894 353.09011 
L 500.389454 349.645994 
L 503.100015 346.365883 
L 505.810575 343.249778 
L 508.521135 340.297679 
L 511.231695 337.509585 
L 513.942255 334.885496 
L 516.652815 332.425414 
L 519.363376 330.129336 
L 522.073936 327.997264 
L 524.784496 326.029198 
L 527.495056 324.225137 
L 530.205616 322.585082 
L 532.916176 321.109032 
L 535.626736 319.796988 
L 538.337297 318.648949 
L 541.047857 317.664916 
L 543.758417 316.844888 
L 546.468977 316.188866 
L 549.179537 315.69685 
L 551.890097 315.368839 
L 554.600657 315.204833 
L 557.311218 315.204833 
L 560.021778 315.368839 
L 562.732338 315.69685 
L 565.442898 316.188866 
L 568.153458 316.844888 
L 570.864018 317.664916 
L 573.574578 318.648949 
L 576.285139 319.796988 
L 578.995699 321.109032 
L 581.706259 322.585082 
L 584.416819 324.225137 
L 587.127379 326.029198 
L 589.837939 327.997264 
L 592.548499 330.129336 
L 595.25906 332.425414 
L 597.96962 334.885496 
L 600.68018 337.509585 
L 603.39074 340.297679 
L 606.1013 343.249778 
L 608.81186 346.365883 
L 611.522421 349.645994 
L 614.232981 353.09011 
L 616.943541 356.698232 
L 619.654101 360.470359 
L 622.364661 364.406492 
L 625.075221 368.50663 
L 627.785781 372.770773 
L 630.496342 377.198923 
L 633.206902 381.791078 
L 635.917462 386.547238 
L 638.628022 391.467404 
L 641.338582 396.551575 
L 644.049142 401.799752 
L 646.759702 407.211934 
L 649.470263 412.788122 
L 652.180823 418.528316 
L 654.891383 424.432515 
L 657.601943 430.500719 
L 660.312503 436.732929 
L 663.023063 443.129145 
L 665.733623 449.689366 
L 668.444184 456.413593 
L 671.154744 463.301825 
L 673.865304 470.354063 
L 676.575864 477.570306 
L 679.286424 484.950555 
L 681.996984 492.494809 
L 684.707544 500.203069 
L 687.418105 508.075334 
L 690.128665 516.111605 
" clip-path="url(#p498c6a28a4)" style="fill: none; stroke: #0000ff; stroke-width: 1.5; stroke-linecap: square"/>
   </g>
   <g id="line2d_118">
    <path d="M 421.78321 516.111605 
L 435.200483 477.935423 
L 448.617756 443.777787 
L 462.035028 413.638696 
L 475.452301 387.518151 
L 488.869574 365.416151 
L 502.286847 347.332696 
L 515.704119 333.267787 
L 529.121392 323.221423 
L 542.538665 317.193605 
L 555.955938 315.184332 
L 569.37321 317.193605 
L 582.790483 323.221423 
L 596.207756 333.267787 
L 609.625028 347.332696 
L 623.042301 365.416151 
L 636.459574 387.518151 
L 649.876847 413.638696 
L 663.294119 443.777787 
L 676.711392 477.935423 
L 690.128665 516.111605 
" clip-path="url(#p498c6a28a4)" style="fill: none; stroke: #ff0000; stroke-width: 1.5; stroke-linecap: square"/>
    <g clip-path="url(#p498c6a28a4)">
     <use xlink:href="#m10a00bea59" x="421.78321" y="516.111605" style="fill: #ff0000; stroke: #ff0000"/>
     <use xlink:href="#m10a00bea59" x="435.200483" y="477.935423" style="fill: #ff0000; stroke: #ff0000"/>
     <use xlink:href="#m10a00bea59" x="448.617756" y="443.777787" style="fill: #ff0000; stroke: #ff0000"/>
     <use xlink:href="#m10a00bea59" x="462.035028" y="413.638696" style="fill: #ff0000; stroke: #ff0000"/>
     <use xlink:href="#m10a00bea59" x="475.452301" y="387.518151" style="fill: #ff0000; stroke: #ff0000"/>
     <use xlink:href="#m10a00bea59" x="488.869574" y="365.416151" style="fill: #ff0000; stroke: #ff0000"/>
     <use xlink:href="#m10a00bea59" x="502.286847" y="347.332696" style="fill: #ff0000; stroke: #ff0000"/>
     <use xlink:href="#m10a00bea59" x="515.704119" y="333.267787" style="fill: #ff0000; stroke: #ff0000"/>
     <use xlink:href="#m10a00bea59" x="529.121392" y="323.221423" style="fill: #ff0000; stroke: #ff0000"/>
     <use xlink:href="#m10a00bea59" x="542.538665" y="317.193605" style="fill: #ff0000; stroke: #ff0000"/>
     <use xlink:href="#m10a00bea59" x="555.955938" y="315.184332" style="fill: #ff0000; stroke: #ff0000"/>
     <use xlink:href="#m10a00bea59" x="569.37321" y="317.193605" style="fill: #ff0000; stroke: #ff0000"/>
     <use xlink:href="#m10a00bea59" x="582.790483" y="323.221423" style="fill: #ff0000; stroke: #ff0000"/>
     <use xlink:href="#m10a00bea59" x="596.207756" y="333.267787" style="fill: #ff0000; stroke: #ff0000"/>
     <use xlink:href="#m10a00bea59" x="609.625028" y="347.332696" style="fill: #ff0000; stroke: #ff0000"/>
     <use xlink:href="#m10a00bea59" x="623.042301" y="365.416151" style="fill: #ff0000; stroke: #ff0000"/>
     <use xlink:href="#m10a00bea59" x="636.459574" y="387.518151" style="fill: #ff0000; stroke: #ff0000"/>
     <use xlink:href="#m10a00bea59" x="649.876847" y="413.638696" style="fill: #ff0000; stroke: #ff0000"/>
     <use xlink:href="#m10a00bea59" x="663.294119" y="443.777787" style="fill: #ff0000; stroke: #ff0000"/>
     <use xlink:href="#m10a00bea59" x="676.711392" y="477.935423" style="fill: #ff0000; stroke: #ff0000"/>
     <use xlink:href="#m10a00bea59" x="690.128665" y="516.111605" style="fill: #ff0000; stroke: #ff0000"/>
    </g>
   </g>
   <g id="patch_21">
    <path d="M 408.365938 526.157969 
L 408.365938 305.137969 
" style="fill: none; stroke: #000000; stroke-width: 0.8; stroke-linejoin: miter; stroke-linecap: square"/>
   </g>
   <g id="patch_22">
    <path d="M 703.545938 526.157969 
L 703.545938 305.137969 
" style="fill: none; stroke: #000000; stroke-width: 0.8; stroke-linejoin: miter; stroke-linecap: square"/>
   </g>
   <g id="patch_23">
    <path d="M 408.365938 526.157969 
L 703.545938 526.157969 
" style="fill: none; stroke: #000000; stroke-width: 0.8; stroke-linejoin: miter; stroke-linecap: square"/>
   </g>
   <g id="patch_24">
    <path d="M 408.365938 305.137969 
L 703.545938 305.137969 
" style="fill: none; stroke: #000000; stroke-width: 0.8; stroke-linejoin: miter; stroke-linecap: square"/>
   </g>
   <g id="text_70">
    <!-- 20 elements -->
    <g transform="translate(515.429453 299.137969) scale(0.13 -0.13)">
     <use xlink:href="#DejaVuSans-32"/>
     <use xlink:href="#DejaVuSans-30" transform="translate(63.623047 0)"/>
     <use xlink:href="#DejaVuSans-20" transform="translate(127.246094 0)"/>
     <use xlink:href="#DejaVuSans-65" transform="translate(159.033203 0)"/>
     <use xlink:href="#DejaVuSans-6c" transform="translate(220.556641 0)"/>
     <use xlink:href="#DejaVuSans-65" transform="translate(248.339844 0)"/>
     <use xlink:href="#DejaVuSans-6d" transform="translate(309.863281 0)"/>
     <use xlink:href="#DejaVuSans-65" transform="translate(407.275391 0)"/>
     <use xlink:href="#DejaVuSans-6e" transform="translate(468.798828 0)"/>
     <use xlink:href="#DejaVuSans-74" transform="translate(532.177734 0)"/>
     <use xlink:href="#DejaVuSans-73" transform="translate(571.386719 0)"/>
    </g>
   </g>
   <g id="legend_4">
    <g id="patch_25">
     <path d="M 502.955938 522.157969 
L 608.955938 522.157969 
Q 610.555938 522.157969 610.555938 520.557969 
L 610.555938 497.872969 
Q 610.555938 496.272969 608.955938 496.272969 
L 502.955938 496.272969 
Q 501.355938 496.272969 501.355938 497.872969 
L 501.355938 520.557969 
Q 501.355938 522.157969 502.955938 522.157969 
z
" style="fill: #ffffff; opacity: 0.8; stroke: #cccccc; stroke-linejoin: miter"/>
    </g>
    <g id="line2d_119">
     <path d="M 504.555938 502.751719 
L 512.555938 502.751719 
L 520.555938 502.751719 
" style="fill: none; stroke: #0000ff; stroke-width: 1.5; stroke-linecap: square"/>
    </g>
    <g id="text_71">
     <!-- Exact: y = 0.5x(1-x) -->
     <g transform="translate(526.955938 505.551719) scale(0.08 -0.08)">
      <use xlink:href="#DejaVuSans-45"/>
      <use xlink:href="#DejaVuSans-78" transform="translate(63.183594 0)"/>
      <use xlink:href="#DejaVuSans-61" transform="translate(122.363281 0)"/>
      <use xlink:href="#DejaVuSans-63" transform="translate(183.642578 0)"/>
      <use xlink:href="#DejaVuSans-74" transform="translate(238.623047 0)"/>
      <use xlink:href="#DejaVuSans-3a" transform="translate(277.832031 0)"/>
      <use xlink:href="#DejaVuSans-20" transform="translate(311.523438 0)"/>
      <use xlink:href="#DejaVuSans-79" transform="translate(343.310547 0)"/>
      <use xlink:href="#DejaVuSans-20" transform="translate(402.490234 0)"/>
      <use xlink:href="#DejaVuSans-3d" transform="translate(434.277344 0)"/>
      <use xlink:href="#DejaVuSans-20" transform="translate(518.066406 0)"/>
      <use xlink:href="#DejaVuSans-30" transform="translate(549.853516 0)"/>
      <use xlink:href="#DejaVuSans-2e" transform="translate(613.476562 0)"/>
      <use xlink:href="#DejaVuSans-35" transform="translate(645.263672 0)"/>
      <use xlink:href="#DejaVuSans-78" transform="translate(708.886719 0)"/>
      <use xlink:href="#DejaVuSans-28" transform="translate(768.066406 0)"/>
      <use xlink:href="#DejaVuSans-31" transform="translate(807.080078 0)"/>
      <use xlink:href="#DejaVuSans-2d" transform="translate(870.703125 0)"/>
      <use xlink:href="#DejaVuSans-78" transform="translate(906.787109 0)"/>
      <use xlink:href="#DejaVuSans-29" transform="translate(965.966797 0)"/>
     </g>
    </g>
    <g id="line2d_120">
     <path d="M 504.555938 514.494219 
L 512.555938 514.494219 
L 520.555938 514.494219 
" style="fill: none; stroke: #ff0000; stroke-width: 1.5; stroke-linecap: square"/>
     <g>
      <use xlink:href="#m10a00bea59" x="512.555938" y="514.494219" style="fill: #ff0000; stroke: #ff0000"/>
     </g>
    </g>
    <g id="text_72">
     <!-- FEM (20 elements) -->
     <g transform="translate(526.955938 517.294219) scale(0.08 -0.08)">
      <use xlink:href="#DejaVuSans-46"/>
      <use xlink:href="#DejaVuSans-45" transform="translate(57.519531 0)"/>
      <use xlink:href="#DejaVuSans-4d" transform="translate(120.703125 0)"/>
      <use xlink:href="#DejaVuSans-20" transform="translate(206.982422 0)"/>
      <use xlink:href="#DejaVuSans-28" transform="translate(238.769531 0)"/>
      <use xlink:href="#DejaVuSans-32" transform="translate(277.783203 0)"/>
      <use xlink:href="#DejaVuSans-30" transform="translate(341.40625 0)"/>
      <use xlink:href="#DejaVuSans-20" transform="translate(405.029297 0)"/>
      <use xlink:href="#DejaVuSans-65" transform="translate(436.816406 0)"/>
      <use xlink:href="#DejaVuSans-6c" transform="translate(498.339844 0)"/>
      <use xlink:href="#DejaVuSans-65" transform="translate(526.123047 0)"/>
      <use xlink:href="#DejaVuSans-6d" transform="translate(587.646484 0)"/>
      <use xlink:href="#DejaVuSans-65" transform="translate(685.058594 0)"/>
      <use xlink:href="#DejaVuSans-6e" transform="translate(746.582031 0)"/>
      <use xlink:href="#DejaVuSans-74" transform="translate(809.960938 0)"/>
      <use xlink:href="#DejaVuSans-73" transform="translate(849.169922 0)"/>
      <use xlink:href="#DejaVuSans-29" transform="translate(901.269531 0)"/>
     </g>
    </g>
   </g>
  </g>
 </g>
 <defs>
  <clipPath id="p2bd0d1f0db">
   <rect x="54.305937" y="23.077969" width="295.18" height="221.02"/>
  </clipPath>
  <clipPath id="p63bc6d0094">
   <rect x="408.365938" y="23.077969" width="295.18" height="221.02"/>
  </clipPath>
  <clipPath id="pc31f471eed">
   <rect x="54.305937" y="305.137969" width="295.18" height="221.02"/>
  </clipPath>
  <clipPath id="p498c6a28a4">
   <rect x="408.365938" y="305.137969" width="295.18" height="221.02"/>
  </clipPath>
 </defs>
</svg>
