<?xml version="1.0" encoding="utf-8" standalone="no"?>
<!DOCTYPE svg PUBLIC "-//W3C//DTD SVG 1.1//EN"
  "http://www.w3.org/Graphics/SVG/1.1/DTD/svg11.dtd">
<svg xmlns:xlink="http://www.w3.org/1999/xlink" width="710.707187pt" height="278.617656pt" viewBox="0 0 710.707187 278.617656" xmlns="http://www.w3.org/2000/svg" version="1.1">
 <metadata>
  <rdf:RDF xmlns:dc="http://purl.org/dc/elements/1.1/" xmlns:cc="http://creativecommons.org/ns#" xmlns:rdf="http://www.w3.org/1999/02/22-rdf-syntax-ns#">
   <cc:Work>
    <dc:type rdf:resource="http://purl.org/dc/dcmitype/StillImage"/>
    <dc:date>2026-04-14T07:08:00.231774</dc:date>
    <dc:format>image/svg+xml</dc:format>
    <dc:creator>
     <cc:Agent>
      <dc:title>Matplotlib v3.10.8, https://matplotlib.org/</dc:title>
     </cc:Agent>
    </dc:creator>
   </cc:Work>
  </rdf:RDF>
 </metadata>
 <defs>
  <style type="text/css">*{stroke-linejoin: round; stroke-linecap: butt}</style>
 </defs>
 <g id="figure_1">
  <g id="patch_1">
   <path d="M 0 278.617656 
L 710.707187 278.617656 
L 710.707187 0 
L 0 0 
z
" style="fill: #ffffff"/>
  </g>
  <g id="axes_1">
   <g id="patch_2">
    <path d="M 47.307187 238.157969 
L 351.217187 238.157969 
L 351.217187 23.077969 
L 47.307187 23.077969 
z
" style="fill: #ffffff"/>
   </g>
   <g id="FillBetweenPolyCollection_1">
    <path d="M 61.121278 238.157969 
L 61.121278 238.157969 
L 61.813714 238.14527 
L 62.50615 238.107177 
L 63.198585 238.043699 
L 63.891021 237.954853 
L 64.583457 237.840659 
L 65.275892 237.701146 
L 65.968328 237.53635 
L 66.660763 237.34631 
L 67.353199 237.131074 
L 68.045635 236.890695 
L 68.73807 236.625233 
L 69.430506 236.334754 
L 70.122942 236.01933 
L 70.815377 235.679038 
L 71.507813 235.313964 
L 72.200249 234.924198 
L 72.892684 234.509836 
L 73.58512 234.070981 
L 74.277555 233.607743 
L 74.969991 233.120235 
L 75.662427 232.608579 
L 76.354862 232.072902 
L 77.047298 231.513337 
L 77.739734 230.930022 
L 78.432169 230.323101 
L 79.124605 229.692727 
L 79.817041 229.039053 
L 80.509476 228.362244 
L 81.201912 227.662467 
L 81.894347 226.939895 
L 82.586783 226.194707 
L 83.279219 225.427088 
L 83.971654 224.637229 
L 84.66409 223.825325 
L 85.356526 222.991578 
L 86.048961 222.136195 
L 86.741397 221.259387 
L 87.433833 220.361372 
L 88.126268 219.442372 
L 88.818704 218.502617 
L 89.511139 217.542338 
L 90.203575 216.561773 
L 90.896011 215.561167 
L 91.588446 214.540766 
L 92.280882 213.500825 
L 92.973318 212.4416 
L 93.665753 211.363356 
L 94.358189 210.266358 
L 95.050625 209.150879 
L 95.74306 208.017195 
L 96.435496 206.865589 
L 97.127931 205.696344 
L 97.820367 204.509752 
L 98.512803 203.306107 
L 99.205238 202.085706 
L 99.897674 200.848853 
L 100.59011 199.595854 
L 101.282545 198.32702 
L 101.974981 197.042666 
L 102.667416 195.74311 
L 103.359852 194.428674 
L 104.052288 193.099685 
L 104.744723 191.756471 
L 105.437159 190.399366 
L 106.129595 189.028707 
L 106.82203 187.644833 
L 107.514466 186.248088 
L 108.206902 184.838818 
L 108.899337 183.417372 
L 109.591773 181.984102 
L 110.284208 180.539365 
L 110.976644 179.083519 
L 111.66908 177.616924 
L 112.361515 176.139944 
L 113.053951 174.652945 
L 113.746387 173.156297 
L 114.438822 171.65037 
L 115.131258 170.135538 
L 115.823694 168.612176 
L 116.516129 167.080662 
L 117.208565 165.541376 
L 117.901 163.9947 
L 118.593436 162.441017 
L 119.285872 160.880712 
L 119.978307 159.314173 
L 120.670743 157.741787 
L 121.363179 156.163945 
L 122.055614 154.581038 
L 122.74805 152.993458 
L 123.440486 151.4016 
L 124.132921 149.805857 
L 124.825357 148.206626 
L 125.517792 146.604303 
L 126.210228 144.999286 
L 126.902664 143.391972 
L 127.595099 141.78276 
L 128.287535 140.172049 
L 128.979971 138.560239 
L 129.672406 136.947729 
L 130.364842 135.334919 
L 131.057277 133.722209 
L 131.749713 132.109998 
L 132.442149 130.498688 
L 133.134584 128.888677 
L 133.82702 127.280364 
L 134.519456 125.674149 
L 135.211891 124.070429 
L 135.904327 122.469602 
L 136.596763 120.872066 
L 137.289198 119.278216 
L 137.981634 117.688447 
L 138.674069 116.103155 
L 139.366505 114.522731 
L 140.058941 112.947569 
L 140.751376 111.378057 
L 141.443812 109.814587 
L 142.136248 108.257545 
L 142.828683 106.707317 
L 143.521119 105.164288 
L 144.213555 103.62884 
L 144.90599 102.101355 
L 145.598426 100.582211 
L 146.290861 99.071785 
L 146.983297 97.57045 
L 147.675733 96.078581 
L 148.368168 94.596546 
L 149.060604 93.124713 
L 149.75304 91.663447 
L 150.445475 90.21311 
L 151.137911 88.774062 
L 151.830347 87.34666 
L 152.522782 85.931258 
L 153.215218 84.528207 
L 153.907653 83.137854 
L 154.600089 81.760545 
L 155.292525 80.396621 
L 155.98496 79.04642 
L 156.677396 77.710277 
L 157.369832 76.388523 
L 158.062267 75.081487 
L 158.754703 73.789492 
L 159.447139 72.512858 
L 160.139574 71.251903 
L 160.83201 70.006938 
L 161.524445 68.778273 
L 162.216881 67.566212 
L 162.909317 66.371056 
L 163.601752 65.193102 
L 164.294188 64.03264 
L 164.986624 62.88996 
L 165.679059 61.765344 
L 166.371495 60.659071 
L 167.06393 59.571416 
L 167.756366 58.502648 
L 168.448802 57.453033 
L 169.141237 56.42283 
L 169.833673 55.412295 
L 170.526109 54.421679 
L 171.218544 53.451227 
L 171.91098 52.50118 
L 172.603416 51.571774 
L 173.295851 50.663239 
L 173.988287 49.7758 
L 174.680722 48.909677 
L 175.373158 48.065086 
L 176.065594 47.242235 
L 176.758029 46.441328 
L 177.450465 45.662565 
L 178.142901 44.906139 
L 178.835336 44.172236 
L 179.527772 43.461039 
L 180.220208 42.772724 
L 180.912643 42.107463 
L 181.605079 41.465419 
L 182.297514 40.846752 
L 182.98995 40.251616 
L 183.682386 39.680158 
L 184.374821 39.13252 
L 185.067257 38.608837 
L 185.759693 38.10924 
L 186.452128 37.633852 
L 187.144564 37.182792 
L 187.837 36.75617 
L 188.529435 36.354094 
L 189.221871 35.976662 
L 189.914306 35.623968 
L 190.606742 35.2961 
L 191.299178 34.993138 
L 191.991613 34.715159 
L 192.684049 34.462231 
L 193.376485 34.234417 
L 194.06892 34.031773 
L 194.761356 33.854349 
L 195.453792 33.70219 
L 196.146227 33.575332 
L 196.838663 33.473809 
L 197.531098 33.397644 
L 198.223534 33.346857 
L 198.91597 33.321461 
L 199.608405 33.321461 
L 200.300841 33.346857 
L 200.993277 33.397644 
L 201.685712 33.473809 
L 202.378148 33.575332 
L 203.070583 33.70219 
L 203.763019 33.854349 
L 204.455455 34.031773 
L 205.14789 34.234417 
L 205.840326 34.462231 
L 206.532762 34.715159 
L 207.225197 34.993138 
L 207.917633 35.2961 
L 208.610069 35.623968 
L 209.302504 35.976662 
L 209.99494 36.354094 
L 210.687375 36.75617 
L 211.379811 37.182792 
L 212.072247 37.633852 
L 212.764682 38.10924 
L 213.457118 38.608837 
L 214.149554 39.13252 
L 214.841989 39.680158 
L 215.534425 40.251616 
L 216.226861 40.846752 
L 216.919296 41.465419 
L 217.611732 42.107463 
L 218.304167 42.772724 
L 218.996603 43.461039 
L 219.689039 44.172236 
L 220.381474 44.906139 
L 221.07391 45.662565 
L 221.766346 46.441328 
L 222.458781 47.242235 
L 223.151217 48.065086 
L 223.843653 48.909677 
L 224.536088 49.7758 
L 225.228524 50.663239 
L 225.920959 51.571774 
L 226.613395 52.50118 
L 227.305831 53.451227 
L 227.998266 54.421679 
L 228.690702 55.412295 
L 229.383138 56.42283 
L 230.075573 57.453033 
L 230.768009 58.502648 
L 231.460445 59.571416 
L 232.15288 60.659071 
L 232.845316 61.765344 
L 233.537751 62.88996 
L 234.230187 64.03264 
L 234.922623 65.193102 
L 235.615058 66.371056 
L 236.307494 67.566212 
L 236.99993 68.778273 
L 237.692365 70.006938 
L 238.384801 71.251903 
L 239.077236 72.512858 
L 239.769672 73.789492 
L 240.462108 75.081487 
L 241.154543 76.388523 
L 241.846979 77.710277 
L 242.539415 79.04642 
L 243.23185 80.396621 
L 243.924286 81.760545 
L 244.616722 83.137854 
L 245.309157 84.528207 
L 246.001593 85.931258 
L 246.694028 87.34666 
L 247.386464 88.774062 
L 248.0789 90.21311 
L 248.771335 91.663447 
L 249.463771 93.124713 
L 250.156207 94.596546 
L 250.848642 96.078581 
L 251.541078 97.57045 
L 252.233514 99.071785 
L 252.925949 100.582211 
L 253.618385 102.101355 
L 254.31082 103.62884 
L 255.003256 105.164288 
L 255.695692 106.707317 
L 256.388127 108.257545 
L 257.080563 109.814587 
L 257.772999 111.378057 
L 258.465434 112.947569 
L 259.15787 114.522731 
L 259.850306 116.103155 
L 260.542741 117.688447 
L 261.235177 119.278216 
L 261.927612 120.872066 
L 262.620048 122.469602 
L 263.312484 124.070429 
L 264.004919 125.674149 
L 264.697355 127.280364 
L 265.389791 128.888677 
L 266.082226 130.498688 
L 266.774662 132.109998 
L 267.467098 133.722209 
L 268.159533 135.334919 
L 268.851969 136.947729 
L 269.544404 138.560239 
L 270.23684 140.172049 
L 270.929276 141.78276 
L 271.621711 143.391972 
L 272.314147 144.999286 
L 273.006583 146.604303 
L 273.699018 148.206626 
L 274.391454 149.805857 
L 275.083889 151.4016 
L 275.776325 152.993458 
L 276.468761 154.581038 
L 277.161196 156.163945 
L 277.853632 157.741787 
L 278.546068 159.314173 
L 279.238503 160.880712 
L 279.930939 162.441017 
L 280.623375 163.9947 
L 281.31581 165.541376 
L 282.008246 167.080662 
L 282.700681 168.612176 
L 283.393117 170.135538 
L 284.085553 171.65037 
L 284.777988 173.156297 
L 285.470424 174.652945 
L 286.16286 176.139944 
L 286.855295 177.616924 
L 287.547731 179.083519 
L 288.240167 180.539365 
L 288.932602 181.984102 
L 289.625038 183.417372 
L 290.317473 184.838818 
L 291.009909 186.248088 
L 291.702345 187.644833 
L 292.39478 189.028707 
L 293.087216 190.399366 
L 293.779652 191.756471 
L 294.472087 193.099685 
L 295.164523 194.428674 
L 295.856959 195.74311 
L 296.549394 197.042666 
L 297.24183 198.32702 
L 297.934265 199.595854 
L 298.626701 200.848853 
L 299.319137 202.085706 
L 300.011572 203.306107 
L 300.704008 204.509752 
L 301.396444 205.696344 
L 302.088879 206.865589 
L 302.781315 208.017195 
L 303.47375 209.150879 
L 304.166186 210.266358 
L 304.858622 211.363356 
L 305.551057 212.4416 
L 306.243493 213.500825 
L 306.935929 214.540766 
L 307.628364 215.561167 
L 308.3208 216.561773 
L 309.013236 217.542338 
L 309.705671 218.502617 
L 310.398107 219.442372 
L 311.090542 220.361372 
L 311.782978 221.259387 
L 312.475414 222.136195 
L 313.167849 222.991578 
L 313.860285 223.825325 
L 314.552721 224.637229 
L 315.245156 225.427088 
L 315.937592 226.194707 
L 316.630028 226.939895 
L 317.322463 227.662467 
L 318.014899 228.362244 
L 318.707334 229.039053 
L 319.39977 229.692727 
L 320.092206 230.323101 
L 320.784641 230.930022 
L 321.477077 231.513337 
L 322.169513 232.072902 
L 322.861948 232.608579 
L 323.554384 233.120235 
L 324.24682 233.607743 
L 324.939255 234.070981 
L 325.631691 234.509836 
L 326.324126 234.924198 
L 327.016562 235.313964 
L 327.708998 235.679038 
L 328.401433 236.01933 
L 329.093869 236.334754 
L 329.786305 236.625233 
L 330.47874 236.890695 
L 331.171176 237.131074 
L 331.863612 237.34631 
L 332.556047 237.53635 
L 333.248483 237.701146 
L 333.940918 237.840659 
L 334.633354 237.954853 
L 335.32579 238.043699 
L 336.018225 238.107177 
L 336.710661 238.14527 
L 337.403097 238.157969 
L 337.403097 238.157969 
L 337.403097 238.157969 
L 336.710661 238.157969 
L 336.018225 238.157969 
L 335.32579 238.157969 
L 334.633354 238.157969 
L 333.940918 238.157969 
L 333.248483 238.157969 
L 332.556047 238.157969 
L 331.863612 238.157969 
L 331.171176 238.157969 
L 330.47874 238.157969 
L 329.786305 238.157969 
L 329.093869 238.157969 
L 328.401433 238.157969 
L 327.708998 238.157969 
L 327.016562 238.157969 
L 326.324126 238.157969 
L 325.631691 238.157969 
L 324.939255 238.157969 
L 324.24682 238.157969 
L 323.554384 238.157969 
L 322.861948 238.157969 
L 322.169513 238.157969 
L 321.477077 238.157969 
L 320.784641 238.157969 
L 320.092206 238.157969 
L 319.39977 238.157969 
L 318.707334 238.157969 
L 318.014899 238.157969 
L 317.322463 238.157969 
L 316.630028 238.157969 
L 315.937592 238.157969 
L 315.245156 238.157969 
L 314.552721 238.157969 
L 313.860285 238.157969 
L 313.167849 238.157969 
L 312.475414 238.157969 
L 311.782978 238.157969 
L 311.090542 238.157969 
L 310.398107 238.157969 
L 309.705671 238.157969 
L 309.013236 238.157969 
L 308.3208 238.157969 
L 307.628364 238.157969 
L 306.935929 238.157969 
L 306.243493 238.157969 
L 305.551057 238.157969 
L 304.858622 238.157969 
L 304.166186 238.157969 
L 303.47375 238.157969 
L 302.781315 238.157969 
L 302.088879 238.157969 
L 301.396444 238.157969 
L 300.704008 238.157969 
L 300.011572 238.157969 
L 299.319137 238.157969 
L 298.626701 238.157969 
L 297.934265 238.157969 
L 297.24183 238.157969 
L 296.549394 238.157969 
L 295.856959 238.157969 
L 295.164523 238.157969 
L 294.472087 238.157969 
L 293.779652 238.157969 
L 293.087216 238.157969 
L 292.39478 238.157969 
L 291.702345 238.157969 
L 291.009909 238.157969 
L 290.317473 238.157969 
L 289.625038 238.157969 
L 288.932602 238.157969 
L 288.240167 238.157969 
L 287.547731 238.157969 
L 286.855295 238.157969 
L 286.16286 238.157969 
L 285.470424 238.157969 
L 284.777988 238.157969 
L 284.085553 238.157969 
L 283.393117 238.157969 
L 282.700681 238.157969 
L 282.008246 238.157969 
L 281.31581 238.157969 
L 280.623375 238.157969 
L 279.930939 238.157969 
L 279.238503 238.157969 
L 278.546068 238.157969 
L 277.853632 238.157969 
L 277.161196 238.157969 
L 276.468761 238.157969 
L 275.776325 238.157969 
L 275.083889 238.157969 
L 274.391454 238.157969 
L 273.699018 238.157969 
L 273.006583 238.157969 
L 272.314147 238.157969 
L 271.621711 238.157969 
L 270.929276 238.157969 
L 270.23684 238.157969 
L 269.544404 238.157969 
L 268.851969 238.157969 
L 268.159533 238.157969 
L 267.467098 238.157969 
L 266.774662 238.157969 
L 266.082226 238.157969 
L 265.389791 238.157969 
L 264.697355 238.157969 
L 264.004919 238.157969 
L 263.312484 238.157969 
L 262.620048 238.157969 
L 261.927612 238.157969 
L 261.235177 238.157969 
L 260.542741 238.157969 
L 259.850306 238.157969 
L 259.15787 238.157969 
L 258.465434 238.157969 
L 257.772999 238.157969 
L 257.080563 238.157969 
L 256.388127 238.157969 
L 255.695692 238.157969 
L 255.003256 238.157969 
L 254.31082 238.157969 
L 253.618385 238.157969 
L 252.925949 238.157969 
L 252.233514 238.157969 
L 251.541078 238.157969 
L 250.848642 238.157969 
L 250.156207 238.157969 
L 249.463771 238.157969 
L 248.771335 238.157969 
L 248.0789 238.157969 
L 247.386464 238.157969 
L 246.694028 238.157969 
L 246.001593 238.157969 
L 245.309157 238.157969 
L 244.616722 238.157969 
L 243.924286 238.157969 
L 243.23185 238.157969 
L 242.539415 238.157969 
L 241.846979 238.157969 
L 241.154543 238.157969 
L 240.462108 238.157969 
L 239.769672 238.157969 
L 239.077236 238.157969 
L 238.384801 238.157969 
L 237.692365 238.157969 
L 236.99993 238.157969 
L 236.307494 238.157969 
L 235.615058 238.157969 
L 234.922623 238.157969 
L 234.230187 238.157969 
L 233.537751 238.157969 
L 232.845316 238.157969 
L 232.15288 238.157969 
L 231.460445 238.157969 
L 230.768009 238.157969 
L 230.075573 238.157969 
L 229.383138 238.157969 
L 228.690702 238.157969 
L 227.998266 238.157969 
L 227.305831 238.157969 
L 226.613395 238.157969 
L 225.920959 238.157969 
L 225.228524 238.157969 
L 224.536088 238.157969 
L 223.843653 238.157969 
L 223.151217 238.157969 
L 222.458781 238.157969 
L 221.766346 238.157969 
L 221.07391 238.157969 
L 220.381474 238.157969 
L 219.689039 238.157969 
L 218.996603 238.157969 
L 218.304167 238.157969 
L 217.611732 238.157969 
L 216.919296 238.157969 
L 216.226861 238.157969 
L 215.534425 238.157969 
L 214.841989 238.157969 
L 214.149554 238.157969 
L 213.457118 238.157969 
L 212.764682 238.157969 
L 212.072247 238.157969 
L 211.379811 238.157969 
L 210.687375 238.157969 
L 209.99494 238.157969 
L 209.302504 238.157969 
L 208.610069 238.157969 
L 207.917633 238.157969 
L 207.225197 238.157969 
L 206.532762 238.157969 
L 205.840326 238.157969 
L 205.14789 238.157969 
L 204.455455 238.157969 
L 203.763019 238.157969 
L 203.070583 238.157969 
L 202.378148 238.157969 
L 201.685712 238.157969 
L 200.993277 238.157969 
L 200.300841 238.157969 
L 199.608405 238.157969 
L 198.91597 238.157969 
L 198.223534 238.157969 
L 197.531098 238.157969 
L 196.838663 238.157969 
L 196.146227 238.157969 
L 195.453792 238.157969 
L 194.761356 238.157969 
L 194.06892 238.157969 
L 193.376485 238.157969 
L 192.684049 238.157969 
L 191.991613 238.157969 
L 191.299178 238.157969 
L 190.606742 238.157969 
L 189.914306 238.157969 
L 189.221871 238.157969 
L 188.529435 238.157969 
L 187.837 238.157969 
L 187.144564 238.157969 
L 186.452128 238.157969 
L 185.759693 238.157969 
L 185.067257 238.157969 
L 184.374821 238.157969 
L 183.682386 238.157969 
L 182.98995 238.157969 
L 182.297514 238.157969 
L 181.605079 238.157969 
L 180.912643 238.157969 
L 180.220208 238.157969 
L 179.527772 238.157969 
L 178.835336 238.157969 
L 178.142901 238.157969 
L 177.450465 238.157969 
L 176.758029 238.157969 
L 176.065594 238.157969 
L 175.373158 238.157969 
L 174.680722 238.157969 
L 173.988287 238.157969 
L 173.295851 238.157969 
L 172.603416 238.157969 
L 171.91098 238.157969 
L 171.218544 238.157969 
L 170.526109 238.157969 
L 169.833673 238.157969 
L 169.141237 238.157969 
L 168.448802 238.157969 
L 167.756366 238.157969 
L 167.06393 238.157969 
L 166.371495 238.157969 
L 165.679059 238.157969 
L 164.986624 238.157969 
L 164.294188 238.157969 
L 163.601752 238.157969 
L 162.909317 238.157969 
L 162.216881 238.157969 
L 161.524445 238.157969 
L 160.83201 238.157969 
L 160.139574 238.157969 
L 159.447139 238.157969 
L 158.754703 238.157969 
L 158.062267 238.157969 
L 157.369832 238.157969 
L 156.677396 238.157969 
L 155.98496 238.157969 
L 155.292525 238.157969 
L 154.600089 238.157969 
L 153.907653 238.157969 
L 153.215218 238.157969 
L 152.522782 238.157969 
L 151.830347 238.157969 
L 151.137911 238.157969 
L 150.445475 238.157969 
L 149.75304 238.157969 
L 149.060604 238.157969 
L 148.368168 238.157969 
L 147.675733 238.157969 
L 146.983297 238.157969 
L 146.290861 238.157969 
L 145.598426 238.157969 
L 144.90599 238.157969 
L 144.213555 238.157969 
L 143.521119 238.157969 
L 142.828683 238.157969 
L 142.136248 238.157969 
L 141.443812 238.157969 
L 140.751376 238.157969 
L 140.058941 238.157969 
L 139.366505 238.157969 
L 138.674069 238.157969 
L 137.981634 238.157969 
L 137.289198 238.157969 
L 136.596763 238.157969 
L 135.904327 238.157969 
L 135.211891 238.157969 
L 134.519456 238.157969 
L 133.82702 238.157969 
L 133.134584 238.157969 
L 132.442149 238.157969 
L 131.749713 238.157969 
L 131.057277 238.157969 
L 130.364842 238.157969 
L 129.672406 238.157969 
L 128.979971 238.157969 
L 128.287535 238.157969 
L 127.595099 238.157969 
L 126.902664 238.157969 
L 126.210228 238.157969 
L 125.517792 238.157969 
L 124.825357 238.157969 
L 124.132921 238.157969 
L 123.440486 238.157969 
L 122.74805 238.157969 
L 122.055614 238.157969 
L 121.363179 238.157969 
L 120.670743 238.157969 
L 119.978307 238.157969 
L 119.285872 238.157969 
L 118.593436 238.157969 
L 117.901 238.157969 
L 117.208565 238.157969 
L 116.516129 238.157969 
L 115.823694 238.157969 
L 115.131258 238.157969 
L 114.438822 238.157969 
L 113.746387 238.157969 
L 113.053951 238.157969 
L 112.361515 238.157969 
L 111.66908 238.157969 
L 110.976644 238.157969 
L 110.284208 238.157969 
L 109.591773 238.157969 
L 108.899337 238.157969 
L 108.206902 238.157969 
L 107.514466 238.157969 
L 106.82203 238.157969 
L 106.129595 238.157969 
L 105.437159 238.157969 
L 104.744723 238.157969 
L 104.052288 238.157969 
L 103.359852 238.157969 
L 102.667416 238.157969 
L 101.974981 238.157969 
L 101.282545 238.157969 
L 100.59011 238.157969 
L 99.897674 238.157969 
L 99.205238 238.157969 
L 98.512803 238.157969 
L 97.820367 238.157969 
L 97.127931 238.157969 
L 96.435496 238.157969 
L 95.74306 238.157969 
L 95.050625 238.157969 
L 94.358189 238.157969 
L 93.665753 238.157969 
L 92.973318 238.157969 
L 92.280882 238.157969 
L 91.588446 238.157969 
L 90.896011 238.157969 
L 90.203575 238.157969 
L 89.511139 238.157969 
L 88.818704 238.157969 
L 88.126268 238.157969 
L 87.433833 238.157969 
L 86.741397 238.157969 
L 86.048961 238.157969 
L 85.356526 238.157969 
L 84.66409 238.157969 
L 83.971654 238.157969 
L 83.279219 238.157969 
L 82.586783 238.157969 
L 81.894347 238.157969 
L 81.201912 238.157969 
L 80.509476 238.157969 
L 79.817041 238.157969 
L 79.124605 238.157969 
L 78.432169 238.157969 
L 77.739734 238.157969 
L 77.047298 238.157969 
L 76.354862 238.157969 
L 75.662427 238.157969 
L 74.969991 238.157969 
L 74.277555 238.157969 
L 73.58512 238.157969 
L 72.892684 238.157969 
L 72.200249 238.157969 
L 71.507813 238.157969 
L 70.815377 238.157969 
L 70.122942 238.157969 
L 69.430506 238.157969 
L 68.73807 238.157969 
L 68.045635 238.157969 
L 67.353199 238.157969 
L 66.660763 238.157969 
L 65.968328 238.157969 
L 65.275892 238.157969 
L 64.583457 238.157969 
L 63.891021 238.157969 
L 63.198585 238.157969 
L 62.50615 238.157969 
L 61.813714 238.157969 
L 61.121278 238.157969 
z
" clip-path="url(#p61959021c1)" style="fill: #1f77b4; fill-opacity: 0.3"/>
   </g>
   <g id="matplotlib.axis_1">
    <g id="xtick_1">
     <g id="line2d_1">
      <path d="M 61.121278 238.157969 
L 61.121278 23.077969 
" clip-path="url(#p61959021c1)" style="fill: none; stroke: #b0b0b0; stroke-width: 0.8; stroke-linecap: square"/>
     </g>
     <g id="line2d_2">
      <defs>
       <path id="m2e795ddc5c" d="M 0 0 
L 0 3.5 
" style="stroke: #000000; stroke-width: 0.8"/>
      </defs>
      <g>
       <use xlink:href="#m2e795ddc5c" x="61.121278" y="238.157969" style="stroke: #000000; stroke-width: 0.8"/>
      </g>
     </g>
     <g id="text_1">
      <!-- 0.0 -->
      <g transform="translate(52.37456 253.51625) scale(0.11 -0.11)">
       <defs>
        <path id="DejaVuSans-30" d="M 2034 4250 
Q 1547 4250 1301 3770 
Q 1056 3291 1056 2328 
Q 1056 1369 1301 889 
Q 1547 409 2034 409 
Q 2525 409 2770 889 
Q 3016 1369 3016 2328 
Q 3016 3291 2770 3770 
Q 2525 4250 2034 4250 
z
M 2034 4750 
Q 2819 4750 3233 4129 
Q 3647 3509 3647 2328 
Q 3647 1150 3233 529 
Q 2819 -91 2034 -91 
Q 1250 -91 836 529 
Q 422 1150 422 2328 
Q 422 3509 836 4129 
Q 1250 4750 2034 4750 
z
" transform="scale(0.015625)"/>
        <path id="DejaVuSans-2e" d="M 684 794 
L 1344 794 
L 1344 0 
L 684 0 
L 684 794 
z
" transform="scale(0.015625)"/>
       </defs>
       <use xlink:href="#DejaVuSans-30"/>
       <use xlink:href="#DejaVuSans-2e" transform="translate(63.623047 0)"/>
       <use xlink:href="#DejaVuSans-30" transform="translate(95.410156 0)"/>
      </g>
     </g>
    </g>
    <g id="xtick_2">
     <g id="line2d_3">
      <path d="M 105.092895 238.157969 
L 105.092895 23.077969 
" clip-path="url(#p61959021c1)" style="fill: none; stroke: #b0b0b0; stroke-width: 0.8; stroke-linecap: square"/>
     </g>
     <g id="line2d_4">
      <g>
       <use xlink:href="#m2e795ddc5c" x="105.092895" y="238.157969" style="stroke: #000000; stroke-width: 0.8"/>
      </g>
     </g>
     <g id="text_2">
      <!-- 0.5 -->
      <g transform="translate(96.346177 253.51625) scale(0.11 -0.11)">
       <defs>
        <path id="DejaVuSans-35" d="M 691 4666 
L 3169 4666 
L 3169 4134 
L 1269 4134 
L 1269 2991 
Q 1406 3038 1543 3061 
Q 1681 3084 1819 3084 
Q 2600 3084 3056 2656 
Q 3513 2228 3513 1497 
Q 3513 744 3044 326 
Q 2575 -91 1722 -91 
Q 1428 -91 1123 -41 
Q 819 9 494 109 
L 494 744 
Q 775 591 1075 516 
Q 1375 441 1709 441 
Q 2250 441 2565 725 
Q 2881 1009 2881 1497 
Q 2881 1984 2565 2268 
Q 2250 2553 1709 2553 
Q 1456 2553 1204 2497 
Q 953 2441 691 2322 
L 691 4666 
z
" transform="scale(0.015625)"/>
       </defs>
       <use xlink:href="#DejaVuSans-30"/>
       <use xlink:href="#DejaVuSans-2e" transform="translate(63.623047 0)"/>
       <use xlink:href="#DejaVuSans-35" transform="translate(95.410156 0)"/>
      </g>
     </g>
    </g>
    <g id="xtick_3">
     <g id="line2d_5">
      <path d="M 149.064513 238.157969 
L 149.064513 23.077969 
" clip-path="url(#p61959021c1)" style="fill: none; stroke: #b0b0b0; stroke-width: 0.8; stroke-linecap: square"/>
     </g>
     <g id="line2d_6">
      <g>
       <use xlink:href="#m2e795ddc5c" x="149.064513" y="238.157969" style="stroke: #000000; stroke-width: 0.8"/>
      </g>
     </g>
     <g id="text_3">
      <!-- 1.0 -->
      <g transform="translate(140.317794 253.51625) scale(0.11 -0.11)">
       <defs>
        <path id="DejaVuSans-31" d="M 794 531 
L 1825 531 
L 1825 4091 
L 703 3866 
L 703 4441 
L 1819 4666 
L 2450 4666 
L 2450 531 
L 3481 531 
L 3481 0 
L 794 0 
L 794 531 
z
" transform="scale(0.015625)"/>
       </defs>
       <use xlink:href="#DejaVuSans-31"/>
       <use xlink:href="#DejaVuSans-2e" transform="translate(63.623047 0)"/>
       <use xlink:href="#DejaVuSans-30" transform="translate(95.410156 0)"/>
      </g>
     </g>
    </g>
    <g id="xtick_4">
     <g id="line2d_7">
      <path d="M 193.03613 238.157969 
L 193.03613 23.077969 
" clip-path="url(#p61959021c1)" style="fill: none; stroke: #b0b0b0; stroke-width: 0.8; stroke-linecap: square"/>
     </g>
     <g id="line2d_8">
      <g>
       <use xlink:href="#m2e795ddc5c" x="193.03613" y="238.157969" style="stroke: #000000; stroke-width: 0.8"/>
      </g>
     </g>
     <g id="text_4">
      <!-- 1.5 -->
      <g transform="translate(184.289411 253.51625) scale(0.11 -0.11)">
       <use xlink:href="#DejaVuSans-31"/>
       <use xlink:href="#DejaVuSans-2e" transform="translate(63.623047 0)"/>
       <use xlink:href="#DejaVuSans-35" transform="translate(95.410156 0)"/>
      </g>
     </g>
    </g>
    <g id="xtick_5">
     <g id="line2d_9">
      <path d="M 237.007747 238.157969 
L 237.007747 23.077969 
" clip-path="url(#p61959021c1)" style="fill: none; stroke: #b0b0b0; stroke-width: 0.8; stroke-linecap: square"/>
     </g>
     <g id="line2d_10">
      <g>
       <use xlink:href="#m2e795ddc5c" x="237.007747" y="238.157969" style="stroke: #000000; stroke-width: 0.8"/>
      </g>
     </g>
     <g id="text_5">
      <!-- 2.0 -->
      <g transform="translate(228.261028 253.51625) scale(0.11 -0.11)">
       <defs>
        <path id="DejaVuSans-32" d="M 1228 531 
L 3431 531 
L 3431 0 
L 469 0 
L 469 531 
Q 828 903 1448 1529 
Q 2069 2156 2228 2338 
Q 2531 2678 2651 2914 
Q 2772 3150 2772 3378 
Q 2772 3750 2511 3984 
Q 2250 4219 1831 4219 
Q 1534 4219 1204 4116 
Q 875 4013 500 3803 
L 500 4441 
Q 881 4594 1212 4672 
Q 1544 4750 1819 4750 
Q 2544 4750 2975 4387 
Q 3406 4025 3406 3419 
Q 3406 3131 3298 2873 
Q 3191 2616 2906 2266 
Q 2828 2175 2409 1742 
Q 1991 1309 1228 531 
z
" transform="scale(0.015625)"/>
       </defs>
       <use xlink:href="#DejaVuSans-32"/>
       <use xlink:href="#DejaVuSans-2e" transform="translate(63.623047 0)"/>
       <use xlink:href="#DejaVuSans-30" transform="translate(95.410156 0)"/>
      </g>
     </g>
    </g>
    <g id="xtick_6">
     <g id="line2d_11">
      <path d="M 280.979364 238.157969 
L 280.979364 23.077969 
" clip-path="url(#p61959021c1)" style="fill: none; stroke: #b0b0b0; stroke-width: 0.8; stroke-linecap: square"/>
     </g>
     <g id="line2d_12">
      <g>
       <use xlink:href="#m2e795ddc5c" x="280.979364" y="238.157969" style="stroke: #000000; stroke-width: 0.8"/>
      </g>
     </g>
     <g id="text_6">
      <!-- 2.5 -->
      <g transform="translate(272.232645 253.51625) scale(0.11 -0.11)">
       <use xlink:href="#DejaVuSans-32"/>
       <use xlink:href="#DejaVuSans-2e" transform="translate(63.623047 0)"/>
       <use xlink:href="#DejaVuSans-35" transform="translate(95.410156 0)"/>
      </g>
     </g>
    </g>
    <g id="xtick_7">
     <g id="line2d_13">
      <path d="M 324.950981 238.157969 
L 324.950981 23.077969 
" clip-path="url(#p61959021c1)" style="fill: none; stroke: #b0b0b0; stroke-width: 0.8; stroke-linecap: square"/>
     </g>
     <g id="line2d_14">
      <g>
       <use xlink:href="#m2e795ddc5c" x="324.950981" y="238.157969" style="stroke: #000000; stroke-width: 0.8"/>
      </g>
     </g>
     <g id="text_7">
      <!-- 3.0 -->
      <g transform="translate(316.204262 253.51625) scale(0.11 -0.11)">
       <defs>
        <path id="DejaVuSans-33" d="M 2597 2516 
Q 3050 2419 3304 2112 
Q 3559 1806 3559 1356 
Q 3559 666 3084 287 
Q 2609 -91 1734 -91 
Q 1441 -91 1130 -33 
Q 819 25 488 141 
L 488 750 
Q 750 597 1062 519 
Q 1375 441 1716 441 
Q 2309 441 2620 675 
Q 2931 909 2931 1356 
Q 2931 1769 2642 2001 
Q 2353 2234 1838 2234 
L 1294 2234 
L 1294 2753 
L 1863 2753 
Q 2328 2753 2575 2939 
Q 2822 3125 2822 3475 
Q 2822 3834 2567 4026 
Q 2313 4219 1838 4219 
Q 1578 4219 1281 4162 
Q 984 4106 628 3988 
L 628 4550 
Q 988 4650 1302 4700 
Q 1616 4750 1894 4750 
Q 2613 4750 3031 4423 
Q 3450 4097 3450 3541 
Q 3450 3153 3228 2886 
Q 3006 2619 2597 2516 
z
" transform="scale(0.015625)"/>
       </defs>
       <use xlink:href="#DejaVuSans-33"/>
       <use xlink:href="#DejaVuSans-2e" transform="translate(63.623047 0)"/>
       <use xlink:href="#DejaVuSans-30" transform="translate(95.410156 0)"/>
      </g>
     </g>
    </g>
    <g id="text_8">
     <!-- x -->
     <g transform="translate(195.710937 268.922031) scale(0.12 -0.12)">
      <defs>
       <path id="DejaVuSans-78" d="M 3513 3500 
L 2247 1797 
L 3578 0 
L 2900 0 
L 1881 1375 
L 863 0 
L 184 0 
L 1544 1831 
L 300 3500 
L 978 3500 
L 1906 2253 
L 2834 3500 
L 3513 3500 
z
" transform="scale(0.015625)"/>
      </defs>
      <use xlink:href="#DejaVuSans-78"/>
     </g>
    </g>
   </g>
   <g id="matplotlib.axis_2">
    <g id="ytick_1">
     <g id="line2d_15">
      <path d="M 47.307187 238.157969 
L 351.217187 238.157969 
" clip-path="url(#p61959021c1)" style="fill: none; stroke: #b0b0b0; stroke-width: 0.8; stroke-linecap: square"/>
     </g>
     <g id="line2d_16">
      <defs>
       <path id="m8c73a232c6" d="M 0 0 
L -3.5 0 
" style="stroke: #000000; stroke-width: 0.8"/>
      </defs>
      <g>
       <use xlink:href="#m8c73a232c6" x="47.307187" y="238.157969" style="stroke: #000000; stroke-width: 0.8"/>
      </g>
     </g>
     <g id="text_9">
      <!-- 0.0 -->
      <g transform="translate(22.81375 242.337109) scale(0.11 -0.11)">
       <use xlink:href="#DejaVuSans-30"/>
       <use xlink:href="#DejaVuSans-2e" transform="translate(63.623047 0)"/>
       <use xlink:href="#DejaVuSans-30" transform="translate(95.410156 0)"/>
      </g>
     </g>
    </g>
    <g id="ytick_2">
     <g id="line2d_17">
      <path d="M 47.307187 197.190032 
L 351.217187 197.190032 
" clip-path="url(#p61959021c1)" style="fill: none; stroke: #b0b0b0; stroke-width: 0.8; stroke-linecap: square"/>
     </g>
     <g id="line2d_18">
      <g>
       <use xlink:href="#m8c73a232c6" x="47.307187" y="197.190032" style="stroke: #000000; stroke-width: 0.8"/>
      </g>
     </g>
     <g id="text_10">
      <!-- 0.2 -->
      <g transform="translate(22.81375 201.369173) scale(0.11 -0.11)">
       <use xlink:href="#DejaVuSans-30"/>
       <use xlink:href="#DejaVuSans-2e" transform="translate(63.623047 0)"/>
       <use xlink:href="#DejaVuSans-32" transform="translate(95.410156 0)"/>
      </g>
     </g>
    </g>
    <g id="ytick_3">
     <g id="line2d_19">
      <path d="M 47.307187 156.222096 
L 351.217187 156.222096 
" clip-path="url(#p61959021c1)" style="fill: none; stroke: #b0b0b0; stroke-width: 0.8; stroke-linecap: square"/>
     </g>
     <g id="line2d_20">
      <g>
       <use xlink:href="#m8c73a232c6" x="47.307187" y="156.222096" style="stroke: #000000; stroke-width: 0.8"/>
      </g>
     </g>
     <g id="text_11">
      <!-- 0.4 -->
      <g transform="translate(22.81375 160.401236) scale(0.11 -0.11)">
       <defs>
        <path id="DejaVuSans-34" d="M 2419 4116 
L 825 1625 
L 2419 1625 
L 2419 4116 
z
M 2253 4666 
L 3047 4666 
L 3047 1625 
L 3713 1625 
L 3713 1100 
L 3047 1100 
L 3047 0 
L 2419 0 
L 2419 1100 
L 313 1100 
L 313 1709 
L 2253 4666 
z
" transform="scale(0.015625)"/>
       </defs>
       <use xlink:href="#DejaVuSans-30"/>
       <use xlink:href="#DejaVuSans-2e" transform="translate(63.623047 0)"/>
       <use xlink:href="#DejaVuSans-34" transform="translate(95.410156 0)"/>
      </g>
     </g>
    </g>
    <g id="ytick_4">
     <g id="line2d_21">
      <path d="M 47.307187 115.254159 
L 351.217187 115.254159 
" clip-path="url(#p61959021c1)" style="fill: none; stroke: #b0b0b0; stroke-width: 0.8; stroke-linecap: square"/>
     </g>
     <g id="line2d_22">
      <g>
       <use xlink:href="#m8c73a232c6" x="47.307187" y="115.254159" style="stroke: #000000; stroke-width: 0.8"/>
      </g>
     </g>
     <g id="text_12">
      <!-- 0.6 -->
      <g transform="translate(22.81375 119.4333) scale(0.11 -0.11)">
       <defs>
        <path id="DejaVuSans-36" d="M 2113 2584 
Q 1688 2584 1439 2293 
Q 1191 2003 1191 1497 
Q 1191 994 1439 701 
Q 1688 409 2113 409 
Q 2538 409 2786 701 
Q 3034 994 3034 1497 
Q 3034 2003 2786 2293 
Q 2538 2584 2113 2584 
z
M 3366 4563 
L 3366 3988 
Q 3128 4100 2886 4159 
Q 2644 4219 2406 4219 
Q 1781 4219 1451 3797 
Q 1122 3375 1075 2522 
Q 1259 2794 1537 2939 
Q 1816 3084 2150 3084 
Q 2853 3084 3261 2657 
Q 3669 2231 3669 1497 
Q 3669 778 3244 343 
Q 2819 -91 2113 -91 
Q 1303 -91 875 529 
Q 447 1150 447 2328 
Q 447 3434 972 4092 
Q 1497 4750 2381 4750 
Q 2619 4750 2861 4703 
Q 3103 4656 3366 4563 
z
" transform="scale(0.015625)"/>
       </defs>
       <use xlink:href="#DejaVuSans-30"/>
       <use xlink:href="#DejaVuSans-2e" transform="translate(63.623047 0)"/>
       <use xlink:href="#DejaVuSans-36" transform="translate(95.410156 0)"/>
      </g>
     </g>
    </g>
    <g id="ytick_5">
     <g id="line2d_23">
      <path d="M 47.307187 74.286223 
L 351.217187 74.286223 
" clip-path="url(#p61959021c1)" style="fill: none; stroke: #b0b0b0; stroke-width: 0.8; stroke-linecap: square"/>
     </g>
     <g id="line2d_24">
      <g>
       <use xlink:href="#m8c73a232c6" x="47.307187" y="74.286223" style="stroke: #000000; stroke-width: 0.8"/>
      </g>
     </g>
     <g id="text_13">
      <!-- 0.8 -->
      <g transform="translate(22.81375 78.465363) scale(0.11 -0.11)">
       <defs>
        <path id="DejaVuSans-38" d="M 2034 2216 
Q 1584 2216 1326 1975 
Q 1069 1734 1069 1313 
Q 1069 891 1326 650 
Q 1584 409 2034 409 
Q 2484 409 2743 651 
Q 3003 894 3003 1313 
Q 3003 1734 2745 1975 
Q 2488 2216 2034 2216 
z
M 1403 2484 
Q 997 2584 770 2862 
Q 544 3141 544 3541 
Q 544 4100 942 4425 
Q 1341 4750 2034 4750 
Q 2731 4750 3128 4425 
Q 3525 4100 3525 3541 
Q 3525 3141 3298 2862 
Q 3072 2584 2669 2484 
Q 3125 2378 3379 2068 
Q 3634 1759 3634 1313 
Q 3634 634 3220 271 
Q 2806 -91 2034 -91 
Q 1263 -91 848 271 
Q 434 634 434 1313 
Q 434 1759 690 2068 
Q 947 2378 1403 2484 
z
M 1172 3481 
Q 1172 3119 1398 2916 
Q 1625 2713 2034 2713 
Q 2441 2713 2670 2916 
Q 2900 3119 2900 3481 
Q 2900 3844 2670 4047 
Q 2441 4250 2034 4250 
Q 1625 4250 1398 4047 
Q 1172 3844 1172 3481 
z
" transform="scale(0.015625)"/>
       </defs>
       <use xlink:href="#DejaVuSans-30"/>
       <use xlink:href="#DejaVuSans-2e" transform="translate(63.623047 0)"/>
       <use xlink:href="#DejaVuSans-38" transform="translate(95.410156 0)"/>
      </g>
     </g>
    </g>
    <g id="ytick_6">
     <g id="line2d_25">
      <path d="M 47.307187 33.318286 
L 351.217187 33.318286 
" clip-path="url(#p61959021c1)" style="fill: none; stroke: #b0b0b0; stroke-width: 0.8; stroke-linecap: square"/>
     </g>
     <g id="line2d_26">
      <g>
       <use xlink:href="#m8c73a232c6" x="47.307187" y="33.318286" style="stroke: #000000; stroke-width: 0.8"/>
      </g>
     </g>
     <g id="text_14">
      <!-- 1.0 -->
      <g transform="translate(22.81375 37.497427) scale(0.11 -0.11)">
       <use xlink:href="#DejaVuSans-31"/>
       <use xlink:href="#DejaVuSans-2e" transform="translate(63.623047 0)"/>
       <use xlink:href="#DejaVuSans-30" transform="translate(95.410156 0)"/>
      </g>
     </g>
    </g>
    <g id="text_15">
     <!-- f(x) -->
     <g transform="translate(16.318125 140.963281) rotate(-90) scale(0.12 -0.12)">
      <defs>
       <path id="DejaVuSans-66" d="M 2375 4863 
L 2375 4384 
L 1825 4384 
Q 1516 4384 1395 4259 
Q 1275 4134 1275 3809 
L 1275 3500 
L 2222 3500 
L 2222 3053 
L 1275 3053 
L 1275 0 
L 697 0 
L 697 3053 
L 147 3053 
L 147 3500 
L 697 3500 
L 697 3744 
Q 697 4328 969 4595 
Q 1241 4863 1831 4863 
L 2375 4863 
z
" transform="scale(0.015625)"/>
       <path id="DejaVuSans-28" d="M 1984 4856 
Q 1566 4138 1362 3434 
Q 1159 2731 1159 2009 
Q 1159 1288 1364 580 
Q 1569 -128 1984 -844 
L 1484 -844 
Q 1016 -109 783 600 
Q 550 1309 550 2009 
Q 550 2706 781 3412 
Q 1013 4119 1484 4856 
L 1984 4856 
z
" transform="scale(0.015625)"/>
       <path id="DejaVuSans-29" d="M 513 4856 
L 1013 4856 
Q 1481 4119 1714 3412 
Q 1947 2706 1947 2009 
Q 1947 1309 1714 600 
Q 1481 -109 1013 -844 
L 513 -844 
Q 928 -128 1133 580 
Q 1338 1288 1338 2009 
Q 1338 2731 1133 3434 
Q 928 4138 513 4856 
z
" transform="scale(0.015625)"/>
      </defs>
      <use xlink:href="#DejaVuSans-66"/>
      <use xlink:href="#DejaVuSans-28" transform="translate(35.205078 0)"/>
      <use xlink:href="#DejaVuSans-78" transform="translate(74.21875 0)"/>
      <use xlink:href="#DejaVuSans-29" transform="translate(133.398438 0)"/>
     </g>
    </g>
   </g>
   <g id="line2d_27">
    <path d="M 61.121278 238.157969 
L 78.432169 198.096868 
L 88.126268 176.241115 
L 95.74306 159.582995 
L 102.667416 144.947206 
L 108.899337 132.266295 
L 115.131258 120.116903 
L 120.670743 109.813023 
L 126.210228 100.018202 
L 131.057277 91.895916 
L 135.904327 84.217824 
L 140.058941 78.007856 
L 144.213555 72.155246 
L 148.368168 66.673053 
L 152.522782 61.57351 
L 156.677396 56.867996 
L 160.139574 53.255331 
L 163.601752 49.929202 
L 167.06393 46.894766 
L 170.526109 44.156723 
L 173.988287 41.719317 
L 177.450465 39.586326 
L 180.912643 37.761054 
L 183.682386 36.524311 
L 186.452128 35.487555 
L 189.221871 34.651815 
L 191.991613 34.017918 
L 194.761356 33.586493 
L 197.531098 33.357969 
L 200.300841 33.332572 
L 203.070583 33.510328 
L 205.840326 33.891059 
L 208.610069 34.474389 
L 211.379811 35.259739 
L 214.149554 36.24633 
L 216.919296 37.433183 
L 219.689039 38.819122 
L 223.151217 40.829395 
L 226.613395 43.145462 
L 230.075573 45.763734 
L 233.537751 48.680151 
L 236.99993 51.890196 
L 240.462108 55.388894 
L 243.924286 59.170822 
L 248.0789 64.074719 
L 252.233514 69.367063 
L 256.388127 75.036046 
L 260.542741 81.069018 
L 264.697355 87.452516 
L 269.544404 95.323913 
L 274.391454 103.629093 
L 279.238503 112.342832 
L 284.777988 122.767667 
L 290.317473 133.65018 
L 296.549394 146.386265 
L 303.47375 161.074876 
L 311.090542 177.780412 
L 320.092206 198.096868 
L 331.863612 225.263786 
L 337.403097 238.157969 
L 337.403097 238.157969 
" clip-path="url(#p61959021c1)" style="fill: none; stroke: #1f77b4; stroke-width: 1.5; stroke-linecap: square"/>
   </g>
   <g id="patch_3">
    <path d="M 47.307187 238.157969 
L 47.307187 23.077969 
" style="fill: none; stroke: #000000; stroke-width: 0.8; stroke-linejoin: miter; stroke-linecap: square"/>
   </g>
   <g id="patch_4">
    <path d="M 351.217187 238.157969 
L 351.217187 23.077969 
" style="fill: none; stroke: #000000; stroke-width: 0.8; stroke-linejoin: miter; stroke-linecap: square"/>
   </g>
   <g id="patch_5">
    <path d="M 47.307187 238.157969 
L 351.217187 238.157969 
" style="fill: none; stroke: #000000; stroke-width: 0.8; stroke-linejoin: miter; stroke-linecap: square"/>
   </g>
   <g id="patch_6">
    <path d="M 47.307187 23.077969 
L 351.217187 23.077969 
" style="fill: none; stroke: #000000; stroke-width: 0.8; stroke-linejoin: miter; stroke-linecap: square"/>
   </g>
   <g id="text_16">
    <!-- Function in L²[0, π] -->
    <g transform="translate(138.080937 17.077969) scale(0.13 -0.13)">
     <defs>
      <path id="DejaVuSans-46" d="M 628 4666 
L 3309 4666 
L 3309 4134 
L 1259 4134 
L 1259 2759 
L 3109 2759 
L 3109 2228 
L 1259 2228 
L 1259 0 
L 628 0 
L 628 4666 
z
" transform="scale(0.015625)"/>
      <path id="DejaVuSans-75" d="M 544 1381 
L 544 3500 
L 1119 3500 
L 1119 1403 
Q 1119 906 1312 657 
Q 1506 409 1894 409 
Q 2359 409 2629 706 
Q 2900 1003 2900 1516 
L 2900 3500 
L 3475 3500 
L 3475 0 
L 2900 0 
L 2900 538 
Q 2691 219 2414 64 
Q 2138 -91 1772 -91 
Q 1169 -91 856 284 
Q 544 659 544 1381 
z
M 1991 3584 
L 1991 3584 
z
" transform="scale(0.015625)"/>
      <path id="DejaVuSans-6e" d="M 3513 2113 
L 3513 0 
L 2938 0 
L 2938 2094 
Q 2938 2591 2744 2837 
Q 2550 3084 2163 3084 
Q 1697 3084 1428 2787 
Q 1159 2491 1159 1978 
L 1159 0 
L 581 0 
L 581 3500 
L 1159 3500 
L 1159 2956 
Q 1366 3272 1645 3428 
Q 1925 3584 2291 3584 
Q 2894 3584 3203 3211 
Q 3513 2838 3513 2113 
z
" transform="scale(0.015625)"/>
      <path id="DejaVuSans-63" d="M 3122 3366 
L 3122 2828 
Q 2878 2963 2633 3030 
Q 2388 3097 2138 3097 
Q 1578 3097 1268 2742 
Q 959 2388 959 1747 
Q 959 1106 1268 751 
Q 1578 397 2138 397 
Q 2388 397 2633 464 
Q 2878 531 3122 666 
L 3122 134 
Q 2881 22 2623 -34 
Q 2366 -91 2075 -91 
Q 1284 -91 818 406 
Q 353 903 353 1747 
Q 353 2603 823 3093 
Q 1294 3584 2113 3584 
Q 2378 3584 2631 3529 
Q 2884 3475 3122 3366 
z
" transform="scale(0.015625)"/>
      <path id="DejaVuSans-74" d="M 1172 4494 
L 1172 3500 
L 2356 3500 
L 2356 3053 
L 1172 3053 
L 1172 1153 
Q 1172 725 1289 603 
Q 1406 481 1766 481 
L 2356 481 
L 2356 0 
L 1766 0 
Q 1100 0 847 248 
Q 594 497 594 1153 
L 594 3053 
L 172 3053 
L 172 3500 
L 594 3500 
L 594 4494 
L 1172 4494 
z
" transform="scale(0.015625)"/>
      <path id="DejaVuSans-69" d="M 603 3500 
L 1178 3500 
L 1178 0 
L 603 0 
L 603 3500 
z
M 603 4863 
L 1178 4863 
L 1178 4134 
L 603 4134 
L 603 4863 
z
" transform="scale(0.015625)"/>
      <path id="DejaVuSans-6f" d="M 1959 3097 
Q 1497 3097 1228 2736 
Q 959 2375 959 1747 
Q 959 1119 1226 758 
Q 1494 397 1959 397 
Q 2419 397 2687 759 
Q 2956 1122 2956 1747 
Q 2956 2369 2687 2733 
Q 2419 3097 1959 3097 
z
M 1959 3584 
Q 2709 3584 3137 3096 
Q 3566 2609 3566 1747 
Q 3566 888 3137 398 
Q 2709 -91 1959 -91 
Q 1206 -91 779 398 
Q 353 888 353 1747 
Q 353 2609 779 3096 
Q 1206 3584 1959 3584 
z
" transform="scale(0.015625)"/>
      <path id="DejaVuSans-20" transform="scale(0.015625)"/>
      <path id="DejaVuSans-4c" d="M 628 4666 
L 1259 4666 
L 1259 531 
L 3531 531 
L 3531 0 
L 628 0 
L 628 4666 
z
" transform="scale(0.015625)"/>
      <path id="DejaVuSans-b2" d="M 838 2444 
L 2163 2444 
L 2163 2088 
L 294 2088 
L 294 2431 
Q 400 2528 597 2703 
Q 1672 3656 1672 3950 
Q 1672 4156 1509 4282 
Q 1347 4409 1081 4409 
Q 919 4409 728 4354 
Q 538 4300 313 4191 
L 313 4575 
Q 553 4663 761 4706 
Q 969 4750 1147 4750 
Q 1600 4750 1872 4544 
Q 2144 4338 2144 4000 
Q 2144 3566 1109 2678 
Q 934 2528 838 2444 
z
" transform="scale(0.015625)"/>
      <path id="DejaVuSans-5b" d="M 550 4863 
L 1875 4863 
L 1875 4416 
L 1125 4416 
L 1125 -397 
L 1875 -397 
L 1875 -844 
L 550 -844 
L 550 4863 
z
" transform="scale(0.015625)"/>
      <path id="DejaVuSans-2c" d="M 750 794 
L 1409 794 
L 1409 256 
L 897 -744 
L 494 -744 
L 750 256 
L 750 794 
z
" transform="scale(0.015625)"/>
      <path id="DejaVuSans-3c0" d="M 231 3500 
L 3584 3500 
L 3584 2925 
L 3144 2925 
L 3144 775 
Q 3144 550 3220 451 
Q 3297 353 3469 353 
Q 3516 353 3584 361 
Q 3653 369 3675 372 
L 3675 -44 
Q 3566 -84 3450 -103 
Q 3334 -122 3219 -122 
Q 2844 -122 2700 83 
Q 2556 288 2556 838 
L 2556 2925 
L 1266 2925 
L 1266 0 
L 678 0 
L 678 2925 
L 231 2925 
L 231 3500 
z
" transform="scale(0.015625)"/>
      <path id="DejaVuSans-5d" d="M 1947 4863 
L 1947 -844 
L 622 -844 
L 622 -397 
L 1369 -397 
L 1369 4416 
L 622 4416 
L 622 4863 
L 1947 4863 
z
" transform="scale(0.015625)"/>
     </defs>
     <use xlink:href="#DejaVuSans-46"/>
     <use xlink:href="#DejaVuSans-75" transform="translate(52.019531 0)"/>
     <use xlink:href="#DejaVuSans-6e" transform="translate(115.398438 0)"/>
     <use xlink:href="#DejaVuSans-63" transform="translate(178.777344 0)"/>
     <use xlink:href="#DejaVuSans-74" transform="translate(233.757812 0)"/>
     <use xlink:href="#DejaVuSans-69" transform="translate(272.966797 0)"/>
     <use xlink:href="#DejaVuSans-6f" transform="translate(300.75 0)"/>
     <use xlink:href="#DejaVuSans-6e" transform="translate(361.931641 0)"/>
     <use xlink:href="#DejaVuSans-20" transform="translate(425.310547 0)"/>
     <use xlink:href="#DejaVuSans-69" transform="translate(457.097656 0)"/>
     <use xlink:href="#DejaVuSans-6e" transform="translate(484.880859 0)"/>
     <use xlink:href="#DejaVuSans-20" transform="translate(548.259766 0)"/>
     <use xlink:href="#DejaVuSans-4c" transform="translate(580.046875 0)"/>
     <use xlink:href="#DejaVuSans-b2" transform="translate(635.759766 0)"/>
     <use xlink:href="#DejaVuSans-5b" transform="translate(675.847656 0)"/>
     <use xlink:href="#DejaVuSans-30" transform="translate(714.861328 0)"/>
     <use xlink:href="#DejaVuSans-2c" transform="translate(778.484375 0)"/>
     <use xlink:href="#DejaVuSans-20" transform="translate(810.271484 0)"/>
     <use xlink:href="#DejaVuSans-3c0" transform="translate(842.058594 0)"/>
     <use xlink:href="#DejaVuSans-5d" transform="translate(902.263672 0)"/>
    </g>
   </g>
   <g id="legend_1">
    <g id="patch_7">
     <path d="M 252.192187 60.434219 
L 344.217187 60.434219 
Q 346.217187 60.434219 346.217187 58.434219 
L 346.217187 30.077969 
Q 346.217187 28.077969 344.217187 28.077969 
L 252.192187 28.077969 
Q 250.192187 28.077969 250.192187 30.077969 
L 250.192187 58.434219 
Q 250.192187 60.434219 252.192187 60.434219 
z
" style="fill: #ffffff; opacity: 0.8; stroke: #cccccc; stroke-linejoin: miter"/>
    </g>
    <g id="line2d_28">
     <path d="M 254.192187 36.176406 
L 264.192187 36.176406 
L 274.192187 36.176406 
" style="fill: none; stroke: #1f77b4; stroke-width: 1.5; stroke-linecap: square"/>
    </g>
    <g id="text_17">
     <!-- f(x) = sin(x) -->
     <g transform="translate(282.192187 39.676406) scale(0.1 -0.1)">
      <defs>
       <path id="DejaVuSans-3d" d="M 678 2906 
L 4684 2906 
L 4684 2381 
L 678 2381 
L 678 2906 
z
M 678 1631 
L 4684 1631 
L 4684 1100 
L 678 1100 
L 678 1631 
z
" transform="scale(0.015625)"/>
       <path id="DejaVuSans-73" d="M 2834 3397 
L 2834 2853 
Q 2591 2978 2328 3040 
Q 2066 3103 1784 3103 
Q 1356 3103 1142 2972 
Q 928 2841 928 2578 
Q 928 2378 1081 2264 
Q 1234 2150 1697 2047 
L 1894 2003 
Q 2506 1872 2764 1633 
Q 3022 1394 3022 966 
Q 3022 478 2636 193 
Q 2250 -91 1575 -91 
Q 1294 -91 989 -36 
Q 684 19 347 128 
L 347 722 
Q 666 556 975 473 
Q 1284 391 1588 391 
Q 1994 391 2212 530 
Q 2431 669 2431 922 
Q 2431 1156 2273 1281 
Q 2116 1406 1581 1522 
L 1381 1569 
Q 847 1681 609 1914 
Q 372 2147 372 2553 
Q 372 3047 722 3315 
Q 1072 3584 1716 3584 
Q 2034 3584 2315 3537 
Q 2597 3491 2834 3397 
z
" transform="scale(0.015625)"/>
      </defs>
      <use xlink:href="#DejaVuSans-66"/>
      <use xlink:href="#DejaVuSans-28" transform="translate(35.205078 0)"/>
      <use xlink:href="#DejaVuSans-78" transform="translate(74.21875 0)"/>
      <use xlink:href="#DejaVuSans-29" transform="translate(133.398438 0)"/>
      <use xlink:href="#DejaVuSans-20" transform="translate(172.412109 0)"/>
      <use xlink:href="#DejaVuSans-3d" transform="translate(204.199219 0)"/>
      <use xlink:href="#DejaVuSans-20" transform="translate(287.988281 0)"/>
      <use xlink:href="#DejaVuSans-73" transform="translate(319.775391 0)"/>
      <use xlink:href="#DejaVuSans-69" transform="translate(371.875 0)"/>
      <use xlink:href="#DejaVuSans-6e" transform="translate(399.658203 0)"/>
      <use xlink:href="#DejaVuSans-28" transform="translate(463.037109 0)"/>
      <use xlink:href="#DejaVuSans-78" transform="translate(502.050781 0)"/>
      <use xlink:href="#DejaVuSans-29" transform="translate(561.230469 0)"/>
     </g>
    </g>
    <g id="patch_8">
     <path d="M 254.192187 54.354531 
L 274.192187 54.354531 
L 274.192187 47.354531 
L 254.192187 47.354531 
z
" style="fill: #1f77b4; fill-opacity: 0.3"/>
    </g>
    <g id="text_18">
     <!-- f(x)² -->
     <g transform="translate(282.192187 54.354531) scale(0.1 -0.1)">
      <use xlink:href="#DejaVuSans-66"/>
      <use xlink:href="#DejaVuSans-28" transform="translate(35.205078 0)"/>
      <use xlink:href="#DejaVuSans-78" transform="translate(74.21875 0)"/>
      <use xlink:href="#DejaVuSans-29" transform="translate(133.398438 0)"/>
      <use xlink:href="#DejaVuSans-b2" transform="translate(172.412109 0)"/>
     </g>
    </g>
   </g>
  </g>
  <g id="axes_2">
   <g id="patch_9">
    <path d="M 399.597188 238.157969 
L 703.507187 238.157969 
L 703.507187 23.077969 
L 399.597188 23.077969 
z
" style="fill: #ffffff"/>
   </g>
   <g id="FillBetweenPolyCollection_2">
    <path d="M 413.411278 238.157969 
L 413.411278 -42777.842031 
L 414.103714 -13264.571203 
L 414.79615 -6275.998737 
L 415.488585 -3584.394653 
L 416.181021 -2272.263127 
L 416.873457 -1535.789437 
L 417.565892 -1081.572696 
L 418.258328 -781.847466 
L 418.950763 -573.73841 
L 419.643199 -423.382911 
L 420.335635 -311.231827 
L 421.02807 -225.358442 
L 421.720506 -158.151386 
L 422.412942 -104.568053 
L 423.105377 -61.160378 
L 423.797813 -25.505936 
L 424.490249 4.137515 
L 425.182684 29.048973 
L 425.87512 50.184514 
L 426.567555 68.270401 
L 427.259991 83.866328 
L 427.952427 97.409239 
L 428.644862 109.244278 
L 429.337298 119.646992 
L 430.029734 128.839518 
L 430.722169 137.002542 
L 431.414605 144.284246 
L 432.107041 150.807079 
L 432.799476 156.67294 
L 433.491912 161.967183 
L 434.184347 166.761734 
L 434.876783 171.117556 
L 435.569219 175.086589 
L 436.261654 178.713307 
L 436.95409 182.035973 
L 437.646526 185.087649 
L 438.338961 187.897021 
L 439.031397 190.489079 
L 439.723833 192.885671 
L 440.416268 195.105968 
L 441.108704 197.166847 
L 441.801139 199.083211 
L 442.493575 200.868263 
L 443.186011 202.533732 
L 443.878446 204.090066 
L 444.570882 205.546595 
L 445.263318 206.911674 
L 445.955753 208.192802 
L 446.648189 209.396725 
L 447.340625 210.529522 
L 448.03306 211.59669 
L 448.725496 212.6032 
L 449.417931 213.553565 
L 450.110367 214.451884 
L 450.802803 215.301889 
L 451.495238 216.106984 
L 452.187674 216.870278 
L 452.88011 217.594615 
L 453.572545 218.282601 
L 454.264981 218.93663 
L 454.957416 219.558899 
L 455.649852 220.151432 
L 456.342288 220.716094 
L 457.034723 221.254606 
L 457.727159 221.768558 
L 458.419595 222.259421 
L 459.11203 222.728558 
L 459.804466 223.177232 
L 460.496902 223.606617 
L 461.189337 224.017801 
L 461.881773 224.411801 
L 462.574208 224.789559 
L 463.266644 225.151957 
L 463.95908 225.499816 
L 464.651515 225.833903 
L 465.343951 226.154937 
L 466.036387 226.463588 
L 466.728822 226.760485 
L 467.421258 227.046217 
L 468.113694 227.321338 
L 468.806129 227.586366 
L 469.498565 227.84179 
L 470.191 228.088066 
L 470.883436 228.325628 
L 471.575872 228.554882 
L 472.268307 228.776209 
L 472.960743 228.989973 
L 473.653179 229.196513 
L 474.345614 229.396151 
L 475.03805 229.589192 
L 475.730486 229.775923 
L 476.422921 229.956615 
L 477.115357 230.131527 
L 477.807792 230.300903 
L 478.500228 230.464974 
L 479.192664 230.623958 
L 479.885099 230.778064 
L 480.577535 230.92749 
L 481.269971 231.072424 
L 481.962406 231.213043 
L 482.654842 231.349517 
L 483.347277 231.482007 
L 484.039713 231.610667 
L 484.732149 231.735644 
L 485.424584 231.857076 
L 486.11702 231.975096 
L 486.809456 232.089831 
L 487.501891 232.201402 
L 488.194327 232.309924 
L 488.886763 232.415507 
L 489.579198 232.518256 
L 490.271634 232.618272 
L 490.964069 232.71565 
L 491.656505 232.810484 
L 492.348941 232.90286 
L 493.041376 232.992863 
L 493.733812 233.080573 
L 494.426248 233.166069 
L 495.118683 233.249422 
L 495.811119 233.330706 
L 496.503555 233.409987 
L 497.19599 233.48733 
L 497.888426 233.562799 
L 498.580861 233.636454 
L 499.273297 233.708352 
L 499.965733 233.778548 
L 500.658168 233.847097 
L 501.350604 233.914048 
L 502.04304 233.979452 
L 502.735475 234.043355 
L 503.427911 234.105804 
L 504.120347 234.166842 
L 504.812782 234.22651 
L 505.505218 234.284851 
L 506.197653 234.341903 
L 506.890089 234.397703 
L 507.582525 234.452288 
L 508.27496 234.505693 
L 508.967396 234.557952 
L 509.659832 234.609098 
L 510.352267 234.659161 
L 511.044703 234.708172 
L 511.737139 234.75616 
L 512.429574 234.803155 
L 513.12201 234.849182 
L 513.814445 234.894268 
L 514.506881 234.938439 
L 515.199317 234.981719 
L 515.891752 235.024133 
L 516.584188 235.065702 
L 517.276624 235.10645 
L 517.969059 235.146398 
L 518.661495 235.185566 
L 519.35393 235.223975 
L 520.046366 235.261645 
L 520.738802 235.298593 
L 521.431237 235.334839 
L 522.123673 235.3704 
L 522.816109 235.405294 
L 523.508544 235.439536 
L 524.20098 235.473144 
L 524.893416 235.506132 
L 525.585851 235.538516 
L 526.278287 235.57031 
L 526.970722 235.601529 
L 527.663158 235.632186 
L 528.355594 235.662295 
L 529.048029 235.691869 
L 529.740465 235.72092 
L 530.432901 235.749461 
L 531.125336 235.777504 
L 531.817772 235.805059 
L 532.510208 235.832139 
L 533.202643 235.858754 
L 533.895079 235.884915 
L 534.587514 235.910632 
L 535.27995 235.935915 
L 535.972386 235.960773 
L 536.664821 235.985217 
L 537.357257 236.009255 
L 538.049693 236.032896 
L 538.742128 236.05615 
L 539.434564 236.079024 
L 540.127 236.101526 
L 540.819435 236.123665 
L 541.511871 236.145448 
L 542.204306 236.166884 
L 542.896742 236.187979 
L 543.589178 236.20874 
L 544.281613 236.229175 
L 544.974049 236.24929 
L 545.666485 236.269092 
L 546.35892 236.288587 
L 547.051356 236.307783 
L 547.743792 236.326684 
L 548.436227 236.345297 
L 549.128663 236.363627 
L 549.821098 236.381681 
L 550.513534 236.399464 
L 551.20597 236.416981 
L 551.898405 236.434238 
L 552.590841 236.451239 
L 553.283277 236.46799 
L 553.975712 236.484496 
L 554.668148 236.500761 
L 555.360583 236.51679 
L 556.053019 236.532588 
L 556.745455 236.548158 
L 557.43789 236.563506 
L 558.130326 236.578636 
L 558.822762 236.593551 
L 559.515197 236.608256 
L 560.207633 236.622754 
L 560.900069 236.63705 
L 561.592504 236.651148 
L 562.28494 236.66505 
L 562.977375 236.678761 
L 563.669811 236.692283 
L 564.362247 236.705621 
L 565.054682 236.718778 
L 565.747118 236.731757 
L 566.439554 236.744561 
L 567.131989 236.757193 
L 567.824425 236.769657 
L 568.516861 236.781955 
L 569.209296 236.794091 
L 569.901732 236.806066 
L 570.594167 236.817885 
L 571.286603 236.829549 
L 571.979039 236.841062 
L 572.671474 236.852426 
L 573.36391 236.863643 
L 574.056346 236.874716 
L 574.748781 236.885648 
L 575.441217 236.89644 
L 576.133653 236.907096 
L 576.826088 236.917618 
L 577.518524 236.928007 
L 578.210959 236.938266 
L 578.903395 236.948398 
L 579.595831 236.958404 
L 580.288266 236.968286 
L 580.980702 236.978046 
L 581.673138 236.987687 
L 582.365573 236.99721 
L 583.058009 237.006618 
L 583.750445 237.015911 
L 584.44288 237.025093 
L 585.135316 237.034164 
L 585.827751 237.043126 
L 586.520187 237.051982 
L 587.212623 237.060733 
L 587.905058 237.06938 
L 588.597494 237.077926 
L 589.28993 237.086371 
L 589.982365 237.094718 
L 590.674801 237.102967 
L 591.367236 237.111121 
L 592.059672 237.119181 
L 592.752108 237.127148 
L 593.444543 237.135023 
L 594.136979 237.142809 
L 594.829415 237.150506 
L 595.52185 237.158116 
L 596.214286 237.16564 
L 596.906722 237.17308 
L 597.599157 237.180436 
L 598.291593 237.18771 
L 598.984028 237.194903 
L 599.676464 237.202016 
L 600.3689 237.209051 
L 601.061335 237.216008 
L 601.753771 237.22289 
L 602.446207 237.229696 
L 603.138642 237.236428 
L 603.831078 237.243087 
L 604.523514 237.249674 
L 605.215949 237.256191 
L 605.908385 237.262637 
L 606.60082 237.269015 
L 607.293256 237.275324 
L 607.985692 237.281567 
L 608.678127 237.287744 
L 609.370563 237.293856 
L 610.062999 237.299903 
L 610.755434 237.305887 
L 611.44787 237.311809 
L 612.140306 237.317669 
L 612.832741 237.323469 
L 613.525177 237.329209 
L 614.217612 237.33489 
L 614.910048 237.340512 
L 615.602484 237.346078 
L 616.294919 237.351586 
L 616.987355 237.357039 
L 617.679791 237.362436 
L 618.372226 237.36778 
L 619.064662 237.373069 
L 619.757098 237.378306 
L 620.449533 237.38349 
L 621.141969 237.388623 
L 621.834404 237.393705 
L 622.52684 237.398737 
L 623.219276 237.403719 
L 623.911711 237.408652 
L 624.604147 237.413537 
L 625.296583 237.418375 
L 625.989018 237.423165 
L 626.681454 237.427909 
L 627.373889 237.432608 
L 628.066325 237.437261 
L 628.758761 237.441869 
L 629.451196 237.446434 
L 630.143632 237.450955 
L 630.836068 237.455433 
L 631.528503 237.459868 
L 632.220939 237.464262 
L 632.913375 237.468614 
L 633.60581 237.472926 
L 634.298246 237.477197 
L 634.990681 237.481428 
L 635.683117 237.48562 
L 636.375553 237.489773 
L 637.067988 237.493888 
L 637.760424 237.497965 
L 638.45286 237.502005 
L 639.145295 237.506007 
L 639.837731 237.509973 
L 640.530167 237.513903 
L 641.222602 237.517797 
L 641.915038 237.521656 
L 642.607473 237.525481 
L 643.299909 237.529271 
L 643.992345 237.533027 
L 644.68478 237.536749 
L 645.377216 237.540438 
L 646.069652 237.544095 
L 646.762087 237.547719 
L 647.454523 237.551311 
L 648.146959 237.554871 
L 648.839394 237.558401 
L 649.53183 237.561899 
L 650.224265 237.565367 
L 650.916701 237.568804 
L 651.609137 237.572212 
L 652.301572 237.57559 
L 652.994008 237.57894 
L 653.686444 237.58226 
L 654.378879 237.585552 
L 655.071315 237.588816 
L 655.76375 237.592051 
L 656.456186 237.59526 
L 657.148622 237.598441 
L 657.841057 237.601595 
L 658.533493 237.604723 
L 659.225929 237.607824 
L 659.918364 237.6109 
L 660.6108 237.613949 
L 661.303236 237.616974 
L 661.995671 237.619973 
L 662.688107 237.622947 
L 663.380542 237.625896 
L 664.072978 237.628822 
L 664.765414 237.631723 
L 665.457849 237.6346 
L 666.150285 237.637454 
L 666.842721 237.640285 
L 667.535156 237.643092 
L 668.227592 237.645877 
L 668.920028 237.64864 
L 669.612463 237.65138 
L 670.304899 237.654097 
L 670.997334 237.656794 
L 671.68977 237.659468 
L 672.382206 237.662121 
L 673.074641 237.664753 
L 673.767077 237.667365 
L 674.459513 237.669955 
L 675.151948 237.672525 
L 675.844384 237.675075 
L 676.53682 237.677605 
L 677.229255 237.680114 
L 677.921691 237.682605 
L 678.614126 237.685076 
L 679.306562 237.687527 
L 679.998998 237.68996 
L 680.691433 237.692374 
L 681.383869 237.694769 
L 682.076305 237.697146 
L 682.76874 237.699504 
L 683.461176 237.701845 
L 684.153612 237.704167 
L 684.846047 237.706472 
L 685.538483 237.708759 
L 686.230918 237.711029 
L 686.923354 237.713282 
L 687.61579 237.715518 
L 688.308225 237.717737 
L 689.000661 237.71994 
L 689.693097 237.722126 
L 689.693097 238.157969 
L 689.693097 238.157969 
L 689.000661 238.157969 
L 688.308225 238.157969 
L 687.61579 238.157969 
L 686.923354 238.157969 
L 686.230918 238.157969 
L 685.538483 238.157969 
L 684.846047 238.157969 
L 684.153612 238.157969 
L 683.461176 238.157969 
L 682.76874 238.157969 
L 682.076305 238.157969 
L 681.383869 238.157969 
L 680.691433 238.157969 
L 679.998998 238.157969 
L 679.306562 238.157969 
L 678.614126 238.157969 
L 677.921691 238.157969 
L 677.229255 238.157969 
L 676.53682 238.157969 
L 675.844384 238.157969 
L 675.151948 238.157969 
L 674.459513 238.157969 
L 673.767077 238.157969 
L 673.074641 238.157969 
L 672.382206 238.157969 
L 671.68977 238.157969 
L 670.997334 238.157969 
L 670.304899 238.157969 
L 669.612463 238.157969 
L 668.920028 238.157969 
L 668.227592 238.157969 
L 667.535156 238.157969 
L 666.842721 238.157969 
L 666.150285 238.157969 
L 665.457849 238.157969 
L 664.765414 238.157969 
L 664.072978 238.157969 
L 663.380542 238.157969 
L 662.688107 238.157969 
L 661.995671 238.157969 
L 661.303236 238.157969 
L 660.6108 238.157969 
L 659.918364 238.157969 
L 659.225929 238.157969 
L 658.533493 238.157969 
L 657.841057 238.157969 
L 657.148622 238.157969 
L 656.456186 238.157969 
L 655.76375 238.157969 
L 655.071315 238.157969 
L 654.378879 238.157969 
L 653.686444 238.157969 
L 652.994008 238.157969 
L 652.301572 238.157969 
L 651.609137 238.157969 
L 650.916701 238.157969 
L 650.224265 238.157969 
L 649.53183 238.157969 
L 648.839394 238.157969 
L 648.146959 238.157969 
L 647.454523 238.157969 
L 646.762087 238.157969 
L 646.069652 238.157969 
L 645.377216 238.157969 
L 644.68478 238.157969 
L 643.992345 238.157969 
L 643.299909 238.157969 
L 642.607473 238.157969 
L 641.915038 238.157969 
L 641.222602 238.157969 
L 640.530167 238.157969 
L 639.837731 238.157969 
L 639.145295 238.157969 
L 638.45286 238.157969 
L 637.760424 238.157969 
L 637.067988 238.157969 
L 636.375553 238.157969 
L 635.683117 238.157969 
L 634.990681 238.157969 
L 634.298246 238.157969 
L 633.60581 238.157969 
L 632.913375 238.157969 
L 632.220939 238.157969 
L 631.528503 238.157969 
L 630.836068 238.157969 
L 630.143632 238.157969 
L 629.451196 238.157969 
L 628.758761 238.157969 
L 628.066325 238.157969 
L 627.373889 238.157969 
L 626.681454 238.157969 
L 625.989018 238.157969 
L 625.296583 238.157969 
L 624.604147 238.157969 
L 623.911711 238.157969 
L 623.219276 238.157969 
L 622.52684 238.157969 
L 621.834404 238.157969 
L 621.141969 238.157969 
L 620.449533 238.157969 
L 619.757098 238.157969 
L 619.064662 238.157969 
L 618.372226 238.157969 
L 617.679791 238.157969 
L 616.987355 238.157969 
L 616.294919 238.157969 
L 615.602484 238.157969 
L 614.910048 238.157969 
L 614.217612 238.157969 
L 613.525177 238.157969 
L 612.832741 238.157969 
L 612.140306 238.157969 
L 611.44787 238.157969 
L 610.755434 238.157969 
L 610.062999 238.157969 
L 609.370563 238.157969 
L 608.678127 238.157969 
L 607.985692 238.157969 
L 607.293256 238.157969 
L 606.60082 238.157969 
L 605.908385 238.157969 
L 605.215949 238.157969 
L 604.523514 238.157969 
L 603.831078 238.157969 
L 603.138642 238.157969 
L 602.446207 238.157969 
L 601.753771 238.157969 
L 601.061335 238.157969 
L 600.3689 238.157969 
L 599.676464 238.157969 
L 598.984028 238.157969 
L 598.291593 238.157969 
L 597.599157 238.157969 
L 596.906722 238.157969 
L 596.214286 238.157969 
L 595.52185 238.157969 
L 594.829415 238.157969 
L 594.136979 238.157969 
L 593.444543 238.157969 
L 592.752108 238.157969 
L 592.059672 238.157969 
L 591.367236 238.157969 
L 590.674801 238.157969 
L 589.982365 238.157969 
L 589.28993 238.157969 
L 588.597494 238.157969 
L 587.905058 238.157969 
L 587.212623 238.157969 
L 586.520187 238.157969 
L 585.827751 238.157969 
L 585.135316 238.157969 
L 584.44288 238.157969 
L 583.750445 238.157969 
L 583.058009 238.157969 
L 582.365573 238.157969 
L 581.673138 238.157969 
L 580.980702 238.157969 
L 580.288266 238.157969 
L 579.595831 238.157969 
L 578.903395 238.157969 
L 578.210959 238.157969 
L 577.518524 238.157969 
L 576.826088 238.157969 
L 576.133653 238.157969 
L 575.441217 238.157969 
L 574.748781 238.157969 
L 574.056346 238.157969 
L 573.36391 238.157969 
L 572.671474 238.157969 
L 571.979039 238.157969 
L 571.286603 238.157969 
L 570.594167 238.157969 
L 569.901732 238.157969 
L 569.209296 238.157969 
L 568.516861 238.157969 
L 567.824425 238.157969 
L 567.131989 238.157969 
L 566.439554 238.157969 
L 565.747118 238.157969 
L 565.054682 238.157969 
L 564.362247 238.157969 
L 563.669811 238.157969 
L 562.977375 238.157969 
L 562.28494 238.157969 
L 561.592504 238.157969 
L 560.900069 238.157969 
L 560.207633 238.157969 
L 559.515197 238.157969 
L 558.822762 238.157969 
L 558.130326 238.157969 
L 557.43789 238.157969 
L 556.745455 238.157969 
L 556.053019 238.157969 
L 555.360583 238.157969 
L 554.668148 238.157969 
L 553.975712 238.157969 
L 553.283277 238.157969 
L 552.590841 238.157969 
L 551.898405 238.157969 
L 551.20597 238.157969 
L 550.513534 238.157969 
L 549.821098 238.157969 
L 549.128663 238.157969 
L 548.436227 238.157969 
L 547.743792 238.157969 
L 547.051356 238.157969 
L 546.35892 238.157969 
L 545.666485 238.157969 
L 544.974049 238.157969 
L 544.281613 238.157969 
L 543.589178 238.157969 
L 542.896742 238.157969 
L 542.204306 238.157969 
L 541.511871 238.157969 
L 540.819435 238.157969 
L 540.127 238.157969 
L 539.434564 238.157969 
L 538.742128 238.157969 
L 538.049693 238.157969 
L 537.357257 238.157969 
L 536.664821 238.157969 
L 535.972386 238.157969 
L 535.27995 238.157969 
L 534.587514 238.157969 
L 533.895079 238.157969 
L 533.202643 238.157969 
L 532.510208 238.157969 
L 531.817772 238.157969 
L 531.125336 238.157969 
L 530.432901 238.157969 
L 529.740465 238.157969 
L 529.048029 238.157969 
L 528.355594 238.157969 
L 527.663158 238.157969 
L 526.970722 238.157969 
L 526.278287 238.157969 
L 525.585851 238.157969 
L 524.893416 238.157969 
L 524.20098 238.157969 
L 523.508544 238.157969 
L 522.816109 238.157969 
L 522.123673 238.157969 
L 521.431237 238.157969 
L 520.738802 238.157969 
L 520.046366 238.157969 
L 519.35393 238.157969 
L 518.661495 238.157969 
L 517.969059 238.157969 
L 517.276624 238.157969 
L 516.584188 238.157969 
L 515.891752 238.157969 
L 515.199317 238.157969 
L 514.506881 238.157969 
L 513.814445 238.157969 
L 513.12201 238.157969 
L 512.429574 238.157969 
L 511.737139 238.157969 
L 511.044703 238.157969 
L 510.352267 238.157969 
L 509.659832 238.157969 
L 508.967396 238.157969 
L 508.27496 238.157969 
L 507.582525 238.157969 
L 506.890089 238.157969 
L 506.197653 238.157969 
L 505.505218 238.157969 
L 504.812782 238.157969 
L 504.120347 238.157969 
L 503.427911 238.157969 
L 502.735475 238.157969 
L 502.04304 238.157969 
L 501.350604 238.157969 
L 500.658168 238.157969 
L 499.965733 238.157969 
L 499.273297 238.157969 
L 498.580861 238.157969 
L 497.888426 238.157969 
L 497.19599 238.157969 
L 496.503555 238.157969 
L 495.811119 238.157969 
L 495.118683 238.157969 
L 494.426248 238.157969 
L 493.733812 238.157969 
L 493.041376 238.157969 
L 492.348941 238.157969 
L 491.656505 238.157969 
L 490.964069 238.157969 
L 490.271634 238.157969 
L 489.579198 238.157969 
L 488.886763 238.157969 
L 488.194327 238.157969 
L 487.501891 238.157969 
L 486.809456 238.157969 
L 486.11702 238.157969 
L 485.424584 238.157969 
L 484.732149 238.157969 
L 484.039713 238.157969 
L 483.347277 238.157969 
L 482.654842 238.157969 
L 481.962406 238.157969 
L 481.269971 238.157969 
L 480.577535 238.157969 
L 479.885099 238.157969 
L 479.192664 238.157969 
L 478.500228 238.157969 
L 477.807792 238.157969 
L 477.115357 238.157969 
L 476.422921 238.157969 
L 475.730486 238.157969 
L 475.03805 238.157969 
L 474.345614 238.157969 
L 473.653179 238.157969 
L 472.960743 238.157969 
L 472.268307 238.157969 
L 471.575872 238.157969 
L 470.883436 238.157969 
L 470.191 238.157969 
L 469.498565 238.157969 
L 468.806129 238.157969 
L 468.113694 238.157969 
L 467.421258 238.157969 
L 466.728822 238.157969 
L 466.036387 238.157969 
L 465.343951 238.157969 
L 464.651515 238.157969 
L 463.95908 238.157969 
L 463.266644 238.157969 
L 462.574208 238.157969 
L 461.881773 238.157969 
L 461.189337 238.157969 
L 460.496902 238.157969 
L 459.804466 238.157969 
L 459.11203 238.157969 
L 458.419595 238.157969 
L 457.727159 238.157969 
L 457.034723 238.157969 
L 456.342288 238.157969 
L 455.649852 238.157969 
L 454.957416 238.157969 
L 454.264981 238.157969 
L 453.572545 238.157969 
L 452.88011 238.157969 
L 452.187674 238.157969 
L 451.495238 238.157969 
L 450.802803 238.157969 
L 450.110367 238.157969 
L 449.417931 238.157969 
L 448.725496 238.157969 
L 448.03306 238.157969 
L 447.340625 238.157969 
L 446.648189 238.157969 
L 445.955753 238.157969 
L 445.263318 238.157969 
L 444.570882 238.157969 
L 443.878446 238.157969 
L 443.186011 238.157969 
L 442.493575 238.157969 
L 441.801139 238.157969 
L 441.108704 238.157969 
L 440.416268 238.157969 
L 439.723833 238.157969 
L 439.031397 238.157969 
L 438.338961 238.157969 
L 437.646526 238.157969 
L 436.95409 238.157969 
L 436.261654 238.157969 
L 435.569219 238.157969 
L 434.876783 238.157969 
L 434.184347 238.157969 
L 433.491912 238.157969 
L 432.799476 238.157969 
L 432.107041 238.157969 
L 431.414605 238.157969 
L 430.722169 238.157969 
L 430.029734 238.157969 
L 429.337298 238.157969 
L 428.644862 238.157969 
L 427.952427 238.157969 
L 427.259991 238.157969 
L 426.567555 238.157969 
L 425.87512 238.157969 
L 425.182684 238.157969 
L 424.490249 238.157969 
L 423.797813 238.157969 
L 423.105377 238.157969 
L 422.412942 238.157969 
L 421.720506 238.157969 
L 421.02807 238.157969 
L 420.335635 238.157969 
L 419.643199 238.157969 
L 418.950763 238.157969 
L 418.258328 238.157969 
L 417.565892 238.157969 
L 416.873457 238.157969 
L 416.181021 238.157969 
L 415.488585 238.157969 
L 414.79615 238.157969 
L 414.103714 238.157969 
L 413.411278 238.157969 
z
" clip-path="url(#p52e77cc83e)" style="fill: #1f77b4; fill-opacity: 0.3"/>
   </g>
   <g id="matplotlib.axis_3">
    <g id="xtick_8">
     <g id="line2d_29">
      <path d="M 412.529038 238.157969 
L 412.529038 23.077969 
" clip-path="url(#p52e77cc83e)" style="fill: none; stroke: #b0b0b0; stroke-width: 0.8; stroke-linecap: square"/>
     </g>
     <g id="line2d_30">
      <g>
       <use xlink:href="#m2e795ddc5c" x="412.529038" y="238.157969" style="stroke: #000000; stroke-width: 0.8"/>
      </g>
     </g>
     <g id="text_19">
      <!-- 0.0 -->
      <g transform="translate(403.782319 253.51625) scale(0.11 -0.11)">
       <use xlink:href="#DejaVuSans-30"/>
       <use xlink:href="#DejaVuSans-2e" transform="translate(63.623047 0)"/>
       <use xlink:href="#DejaVuSans-30" transform="translate(95.410156 0)"/>
      </g>
     </g>
    </g>
    <g id="xtick_9">
     <g id="line2d_31">
      <path d="M 456.641068 238.157969 
L 456.641068 23.077969 
" clip-path="url(#p52e77cc83e)" style="fill: none; stroke: #b0b0b0; stroke-width: 0.8; stroke-linecap: square"/>
     </g>
     <g id="line2d_32">
      <g>
       <use xlink:href="#m2e795ddc5c" x="456.641068" y="238.157969" style="stroke: #000000; stroke-width: 0.8"/>
      </g>
     </g>
     <g id="text_20">
      <!-- 0.5 -->
      <g transform="translate(447.894349 253.51625) scale(0.11 -0.11)">
       <use xlink:href="#DejaVuSans-30"/>
       <use xlink:href="#DejaVuSans-2e" transform="translate(63.623047 0)"/>
       <use xlink:href="#DejaVuSans-35" transform="translate(95.410156 0)"/>
      </g>
     </g>
    </g>
    <g id="xtick_10">
     <g id="line2d_33">
      <path d="M 500.753098 238.157969 
L 500.753098 23.077969 
" clip-path="url(#p52e77cc83e)" style="fill: none; stroke: #b0b0b0; stroke-width: 0.8; stroke-linecap: square"/>
     </g>
     <g id="line2d_34">
      <g>
       <use xlink:href="#m2e795ddc5c" x="500.753098" y="238.157969" style="stroke: #000000; stroke-width: 0.8"/>
      </g>
     </g>
     <g id="text_21">
      <!-- 1.0 -->
      <g transform="translate(492.006379 253.51625) scale(0.11 -0.11)">
       <use xlink:href="#DejaVuSans-31"/>
       <use xlink:href="#DejaVuSans-2e" transform="translate(63.623047 0)"/>
       <use xlink:href="#DejaVuSans-30" transform="translate(95.410156 0)"/>
      </g>
     </g>
    </g>
    <g id="xtick_11">
     <g id="line2d_35">
      <path d="M 544.865128 238.157969 
L 544.865128 23.077969 
" clip-path="url(#p52e77cc83e)" style="fill: none; stroke: #b0b0b0; stroke-width: 0.8; stroke-linecap: square"/>
     </g>
     <g id="line2d_36">
      <g>
       <use xlink:href="#m2e795ddc5c" x="544.865128" y="238.157969" style="stroke: #000000; stroke-width: 0.8"/>
      </g>
     </g>
     <g id="text_22">
      <!-- 1.5 -->
      <g transform="translate(536.118409 253.51625) scale(0.11 -0.11)">
       <use xlink:href="#DejaVuSans-31"/>
       <use xlink:href="#DejaVuSans-2e" transform="translate(63.623047 0)"/>
       <use xlink:href="#DejaVuSans-35" transform="translate(95.410156 0)"/>
      </g>
     </g>
    </g>
    <g id="xtick_12">
     <g id="line2d_37">
      <path d="M 588.977158 238.157969 
L 588.977158 23.077969 
" clip-path="url(#p52e77cc83e)" style="fill: none; stroke: #b0b0b0; stroke-width: 0.8; stroke-linecap: square"/>
     </g>
     <g id="line2d_38">
      <g>
       <use xlink:href="#m2e795ddc5c" x="588.977158" y="238.157969" style="stroke: #000000; stroke-width: 0.8"/>
      </g>
     </g>
     <g id="text_23">
      <!-- 2.0 -->
      <g transform="translate(580.230439 253.51625) scale(0.11 -0.11)">
       <use xlink:href="#DejaVuSans-32"/>
       <use xlink:href="#DejaVuSans-2e" transform="translate(63.623047 0)"/>
       <use xlink:href="#DejaVuSans-30" transform="translate(95.410156 0)"/>
      </g>
     </g>
    </g>
    <g id="xtick_13">
     <g id="line2d_39">
      <path d="M 633.089188 238.157969 
L 633.089188 23.077969 
" clip-path="url(#p52e77cc83e)" style="fill: none; stroke: #b0b0b0; stroke-width: 0.8; stroke-linecap: square"/>
     </g>
     <g id="line2d_40">
      <g>
       <use xlink:href="#m2e795ddc5c" x="633.089188" y="238.157969" style="stroke: #000000; stroke-width: 0.8"/>
      </g>
     </g>
     <g id="text_24">
      <!-- 2.5 -->
      <g transform="translate(624.342469 253.51625) scale(0.11 -0.11)">
       <use xlink:href="#DejaVuSans-32"/>
       <use xlink:href="#DejaVuSans-2e" transform="translate(63.623047 0)"/>
       <use xlink:href="#DejaVuSans-35" transform="translate(95.410156 0)"/>
      </g>
     </g>
    </g>
    <g id="xtick_14">
     <g id="line2d_41">
      <path d="M 677.201218 238.157969 
L 677.201218 23.077969 
" clip-path="url(#p52e77cc83e)" style="fill: none; stroke: #b0b0b0; stroke-width: 0.8; stroke-linecap: square"/>
     </g>
     <g id="line2d_42">
      <g>
       <use xlink:href="#m2e795ddc5c" x="677.201218" y="238.157969" style="stroke: #000000; stroke-width: 0.8"/>
      </g>
     </g>
     <g id="text_25">
      <!-- 3.0 -->
      <g transform="translate(668.454499 253.51625) scale(0.11 -0.11)">
       <use xlink:href="#DejaVuSans-33"/>
       <use xlink:href="#DejaVuSans-2e" transform="translate(63.623047 0)"/>
       <use xlink:href="#DejaVuSans-30" transform="translate(95.410156 0)"/>
      </g>
     </g>
    </g>
    <g id="text_26">
     <!-- x -->
     <g transform="translate(548.000938 268.922031) scale(0.12 -0.12)">
      <use xlink:href="#DejaVuSans-78"/>
     </g>
    </g>
   </g>
   <g id="matplotlib.axis_4">
    <g id="ytick_7">
     <g id="line2d_43">
      <path d="M 399.597188 238.157969 
L 703.507187 238.157969 
" clip-path="url(#p52e77cc83e)" style="fill: none; stroke: #b0b0b0; stroke-width: 0.8; stroke-linecap: square"/>
     </g>
     <g id="line2d_44">
      <g>
       <use xlink:href="#m8c73a232c6" x="399.597188" y="238.157969" style="stroke: #000000; stroke-width: 0.8"/>
      </g>
     </g>
     <g id="text_27">
      <!-- 0 -->
      <g transform="translate(385.598438 242.337109) scale(0.11 -0.11)">
       <use xlink:href="#DejaVuSans-30"/>
      </g>
     </g>
    </g>
    <g id="ytick_8">
     <g id="line2d_45">
      <path d="M 399.597188 195.141969 
L 703.507187 195.141969 
" clip-path="url(#p52e77cc83e)" style="fill: none; stroke: #b0b0b0; stroke-width: 0.8; stroke-linecap: square"/>
     </g>
     <g id="line2d_46">
      <g>
       <use xlink:href="#m8c73a232c6" x="399.597188" y="195.141969" style="stroke: #000000; stroke-width: 0.8"/>
      </g>
     </g>
     <g id="text_28">
      <!-- 10 -->
      <g transform="translate(378.599688 199.321109) scale(0.11 -0.11)">
       <use xlink:href="#DejaVuSans-31"/>
       <use xlink:href="#DejaVuSans-30" transform="translate(63.623047 0)"/>
      </g>
     </g>
    </g>
    <g id="ytick_9">
     <g id="line2d_47">
      <path d="M 399.597188 152.125969 
L 703.507187 152.125969 
" clip-path="url(#p52e77cc83e)" style="fill: none; stroke: #b0b0b0; stroke-width: 0.8; stroke-linecap: square"/>
     </g>
     <g id="line2d_48">
      <g>
       <use xlink:href="#m8c73a232c6" x="399.597188" y="152.125969" style="stroke: #000000; stroke-width: 0.8"/>
      </g>
     </g>
     <g id="text_29">
      <!-- 20 -->
      <g transform="translate(378.599688 156.305109) scale(0.11 -0.11)">
       <use xlink:href="#DejaVuSans-32"/>
       <use xlink:href="#DejaVuSans-30" transform="translate(63.623047 0)"/>
      </g>
     </g>
    </g>
    <g id="ytick_10">
     <g id="line2d_49">
      <path d="M 399.597188 109.109969 
L 703.507187 109.109969 
" clip-path="url(#p52e77cc83e)" style="fill: none; stroke: #b0b0b0; stroke-width: 0.8; stroke-linecap: square"/>
     </g>
     <g id="line2d_50">
      <g>
       <use xlink:href="#m8c73a232c6" x="399.597188" y="109.109969" style="stroke: #000000; stroke-width: 0.8"/>
      </g>
     </g>
     <g id="text_30">
      <!-- 30 -->
      <g transform="translate(378.599688 113.289109) scale(0.11 -0.11)">
       <use xlink:href="#DejaVuSans-33"/>
       <use xlink:href="#DejaVuSans-30" transform="translate(63.623047 0)"/>
      </g>
     </g>
    </g>
    <g id="ytick_11">
     <g id="line2d_51">
      <path d="M 399.597188 66.093969 
L 703.507187 66.093969 
" clip-path="url(#p52e77cc83e)" style="fill: none; stroke: #b0b0b0; stroke-width: 0.8; stroke-linecap: square"/>
     </g>
     <g id="line2d_52">
      <g>
       <use xlink:href="#m8c73a232c6" x="399.597188" y="66.093969" style="stroke: #000000; stroke-width: 0.8"/>
      </g>
     </g>
     <g id="text_31">
      <!-- 40 -->
      <g transform="translate(378.599688 70.273109) scale(0.11 -0.11)">
       <use xlink:href="#DejaVuSans-34"/>
       <use xlink:href="#DejaVuSans-30" transform="translate(63.623047 0)"/>
      </g>
     </g>
    </g>
    <g id="ytick_12">
     <g id="line2d_53">
      <path d="M 399.597188 23.077969 
L 703.507187 23.077969 
" clip-path="url(#p52e77cc83e)" style="fill: none; stroke: #b0b0b0; stroke-width: 0.8; stroke-linecap: square"/>
     </g>
     <g id="line2d_54">
      <g>
       <use xlink:href="#m8c73a232c6" x="399.597188" y="23.077969" style="stroke: #000000; stroke-width: 0.8"/>
      </g>
     </g>
     <g id="text_32">
      <!-- 50 -->
      <g transform="translate(378.599688 27.257109) scale(0.11 -0.11)">
       <use xlink:href="#DejaVuSans-35"/>
       <use xlink:href="#DejaVuSans-30" transform="translate(63.623047 0)"/>
      </g>
     </g>
    </g>
    <g id="text_33">
     <!-- g(x) -->
     <g transform="translate(372.104063 142.660156) rotate(-90) scale(0.12 -0.12)">
      <defs>
       <path id="DejaVuSans-67" d="M 2906 1791 
Q 2906 2416 2648 2759 
Q 2391 3103 1925 3103 
Q 1463 3103 1205 2759 
Q 947 2416 947 1791 
Q 947 1169 1205 825 
Q 1463 481 1925 481 
Q 2391 481 2648 825 
Q 2906 1169 2906 1791 
z
M 3481 434 
Q 3481 -459 3084 -895 
Q 2688 -1331 1869 -1331 
Q 1566 -1331 1297 -1286 
Q 1028 -1241 775 -1147 
L 775 -588 
Q 1028 -725 1275 -790 
Q 1522 -856 1778 -856 
Q 2344 -856 2625 -561 
Q 2906 -266 2906 331 
L 2906 616 
Q 2728 306 2450 153 
Q 2172 0 1784 0 
Q 1141 0 747 490 
Q 353 981 353 1791 
Q 353 2603 747 3093 
Q 1141 3584 1784 3584 
Q 2172 3584 2450 3431 
Q 2728 3278 2906 2969 
L 2906 3500 
L 3481 3500 
L 3481 434 
z
" transform="scale(0.015625)"/>
      </defs>
      <use xlink:href="#DejaVuSans-67"/>
      <use xlink:href="#DejaVuSans-28" transform="translate(63.476562 0)"/>
      <use xlink:href="#DejaVuSans-78" transform="translate(102.490234 0)"/>
      <use xlink:href="#DejaVuSans-29" transform="translate(161.669922 0)"/>
     </g>
    </g>
   </g>
   <g id="line2d_55">
    <path d="M 414.121088 -1 
L 414.79615 70.76234 
L 415.488585 109.927347 
L 416.181021 134.240562 
L 416.873457 150.803449 
L 417.565892 162.812409 
L 418.258328 171.918589 
L 418.950763 179.060985 
L 419.643199 184.813014 
L 420.335635 189.544646 
L 421.720506 196.869177 
L 423.105377 202.275552 
L 424.490249 206.430025 
L 425.87512 209.722311 
L 427.259991 212.395575 
L 428.644862 214.609399 
L 430.029734 216.472853 
L 431.414605 218.063014 
L 433.491912 220.054315 
L 435.569219 221.686544 
L 437.646526 223.04879 
L 440.416268 224.549424 
L 443.186011 225.778905 
L 446.648189 227.035048 
L 450.110367 228.059746 
L 454.264981 229.064976 
L 459.11203 230.01112 
L 465.343951 230.972411 
L 472.268307 231.805286 
L 480.577535 232.580996 
L 490.964069 233.319511 
L 504.120347 234.014512 
L 520.738802 234.650849 
L 542.204306 235.231392 
L 569.901732 235.746466 
L 607.293256 236.209435 
L 659.918364 236.623931 
L 689.693097 236.788727 
L 689.693097 236.788727 
" clip-path="url(#p52e77cc83e)" style="fill: none; stroke: #1f77b4; stroke-width: 1.5; stroke-linecap: square"/>
   </g>
   <g id="patch_10">
    <path d="M 399.597188 238.157969 
L 399.597188 23.077969 
" style="fill: none; stroke: #000000; stroke-width: 0.8; stroke-linejoin: miter; stroke-linecap: square"/>
   </g>
   <g id="patch_11">
    <path d="M 703.507187 238.157969 
L 703.507187 23.077969 
" style="fill: none; stroke: #000000; stroke-width: 0.8; stroke-linejoin: miter; stroke-linecap: square"/>
   </g>
   <g id="patch_12">
    <path d="M 399.597188 238.157969 
L 703.507187 238.157969 
" style="fill: none; stroke: #000000; stroke-width: 0.8; stroke-linejoin: miter; stroke-linecap: square"/>
   </g>
   <g id="patch_13">
    <path d="M 399.597188 23.077969 
L 703.507187 23.077969 
" style="fill: none; stroke: #000000; stroke-width: 0.8; stroke-linejoin: miter; stroke-linecap: square"/>
   </g>
   <g id="text_34">
    <!-- Function NOT in L²[0, π] -->
    <g transform="translate(474.355547 17.077969) scale(0.13 -0.13)">
     <defs>
      <path id="DejaVuSans-4e" d="M 628 4666 
L 1478 4666 
L 3547 763 
L 3547 4666 
L 4159 4666 
L 4159 0 
L 3309 0 
L 1241 3903 
L 1241 0 
L 628 0 
L 628 4666 
z
" transform="scale(0.015625)"/>
      <path id="DejaVuSans-4f" d="M 2522 4238 
Q 1834 4238 1429 3725 
Q 1025 3213 1025 2328 
Q 1025 1447 1429 934 
Q 1834 422 2522 422 
Q 3209 422 3611 934 
Q 4013 1447 4013 2328 
Q 4013 3213 3611 3725 
Q 3209 4238 2522 4238 
z
M 2522 4750 
Q 3503 4750 4090 4092 
Q 4678 3434 4678 2328 
Q 4678 1225 4090 567 
Q 3503 -91 2522 -91 
Q 1538 -91 948 565 
Q 359 1222 359 2328 
Q 359 3434 948 4092 
Q 1538 4750 2522 4750 
z
" transform="scale(0.015625)"/>
      <path id="DejaVuSans-54" d="M -19 4666 
L 3928 4666 
L 3928 4134 
L 2272 4134 
L 2272 0 
L 1638 0 
L 1638 4134 
L -19 4134 
L -19 4666 
z
" transform="scale(0.015625)"/>
     </defs>
     <use xlink:href="#DejaVuSans-46"/>
     <use xlink:href="#DejaVuSans-75" transform="translate(52.019531 0)"/>
     <use xlink:href="#DejaVuSans-6e" transform="translate(115.398438 0)"/>
     <use xlink:href="#DejaVuSans-63" transform="translate(178.777344 0)"/>
     <use xlink:href="#DejaVuSans-74" transform="translate(233.757812 0)"/>
     <use xlink:href="#DejaVuSans-69" transform="translate(272.966797 0)"/>
     <use xlink:href="#DejaVuSans-6f" transform="translate(300.75 0)"/>
     <use xlink:href="#DejaVuSans-6e" transform="translate(361.931641 0)"/>
     <use xlink:href="#DejaVuSans-20" transform="translate(425.310547 0)"/>
     <use xlink:href="#DejaVuSans-4e" transform="translate(457.097656 0)"/>
     <use xlink:href="#DejaVuSans-4f" transform="translate(531.902344 0)"/>
     <use xlink:href="#DejaVuSans-54" transform="translate(610.613281 0)"/>
     <use xlink:href="#DejaVuSans-20" transform="translate(671.697266 0)"/>
     <use xlink:href="#DejaVuSans-69" transform="translate(703.484375 0)"/>
     <use xlink:href="#DejaVuSans-6e" transform="translate(731.267578 0)"/>
     <use xlink:href="#DejaVuSans-20" transform="translate(794.646484 0)"/>
     <use xlink:href="#DejaVuSans-4c" transform="translate(826.433594 0)"/>
     <use xlink:href="#DejaVuSans-b2" transform="translate(882.146484 0)"/>
     <use xlink:href="#DejaVuSans-5b" transform="translate(922.234375 0)"/>
     <use xlink:href="#DejaVuSans-30" transform="translate(961.248047 0)"/>
     <use xlink:href="#DejaVuSans-2c" transform="translate(1024.871094 0)"/>
     <use xlink:href="#DejaVuSans-20" transform="translate(1056.658203 0)"/>
     <use xlink:href="#DejaVuSans-3c0" transform="translate(1088.445312 0)"/>
     <use xlink:href="#DejaVuSans-5d" transform="translate(1148.650391 0)"/>
    </g>
   </g>
   <g id="legend_2">
    <g id="patch_14">
     <path d="M 614.050937 60.434219 
L 696.507187 60.434219 
Q 698.507187 60.434219 698.507187 58.434219 
L 698.507187 30.077969 
Q 698.507187 28.077969 696.507187 28.077969 
L 614.050937 28.077969 
Q 612.050937 28.077969 612.050937 30.077969 
L 612.050937 58.434219 
Q 612.050937 60.434219 614.050937 60.434219 
z
" style="fill: #ffffff; opacity: 0.8; stroke: #cccccc; stroke-linejoin: miter"/>
    </g>
    <g id="line2d_56">
     <path d="M 616.050937 36.176406 
L 626.050937 36.176406 
L 636.050937 36.176406 
" style="fill: none; stroke: #1f77b4; stroke-width: 1.5; stroke-linecap: square"/>
    </g>
    <g id="text_35">
     <!-- g(x) = 1/x -->
     <g transform="translate(644.050937 39.676406) scale(0.1 -0.1)">
      <defs>
       <path id="DejaVuSans-2f" d="M 1625 4666 
L 2156 4666 
L 531 -594 
L 0 -594 
L 1625 4666 
z
" transform="scale(0.015625)"/>
      </defs>
      <use xlink:href="#DejaVuSans-67"/>
      <use xlink:href="#DejaVuSans-28" transform="translate(63.476562 0)"/>
      <use xlink:href="#DejaVuSans-78" transform="translate(102.490234 0)"/>
      <use xlink:href="#DejaVuSans-29" transform="translate(161.669922 0)"/>
      <use xlink:href="#DejaVuSans-20" transform="translate(200.683594 0)"/>
      <use xlink:href="#DejaVuSans-3d" transform="translate(232.470703 0)"/>
      <use xlink:href="#DejaVuSans-20" transform="translate(316.259766 0)"/>
      <use xlink:href="#DejaVuSans-31" transform="translate(348.046875 0)"/>
      <use xlink:href="#DejaVuSans-2f" transform="translate(411.669922 0)"/>
      <use xlink:href="#DejaVuSans-78" transform="translate(445.361328 0)"/>
     </g>
    </g>
    <g id="patch_15">
     <path d="M 616.050937 54.354531 
L 636.050937 54.354531 
L 636.050937 47.354531 
L 616.050937 47.354531 
z
" style="fill: #1f77b4; fill-opacity: 0.3"/>
    </g>
    <g id="text_36">
     <!-- g(x)² -->
     <g transform="translate(644.050937 54.354531) scale(0.1 -0.1)">
      <use xlink:href="#DejaVuSans-67"/>
      <use xlink:href="#DejaVuSans-28" transform="translate(63.476562 0)"/>
      <use xlink:href="#DejaVuSans-78" transform="translate(102.490234 0)"/>
      <use xlink:href="#DejaVuSans-29" transform="translate(161.669922 0)"/>
      <use xlink:href="#DejaVuSans-b2" transform="translate(200.683594 0)"/>
     </g>
    </g>
   </g>
  </g>
 </g>
 <defs>
  <clipPath id="p61959021c1">
   <rect x="47.307187" y="23.077969" width="303.91" height="215.08"/>
  </clipPath>
  <clipPath id="p52e77cc83e">
   <rect x="399.597188" y="23.077969" width="303.91" height="215.08"/>
  </clipPath>
 </defs>
</svg>
